<svg width="263" height="86" viewBox="0 0 263 86" fill="none" xmlns="http://www.w3.org/2000/svg">
<g clip-path="url(#clip0_1017_11241)">
<path d="M0 23.2795H14.1947L14.5659 26.7226H3.91665V33.276H13.6827V36.655H3.91665V43.746H14.5659L14.1947 47.189H0V23.2795Z" fill="white"/>
<path d="M19.5945 23.2795H23.5111V43.618H34.4547L34.0195 47.2019H19.5945V23.2795Z" fill="white"/>
<path d="M37.8333 23.2795H41.7499V47.2019H37.8333V23.2795Z" fill="white"/>
<path d="M47.498 47.2018V23.2795H50.7363L60.1312 34.3255C61.5135 36.0151 62.9343 37.7046 64.4958 39.7013H64.5982C64.4574 37.7046 64.4574 35.9895 64.4574 33.66V23.2923H68.3485V47.5858H66.1853L55.7793 35.4903C54.333 33.8007 52.9122 32.0728 51.3251 30.1145H51.2227C51.3635 32.0728 51.3891 33.8007 51.3891 36.1687V47.2146H47.498V47.2018Z" fill="white"/>
<path d="M72.6374 42.8778L75.3765 40.9579L75.9909 41.0987C77.3732 43.4922 78.9348 44.4777 81.1875 44.4777C83.4402 44.4777 85.2065 42.929 85.2065 41.0347C85.2065 39.1403 84.221 37.9884 79.9971 36.1964C75.1717 34.1997 73.5078 32.075 73.5078 28.9007C73.5078 25.3808 76.4133 22.6545 81.0723 22.6545C84.5154 22.6545 87.0241 24.1009 88.5088 26.5712L85.8337 28.4911L85.2193 28.3503C84.2338 26.8656 82.9922 25.9824 81.0595 25.9824C78.794 25.9824 77.514 27.1984 77.514 28.8239C77.514 30.4495 78.3204 31.2174 82.5826 33.1501C87.792 35.4797 89.2384 37.5788 89.2384 40.7915C89.2384 44.7081 85.8977 47.8568 81.2003 47.8568C77.386 47.8568 74.6085 46.3721 72.6118 42.8906L72.6374 42.8778Z" fill="white"/>
<path d="M103.792 47.2019V23.2795H110.409C116.117 23.2795 118.818 25.5067 118.818 29.5257C118.818 31.8552 117.397 33.8135 115.106 34.4919V34.5943C118.076 35.2343 120.034 37.3334 120.034 40.3669C120.034 44.8595 117.09 47.189 110.614 47.189H103.792V47.2019ZM107.708 33.3784H110.55C113.596 33.3784 115.081 32.2008 115.081 29.8329C115.081 27.6314 113.622 26.4922 110.217 26.4922H107.721V33.3784H107.708ZM107.708 43.9252H110.447C114.53 43.9252 116.156 42.7092 116.156 40.1365C116.156 37.5638 114.466 36.3223 110.754 36.3223H107.708V43.9252Z" fill="white"/>
<path d="M140.717 47.2019L138.516 41.5957H127.969L125.806 47.2019H121.416L131.387 23.2795H135.239L145.108 47.2019H140.717ZM129.159 38.4854H137.338L134.804 31.996C134.228 30.4729 133.729 28.9881 133.281 27.5034H133.179C132.769 28.9881 132.231 30.4729 131.655 31.996L129.159 38.4854Z" fill="white"/>
<path d="M162.642 47.2019L155.41 36.5526L151.826 40.5461V47.2019H147.91V23.2795H151.826V27.6698C151.826 30.2681 151.762 33.0456 151.724 35.6439H151.762C153.388 33.6856 154.911 31.8552 156.562 29.9353L162.245 23.2795H166.981L158.021 33.5576L167.416 47.2019H162.655H162.642Z" fill="white"/>
<path d="M167.534 35.3017C167.534 27.9035 172.936 22.6301 180.168 22.6301C185.198 22.6301 188.922 24.6908 191.252 28.7483L188.385 30.6426L187.809 30.5018C185.979 27.6603 183.751 26.3164 180.27 26.3164C175.342 26.3164 171.758 30.0666 171.758 35.3017C171.758 40.5367 175.201 44.2229 180.065 44.2229C184.059 44.2229 187.604 42.1238 187.873 37.9V37.7592H181.422V34.5849H191.457V47.1924H187.873V45.9125C187.873 45.0037 188.014 44.2613 188.206 43.6213L188.142 43.5829C186.183 46.5268 183.239 47.8452 179.63 47.8452C172.565 47.8452 167.534 42.6358 167.534 35.3145V35.3017Z" fill="white"/>
<path d="M213.215 47.2036L211.013 41.5974H200.466L198.303 47.2036H193.913L203.884 23.2813H207.736L217.605 47.2036H213.215ZM201.657 38.4871H209.835L207.301 31.9978C206.725 30.4746 206.226 28.9899 205.778 27.5051H205.676C205.266 28.9899 204.728 30.4746 204.152 31.9978L201.657 38.4871ZM202.399 18.3791C202.399 16.4591 203.922 15 205.778 15C207.634 15 209.195 16.4591 209.195 18.3791C209.195 20.299 207.647 21.7197 205.778 21.7197C203.909 21.7197 202.399 20.2606 202.399 18.3791ZM203.858 18.3791C203.858 19.4542 204.664 20.299 205.778 20.299C206.892 20.299 207.698 19.4542 207.698 18.3791C207.698 17.3039 206.892 16.4207 205.778 16.4207C204.664 16.4207 203.858 17.3039 203.858 18.3791Z" fill="white"/>
<path d="M238.723 46.6259L238.492 47.2019H234.435L227.574 37.231H224.362V47.2019H220.407V23.2795H227.946C233.321 23.2795 236.227 25.6091 236.227 30.3705C236.227 33.4808 234.601 35.7079 231.594 36.655L238.723 46.6259ZM224.362 26.5946V34.0311H227.331C230.774 34.0311 232.361 33.02 232.361 30.3833C232.361 27.6058 230.736 26.5946 227.331 26.5946H224.362Z" fill="white"/>
<path d="M241.631 47.2019V23.2795H248.594C257.515 23.2795 262.315 27.5674 262.315 35.1447C262.315 42.722 257.208 47.2019 248.594 47.2019H241.631ZM245.547 43.6564H248.222C254.981 43.6564 258.219 40.9813 258.219 35.0679C258.219 29.1545 255.07 26.825 248.222 26.825H245.547V43.6564Z" fill="white"/>
<path d="M48.8915 71.7765C47.7395 71.6101 47.1635 71.5333 45.9988 71.3669C45.538 70.9445 44.8852 69.9205 44.0533 68.295C43.7845 67.7702 43.5029 67.271 43.2085 66.7846C42.9141 66.2983 42.7093 65.9911 42.5813 65.8759C42.4533 65.7607 42.2613 65.6839 41.9669 65.6327C41.8005 65.6071 41.7109 65.5943 41.5445 65.5687C41.4038 66.4903 41.327 66.951 41.1862 67.8854C41.0582 68.7046 40.9942 69.2421 40.9942 69.4981C40.9942 69.7541 41.071 69.9589 41.2246 70.1125C41.3782 70.2661 41.6981 70.3685 42.1845 70.4453C42.3893 70.4709 42.4917 70.4965 42.6965 70.5221C42.6709 70.6629 42.6709 70.7397 42.6453 70.8805C40.5974 70.5733 39.5606 70.4197 37.5127 70.0869C37.5383 69.9461 37.5511 69.8693 37.5639 69.7285C37.7047 69.7541 37.7687 69.7669 37.9095 69.7797C38.3703 69.8565 38.6903 69.8437 38.8822 69.7669C39.0742 69.6773 39.215 69.5237 39.3046 69.2933C39.3942 69.063 39.4966 68.5126 39.6374 67.6422C39.9574 65.6071 40.111 64.5831 40.431 62.5352C40.559 61.7032 40.623 61.1657 40.6102 60.9225C40.6102 60.6793 40.5206 60.4873 40.3798 60.3721C40.239 60.2569 39.8934 60.1545 39.3558 60.0649C39.279 60.0649 39.2534 60.0521 39.1766 60.0393C39.2022 59.8985 39.215 59.8217 39.2278 59.6809C39.8294 59.7449 40.1366 59.7833 40.751 59.8345C41.7621 59.9497 42.5685 60.0393 43.1573 60.1289C44.1557 60.2825 44.962 60.5001 45.5636 60.7689C46.1652 61.0377 46.626 61.4216 46.9587 61.8952C47.2915 62.3688 47.4067 62.9064 47.3299 63.4824C47.2275 64.1607 46.8947 64.7111 46.306 65.1207C45.73 65.5303 44.9236 65.7223 43.9125 65.6839C44.322 65.9655 44.9236 66.823 45.73 68.2694C46.3828 69.4469 46.9203 70.2277 47.3427 70.6245C47.7651 71.0213 48.2899 71.2645 48.9171 71.3797C48.8915 71.5205 48.8915 71.5973 48.8659 71.7381L48.8915 71.7765ZM41.5957 65.2231C41.9925 65.2743 42.3893 65.3255 42.8117 65.3639C43.2341 65.4023 43.6053 65.4023 43.9253 65.3639C44.2452 65.3127 44.514 65.2231 44.7316 65.0695C44.9492 64.9159 45.1284 64.7111 45.282 64.4423C45.4356 64.1735 45.538 63.828 45.602 63.4056C45.7044 62.676 45.602 62.0616 45.3076 61.5624C45.0132 61.0633 44.2324 60.7305 42.9781 60.5385C42.7861 60.5129 42.5685 60.4873 42.3125 60.4745C42.0181 62.3816 41.8773 63.3288 41.5829 65.2359L41.5957 65.2231Z" fill="white"/>
<path d="M59.554 69.8563C59.7076 69.8691 59.7844 69.8819 59.938 69.9075C59.6948 71.2002 59.5668 71.8402 59.3108 73.133C55.7525 72.6978 53.9606 72.4674 50.4023 71.9938L50.4535 71.6354C50.5431 71.6354 50.5815 71.6482 50.6711 71.661C51.2087 71.7378 51.5543 71.7122 51.7335 71.597C51.9127 71.4818 52.0279 71.3154 52.1047 71.1106C52.1815 70.9058 52.2711 70.3683 52.3863 69.4979C52.6551 67.45 52.7959 66.426 53.0646 64.3781C53.167 63.5845 53.2182 63.0597 53.2054 62.8037C53.2054 62.5477 53.1158 62.3558 52.975 62.2406C52.8343 62.1254 52.5015 62.023 51.9895 61.959C52.0151 61.8182 52.0151 61.7414 52.0407 61.6006C55.0614 62.0102 56.5717 62.2022 59.5924 62.5733C59.5668 63.6229 59.554 64.1605 59.5284 65.2101C59.3876 65.1973 59.3108 65.1845 59.1572 65.1589C59.0804 64.4165 58.9396 63.8661 58.7348 63.5333C58.53 63.2005 58.2613 62.9701 57.9413 62.8421C57.6213 62.7269 57.0837 62.6117 56.3541 62.5222C55.7653 62.4454 55.471 62.407 54.895 62.3302C54.6646 64.0837 54.5494 64.9541 54.319 66.7076C54.767 66.7716 54.9974 66.7972 55.4454 66.8484C55.9573 66.9124 56.3285 66.9124 56.5461 66.8484C56.7637 66.7844 56.9173 66.6692 57.0069 66.5028C57.0965 66.3364 57.1733 65.9908 57.2373 65.4788C57.3909 65.4916 57.4549 65.5044 57.6085 65.53C57.4293 66.9636 57.3397 67.6804 57.1605 69.1011C57.0069 69.0883 56.9429 69.0755 56.7893 69.0499C56.8661 68.4739 56.8661 68.0771 56.7893 67.8596C56.7125 67.6548 56.5845 67.5012 56.4053 67.4244C56.2261 67.3476 55.9061 67.2708 55.4454 67.2068C54.9718 67.1428 54.7414 67.1172 54.2806 67.0532C54.1526 68.0387 54.0886 68.5379 53.9606 69.5235C53.7942 70.765 53.7814 71.4946 53.9222 71.7378C54.063 71.981 54.4854 72.1474 55.2022 72.237C55.5222 72.2754 55.6885 72.301 56.0085 72.3394C56.5717 72.4162 57.0453 72.4034 57.4293 72.301C57.8133 72.1986 58.1973 71.9554 58.5812 71.5586C58.9652 71.1618 59.298 70.5858 59.5796 69.8435L59.554 69.8563Z" fill="white"/>
<path d="M61.9617 73.3371C62.1153 71.9931 62.1921 71.3147 62.3585 69.9708C62.5121 69.9836 62.5888 69.9964 62.7552 70.022C62.9472 72.2619 63.8944 73.4779 65.5711 73.6699C66.3263 73.7595 66.9407 73.6059 67.4015 73.2347C67.8622 72.8635 68.1182 72.4155 68.1694 71.8907C68.2206 71.3659 68.0926 70.9052 67.7599 70.5084C67.4399 70.1244 66.8127 69.6764 65.8911 69.1644C65.072 68.7164 64.4704 68.3197 64.0608 67.9997C63.6512 67.6797 63.3568 67.2957 63.1648 66.8349C62.9728 66.3741 62.9088 65.9005 62.96 65.4142C63.0496 64.6718 63.3824 64.083 63.9584 63.6478C64.5344 63.2126 65.2255 63.0334 66.0319 63.123C66.4799 63.1742 66.8895 63.2894 67.2735 63.4814C67.6575 63.6734 68.0286 64.0062 68.3998 64.5054C68.6686 64.2494 68.835 63.955 68.899 63.635C69.0398 63.6478 69.1038 63.6606 69.2446 63.6734C69.1294 64.7742 69.0654 65.3118 68.9502 66.4125C68.8094 66.3997 68.7454 66.3869 68.6046 66.3741C68.4894 65.555 68.2078 64.8894 67.7599 64.3774C67.3119 63.8654 66.7487 63.571 66.0959 63.4942C65.4687 63.4302 64.9824 63.5454 64.6496 63.8398C64.3168 64.147 64.1248 64.4926 64.0864 64.9022C64.0352 65.3886 64.176 65.8109 64.5088 66.1949C64.8416 66.5661 65.4559 67.0397 66.3647 67.5645C67.2351 68.0637 67.8751 68.4604 68.259 68.7548C68.6558 69.0492 68.9502 69.4204 69.155 69.8812C69.3598 70.342 69.4366 70.854 69.3726 71.4171C69.283 72.3131 68.899 73.0043 68.2206 73.5035C67.5423 74.0026 66.6975 74.1946 65.6735 74.0794C64.496 73.9514 63.5616 73.4011 62.8704 72.4283C62.6656 72.6459 62.4993 72.9787 62.3585 73.4011C62.2049 73.3883 62.1153 73.3755 61.9617 73.3499V73.3371Z" fill="white"/>
<path d="M72.3652 66.5273C72.2244 66.5145 72.1476 66.5017 72.0068 66.4889C72.1348 65.4778 72.186 64.9786 72.314 63.9802C76.4227 64.3898 78.4834 64.5818 82.592 64.9274C82.528 65.9385 82.5025 66.4377 82.4385 67.4489C82.2977 67.4489 82.2337 67.4361 82.1057 67.4233C82.0417 66.7193 81.9265 66.2073 81.7345 65.8874C81.5553 65.5674 81.3377 65.3626 81.1073 65.2602C80.8769 65.1706 80.4673 65.0938 79.8913 65.0554C79.213 64.9914 78.8674 64.9658 78.189 64.9018C77.9202 67.8585 77.7922 69.3432 77.5234 72.2999C77.4466 73.1191 77.421 73.6567 77.4338 73.9254C77.4466 74.1814 77.5362 74.3862 77.7026 74.527C77.869 74.6678 78.189 74.7574 78.6754 74.7958C78.8802 74.8086 78.9954 74.8214 79.2002 74.847C79.2002 74.9878 79.1874 75.0646 79.1746 75.2054C77.0243 75.0134 75.9491 74.9238 73.7988 74.7062C73.8116 74.5654 73.8244 74.4886 73.8372 74.3478C74.0548 74.3734 74.17 74.3862 74.3875 74.399C74.8483 74.4374 75.1683 74.4118 75.3603 74.3222C75.5523 74.2198 75.6803 74.0535 75.7571 73.8231C75.8339 73.5927 75.9107 73.0295 75.9875 72.1591C76.2691 69.2024 76.3971 67.7177 76.6787 64.761C76.0515 64.697 75.7315 64.6714 75.1043 64.6074C74.4259 64.5434 73.9652 64.5306 73.722 64.569C73.4788 64.6074 73.2484 64.7866 73.0052 65.081C72.762 65.3882 72.5572 65.8618 72.378 66.5145L72.3652 66.5273Z" fill="white"/>
<path d="M89.0698 72.0824C87.4442 71.9672 86.6251 71.9032 84.9995 71.7752C84.8715 72.0312 84.8075 72.1592 84.6667 72.4152C84.1803 73.3495 83.9244 73.9639 83.8988 74.2583C83.8732 74.5783 83.9627 74.8215 84.1675 75.0007C84.3723 75.1799 84.6539 75.2823 84.9995 75.3079C84.9995 75.4487 84.9867 75.5255 84.9739 75.6663C83.694 75.5639 83.054 75.5127 81.7612 75.4103C81.7612 75.2695 81.774 75.1927 81.7868 75.0519C82.2732 75.0135 82.6444 74.8855 82.8876 74.6423C83.1436 74.4119 83.4636 73.8871 83.8603 73.0936C83.8987 73.0168 84.0395 72.7352 84.3083 72.2232C85.7803 69.4073 86.5227 67.9993 87.969 65.1707C88.097 65.1707 88.1482 65.1835 88.2762 65.1963C89.4537 68.6393 90.0425 70.3545 91.2585 73.7847C91.4249 74.2327 91.5145 74.4631 91.6809 74.9239C91.7705 75.1799 91.9112 75.3847 92.0904 75.5383C92.2696 75.6919 92.5512 75.7943 92.9224 75.8583C92.9224 75.999 92.9096 76.0758 92.8968 76.2166C91.1945 76.1014 90.3497 76.0502 88.6474 75.935C88.6474 75.7943 88.6602 75.7175 88.673 75.5767C89.1978 75.6151 89.5433 75.6023 89.7353 75.5383C89.9273 75.4743 90.0297 75.3335 90.0425 75.1159C90.0425 75.0007 89.9529 74.6551 89.7481 74.0791C89.4665 73.2728 89.3385 72.876 89.057 72.0824H89.0698ZM88.9546 71.724C88.3274 69.8809 88.0074 68.9593 87.393 67.1162C86.5099 68.8441 86.0619 69.7145 85.1659 71.4424C86.6762 71.5576 87.4314 71.6216 88.9546 71.724Z" fill="white"/>
<path d="M102.175 66.2215C103.596 66.2855 104.3 66.3239 105.72 66.3879C105.72 66.5287 105.72 66.6055 105.708 66.7463C105.234 66.7463 104.876 66.8487 104.645 67.0151C104.402 67.1815 104.248 67.3735 104.184 67.5911C104.12 67.8087 104.082 68.2438 104.044 68.8838C103.98 70.279 103.941 70.9829 103.877 72.3781C103.839 73.2741 103.775 73.9396 103.672 74.362C103.583 74.7972 103.353 75.2068 102.994 75.6164C102.636 76.0132 102.137 76.3331 101.497 76.5507C100.857 76.7683 100.14 76.8579 99.3207 76.8067C98.3607 76.7555 97.5543 76.5507 96.9016 76.1924C96.2488 75.834 95.8008 75.3988 95.5448 74.874C95.2888 74.3492 95.1864 73.6708 95.2376 72.8261C95.2632 72.3909 95.276 72.1733 95.3144 71.7509C95.3912 70.4454 95.4296 69.7926 95.5064 68.487C95.5576 67.6551 95.5704 67.1047 95.532 66.8615C95.4936 66.6183 95.404 66.4391 95.2504 66.3367C95.0968 66.2343 94.7512 66.1703 94.2137 66.1319C94.1113 66.1319 94.0729 66.1319 93.9705 66.1191C93.9705 65.9783 93.9833 65.9015 93.9961 65.7607C95.9288 65.8887 96.9016 65.9399 98.8343 66.0423C98.8343 66.1831 98.8343 66.2599 98.8087 66.4007H98.5911C98.0663 66.3623 97.7207 66.3879 97.5543 66.4647C97.3879 66.5415 97.2727 66.6951 97.1959 66.9255C97.1319 67.1559 97.0679 67.7063 97.0168 68.5766C96.94 69.895 96.9016 70.5606 96.8248 71.8917C96.7608 73.0437 96.7608 73.8628 96.8504 74.3492C96.9271 74.8356 97.2087 75.2708 97.6951 75.6548C98.1815 76.0388 98.8343 76.2563 99.679 76.3075C100.332 76.3459 100.946 76.2563 101.497 76.0388C102.047 75.8212 102.457 75.5396 102.738 75.194C103.02 74.8484 103.199 74.49 103.276 74.106C103.353 73.7348 103.404 73.1333 103.442 72.3141C103.506 70.8805 103.545 70.1638 103.608 68.7302C103.634 68.1415 103.621 67.7191 103.57 67.4759C103.519 67.2327 103.378 67.0407 103.161 66.8871C102.943 66.7335 102.597 66.6311 102.111 66.5799C102.111 66.4391 102.111 66.3623 102.124 66.2215H102.175Z" fill="white"/>
<path d="M118.467 77.3295C117.303 77.3039 116.727 77.2911 115.562 77.2655C115.05 76.8944 114.295 75.96 113.284 74.4369C112.964 73.9505 112.618 73.4897 112.272 73.0289C111.927 72.5809 111.684 72.2993 111.543 72.2097C111.415 72.1073 111.197 72.0561 110.903 72.0433C110.737 72.0433 110.647 72.0433 110.481 72.0305C110.442 72.9649 110.429 73.4385 110.404 74.3729C110.378 75.2048 110.378 75.7424 110.404 75.9984C110.429 76.2544 110.532 76.4464 110.698 76.5744C110.865 76.7024 111.197 76.7792 111.684 76.792C111.888 76.792 111.991 76.792 112.196 76.8048C112.196 76.9456 112.196 77.0223 112.196 77.1631C110.122 77.0991 109.085 77.0608 107.025 76.9712C107.025 76.8304 107.025 76.7536 107.037 76.6128C107.178 76.6128 107.242 76.6128 107.383 76.6256C107.844 76.6384 108.164 76.6 108.356 76.4976C108.535 76.3952 108.663 76.216 108.714 75.9728C108.765 75.7296 108.817 75.1792 108.855 74.2961C108.932 72.2353 108.97 71.1986 109.047 69.1378C109.073 68.3059 109.073 67.7555 109.047 67.5123C109.009 67.2691 108.906 67.0899 108.753 67.0003C108.599 66.8979 108.241 66.8467 107.703 66.8211C107.626 66.8211 107.601 66.8211 107.524 66.8211C107.524 66.6803 107.524 66.6035 107.537 66.4627C108.151 66.4627 108.445 66.4628 109.06 66.45C110.071 66.45 110.877 66.4499 111.479 66.4627C112.49 66.5011 113.309 66.6163 113.936 66.8211C114.564 67.0259 115.076 67.3459 115.447 67.7811C115.831 68.2163 116.01 68.7283 115.997 69.317C115.984 70.0082 115.703 70.5842 115.178 71.0578C114.653 71.5314 113.885 71.8129 112.874 71.9025C113.309 72.1329 114.013 72.9137 114.973 74.2577C115.754 75.3456 116.381 76.0624 116.842 76.408C117.303 76.7536 117.853 76.9456 118.493 76.9712C118.493 77.112 118.493 77.1888 118.493 77.3295H118.467ZM110.481 71.6722C110.877 71.6722 111.287 71.6722 111.709 71.6722C112.132 71.6722 112.503 71.621 112.81 71.5314C113.13 71.4418 113.373 71.3138 113.578 71.1474C113.77 70.9682 113.936 70.7378 114.052 70.4562C114.167 70.1746 114.231 69.8162 114.244 69.3938C114.269 68.6515 114.09 68.0627 113.732 67.6019C113.373 67.1411 112.567 66.8979 111.312 66.8595C111.121 66.8595 110.903 66.8595 110.647 66.8595C110.583 68.7795 110.545 69.7394 110.481 71.6722Z" fill="white"/>
<path d="M126.561 73.5696C124.922 73.5568 124.116 73.544 122.478 73.5184C122.362 73.7872 122.311 73.9152 122.196 74.184C121.774 75.1439 121.556 75.7711 121.543 76.0655C121.543 76.3855 121.646 76.6159 121.863 76.7951C122.081 76.9615 122.362 77.0511 122.708 77.0511C122.708 77.1919 122.708 77.2687 122.708 77.4095C121.428 77.3967 120.775 77.3839 119.495 77.3583V76.9999C119.982 76.9359 120.34 76.7823 120.583 76.5263C120.827 76.2703 121.108 75.7455 121.454 74.9263C121.479 74.8495 121.607 74.5552 121.85 74.0304C123.143 71.1249 123.783 69.6785 125.05 66.7603C125.178 66.7603 125.23 66.7603 125.358 66.7603C126.74 70.1137 127.444 71.7905 128.877 75.1439C129.069 75.5919 129.172 75.8095 129.364 76.2447C129.479 76.4879 129.62 76.6927 129.812 76.8335C130.004 76.9743 130.285 77.0639 130.657 77.1023C130.657 77.2431 130.657 77.3199 130.657 77.4607C128.954 77.4607 128.109 77.4607 126.407 77.4351C126.407 77.2943 126.407 77.2175 126.407 77.0767C126.932 77.0767 127.277 77.0511 127.469 76.9743C127.649 76.8975 127.751 76.7567 127.751 76.5263C127.751 76.4111 127.636 76.0783 127.393 75.5023C127.073 74.7216 126.906 74.3248 126.586 73.544L126.561 73.5696ZM126.433 73.224C125.69 71.4193 125.319 70.5233 124.577 68.7186C123.809 70.5105 123.412 71.3937 122.631 73.1856C124.154 73.2112 124.91 73.2112 126.42 73.224H126.433Z" fill="white"/>
<path d="M141.585 77.6154C138.462 73.7244 136.914 71.7661 133.893 67.8366C133.906 70.7549 133.918 72.214 133.931 75.1451C133.931 75.7467 133.97 76.1435 134.034 76.3355C134.098 76.5275 134.277 76.7067 134.558 76.8603C134.84 77.0139 135.275 77.0907 135.851 77.0907C135.851 77.2315 135.851 77.3082 135.851 77.449C134.238 77.449 133.432 77.4618 131.819 77.4618C131.819 77.321 131.819 77.2443 131.819 77.1035C132.331 77.0651 132.728 76.9755 132.997 76.8219C133.266 76.6683 133.432 76.5147 133.483 76.3483C133.534 76.1819 133.56 75.7723 133.56 75.1323C133.56 72.9052 133.56 71.7789 133.534 69.5517C133.534 68.7454 133.496 68.2078 133.419 67.9262C133.342 67.6574 133.227 67.4782 133.061 67.4014C132.894 67.3246 132.523 67.2862 131.96 67.2862C131.96 67.1454 131.96 67.0686 131.96 66.9278C133.214 66.9278 133.842 66.9278 135.096 66.9278C137.63 70.2045 138.923 71.8429 141.534 75.0939C141.496 72.5724 141.47 71.3181 141.432 68.7966C141.432 68.3358 141.368 68.003 141.265 67.8238C141.163 67.6446 140.971 67.491 140.664 67.3886C140.369 67.2862 140.011 67.235 139.589 67.2478C139.589 67.107 139.589 67.0302 139.589 66.8894C141.125 66.8638 141.905 66.851 143.441 66.8254C143.441 66.9662 143.441 67.043 143.441 67.1838C142.993 67.235 142.635 67.3246 142.379 67.4654C142.123 67.6062 141.957 67.7726 141.893 67.9646C141.829 68.1566 141.79 68.4766 141.803 68.9246C141.867 72.406 141.893 74.1468 141.957 77.6282C141.816 77.6282 141.752 77.6282 141.611 77.6282L141.585 77.6154Z" fill="white"/>
<path d="M152.134 72.6084C153.99 72.5444 154.912 72.506 156.768 72.4292C156.768 72.5828 156.768 72.6468 156.78 72.8004C156.268 72.826 155.923 72.89 155.744 72.9924C155.564 73.0948 155.449 73.274 155.398 73.5172C155.347 73.7604 155.347 74.3236 155.385 75.2323C155.398 75.6803 155.411 75.8979 155.436 76.3459C155.308 76.3331 155.193 76.3203 155.091 76.3331C154.681 76.3459 154.156 76.4867 153.491 76.7555C152.595 77.1138 151.763 77.3187 150.995 77.3442C149.446 77.3954 148.141 76.9347 147.091 75.9747C146.042 75.0147 145.504 73.7604 145.466 72.25C145.427 70.7397 145.888 69.4085 146.822 68.2566C147.757 67.0918 149.049 66.4902 150.688 66.439C152.109 66.3879 153.299 66.8614 154.272 67.8598C154.425 67.4886 154.528 67.0918 154.553 66.6694C154.707 66.6694 154.784 66.6694 154.924 66.6566C154.976 68.0646 155.014 68.7686 155.065 70.1765C154.912 70.1765 154.835 70.1765 154.681 70.1893C154.489 69.1141 154.041 68.2694 153.337 67.6678C152.633 67.0662 151.801 66.7718 150.841 66.8102C149.843 66.8486 148.985 67.2326 148.269 67.9878C147.552 68.743 147.206 70.0613 147.258 71.93C147.309 73.7988 147.706 75.1171 148.461 75.8723C149.216 76.6275 150.125 76.9987 151.2 76.9603C151.75 76.9475 152.249 76.8195 152.697 76.5763C153.145 76.3459 153.44 76.0643 153.593 75.7443C153.747 75.4243 153.811 75.0275 153.798 74.5412C153.772 73.978 153.721 73.6068 153.644 73.4148C153.555 73.2228 153.44 73.1076 153.273 73.0436C153.107 72.9796 152.825 72.9668 152.403 72.9796C152.301 72.9796 152.249 72.9796 152.147 72.9796C152.147 72.826 152.147 72.762 152.134 72.6084Z" fill="white"/>
<path d="M169.989 69.8456C171.333 69.756 172.012 69.7176 173.356 69.6152C173.356 69.756 173.368 69.8328 173.381 69.9736C172.972 70.1144 172.613 70.3448 172.306 70.652C172.012 70.9464 171.73 71.5224 171.436 72.3543C171.192 73.0327 170.962 73.5447 170.744 73.8647C171.359 74.6198 171.845 75.0934 172.178 75.2726C172.524 75.4646 172.869 75.5414 173.24 75.5158C173.74 75.4774 174.111 75.2214 174.341 74.7478C174.482 74.7478 174.559 74.735 174.712 74.7222C174.635 75.1574 174.418 75.5158 174.072 75.7974C173.727 76.079 173.317 76.2454 172.844 76.271C171.807 76.3478 170.86 75.8998 170.015 74.9398C169.157 76.015 168.185 76.5782 167.148 76.6422C166.777 76.6678 166.393 76.6294 166.021 76.5014C165.65 76.3862 165.305 76.207 165.01 75.9638C164.703 75.7206 164.46 75.4262 164.268 75.0934C164.076 74.7478 163.974 74.3638 163.961 73.9415C163.935 73.3015 164.076 72.7383 164.409 72.2775C164.741 71.8167 165.407 71.228 166.393 70.4856C165.727 69.6792 165.381 68.9369 165.343 68.2585C165.317 67.7209 165.497 67.2345 165.893 66.7865C166.277 66.3385 166.789 66.0954 167.429 66.057C167.993 66.0186 168.517 66.1466 168.991 66.4281C169.464 66.7225 169.72 67.1193 169.759 67.6185C169.81 68.4121 169.106 69.2312 167.647 70.076C168.159 70.6776 168.658 71.2536 169.132 71.8295C169.605 72.4055 170.079 72.9687 170.54 73.5191C170.808 73.0967 171.026 72.6487 171.167 72.1879C171.308 71.7399 171.372 71.3816 171.359 71.1384C171.32 70.5496 170.885 70.2296 170.066 70.1912C170.066 70.0504 170.053 69.9736 170.04 69.8328L169.989 69.8456ZM166.636 70.7928C166.111 71.164 165.701 71.5736 165.433 72.0343C165.151 72.4951 165.036 72.9303 165.049 73.3399C165.087 73.9799 165.381 74.5686 165.932 75.1062C166.495 75.6438 167.097 75.887 167.762 75.8486C168.492 75.8102 169.157 75.4006 169.733 74.6582C169.119 73.8647 168.556 73.1479 168.031 72.5079C167.519 71.8679 167.045 71.3048 166.61 70.8056L166.636 70.7928ZM167.365 69.8072C168.377 69.1416 168.863 68.4505 168.812 67.7465C168.799 67.5417 168.761 67.3497 168.684 67.1833C168.607 67.0169 168.517 66.8761 168.402 66.7481C168.287 66.6329 168.146 66.5433 167.98 66.4921C167.813 66.4409 167.647 66.4153 167.455 66.4281C167.071 66.4537 166.777 66.5945 166.572 66.8505C166.367 67.1065 166.265 67.4265 166.29 67.7977C166.316 68.2969 166.674 68.9753 167.365 69.8072Z" fill="white"/>
<path d="M190.683 70.5511C190.824 70.5383 190.888 70.5255 191.029 70.5127C191.182 71.9846 191.246 72.7142 191.4 74.1861L191.054 74.2245C190.914 73.8149 190.709 73.4693 190.427 73.175C189.582 74.3141 188.418 74.9413 186.946 75.0821C185.384 75.2229 184.066 74.8645 183.003 73.9941C181.928 73.1238 181.34 71.895 181.199 70.3207C181.109 69.2839 181.25 68.2855 181.621 67.3384C181.992 66.3784 182.555 65.6488 183.323 65.1369C184.091 64.6249 184.949 64.3177 185.909 64.2281C186.703 64.1513 187.432 64.2409 188.11 64.5097C188.789 64.7657 189.301 65.0729 189.659 65.444C189.838 64.9833 189.928 64.5225 189.928 64.0489C190.069 64.0361 190.133 64.0233 190.274 64.0105C190.466 65.5976 190.568 66.3912 190.773 67.9656C190.632 67.9784 190.568 67.9911 190.44 68.0039C190.069 66.6216 189.48 65.6872 188.712 65.2009C187.931 64.7145 187.099 64.5225 186.191 64.6121C185.077 64.7145 184.245 65.2392 183.669 66.1864C183.093 67.1336 182.875 68.4391 183.016 70.1031C183.157 71.6774 183.618 72.855 184.424 73.6229C185.218 74.3909 186.165 74.7365 187.24 74.6341C187.816 74.5829 188.392 74.3909 188.968 74.0581C189.544 73.7253 189.979 73.2134 190.261 72.535C190.542 71.8438 190.696 71.2038 190.696 70.5895L190.683 70.5511Z" fill="white"/>
<path d="M200.038 69.5999C198.412 69.7919 197.606 69.8815 195.981 70.0607C195.904 70.3423 195.853 70.4831 195.776 70.7519C195.469 71.763 195.328 72.403 195.366 72.6974C195.405 73.0174 195.533 73.235 195.776 73.3758C196.019 73.5166 196.301 73.5678 196.646 73.5294C196.659 73.6702 196.672 73.747 196.685 73.8878C195.405 74.0285 194.765 74.0926 193.485 74.2333C193.472 74.0926 193.459 74.0157 193.446 73.875C193.92 73.747 194.253 73.555 194.457 73.2734C194.662 72.9918 194.88 72.4286 195.123 71.571C195.136 71.4942 195.238 71.1743 195.405 70.6367C196.339 67.5904 196.787 66.08 197.696 63.0338C197.811 63.021 197.875 63.0082 198.003 62.9954C199.795 66.1568 200.704 67.7312 202.534 70.8799C202.777 71.2895 202.905 71.507 203.161 71.9166C203.302 72.147 203.468 72.3262 203.673 72.4414C203.878 72.5566 204.172 72.6078 204.543 72.6078C204.556 72.7486 204.569 72.8254 204.582 72.9662C202.892 73.171 202.048 73.2734 200.358 73.4782C200.345 73.3374 200.332 73.2606 200.32 73.1198C200.844 73.0558 201.19 72.979 201.356 72.8894C201.536 72.787 201.6 72.6334 201.574 72.4158C201.561 72.3006 201.395 71.9806 201.088 71.4558C200.665 70.7263 200.46 70.3551 200.038 69.6127V69.5999ZM199.859 69.2671C198.899 67.5776 198.413 66.72 197.465 65.0305C196.915 66.8992 196.646 67.8336 196.083 69.7023C197.593 69.5359 198.348 69.4463 199.859 69.2799V69.2671Z" fill="white"/>
<path d="M212.801 61.2705C212.981 62.3073 213.07 62.8193 213.249 63.856C213.109 63.8816 213.032 63.8816 212.878 63.9072C212.725 63.344 212.494 62.8961 212.2 62.5633C211.893 62.2305 211.598 62.0257 211.317 61.9745C211.022 61.9233 210.562 61.9361 209.909 62.0257C209.077 62.1409 208.667 62.1921 207.848 62.2945C208.078 64.0608 208.194 64.944 208.424 66.7231C208.821 66.6719 209.026 66.6463 209.422 66.5951C210.062 66.5055 210.485 66.3391 210.664 66.1087C210.843 65.8655 210.894 65.4304 210.805 64.7904C210.958 64.7648 211.035 64.7648 211.201 64.7392C211.406 66.2111 211.496 66.9407 211.701 68.4126C211.547 68.4382 211.47 68.451 211.304 68.4638C211.24 68.0159 211.15 67.6703 211.022 67.4271C210.894 67.1839 210.741 67.0175 210.549 66.9535C210.357 66.8895 209.998 66.8895 209.474 66.9535C209.077 67.0047 208.872 67.0303 208.475 67.0815C208.616 68.1183 208.68 68.643 208.821 69.6798C208.923 70.499 209.026 71.0365 209.09 71.2797C209.166 71.5229 209.294 71.7021 209.486 71.8045C209.678 71.9069 210.011 71.9197 210.51 71.8557C210.651 71.8301 210.728 71.8301 210.869 71.8045C210.881 71.9453 210.894 72.0221 210.92 72.1629C208.923 72.4317 207.925 72.5597 205.928 72.8157C205.915 72.6749 205.902 72.5981 205.89 72.4573C206.018 72.4445 206.094 72.4317 206.222 72.4189C206.683 72.3549 206.99 72.2653 207.157 72.1245C207.323 71.9837 207.413 71.8045 207.426 71.5485C207.438 71.3053 207.4 70.7422 207.285 69.8718C207.016 67.8239 206.888 66.7999 206.632 64.752C206.53 63.92 206.427 63.3824 206.35 63.152C206.274 62.9216 206.146 62.7681 205.979 62.6913C205.813 62.6145 205.455 62.6145 204.917 62.6913C204.84 62.6913 204.802 62.7041 204.725 62.7169C204.712 62.5761 204.699 62.4993 204.687 62.3585C207.95 61.9489 209.576 61.7313 212.827 61.2833L212.801 61.2705Z" fill="white"/>
<path d="M224.131 66.9136C224.284 66.888 224.361 66.8752 224.502 66.8496C224.617 68.1552 224.668 68.8079 224.784 70.1263C221.238 70.6895 219.459 70.9583 215.901 71.4574L215.85 71.099C215.939 71.099 215.978 71.0862 216.067 71.0734C216.605 70.9967 216.938 70.8815 217.066 70.7151C217.206 70.5487 217.27 70.3695 217.283 70.1391C217.283 69.9215 217.232 69.3711 217.117 68.5007C216.822 66.4528 216.669 65.4289 216.374 63.3937C216.259 62.6002 216.157 62.0754 216.08 61.8322C216.003 61.589 215.875 61.4226 215.696 61.3458C215.517 61.269 215.184 61.269 214.672 61.3458C214.646 61.205 214.646 61.1282 214.621 60.9874C217.629 60.5522 219.139 60.3346 222.147 59.8611C222.403 60.885 222.544 61.397 222.8 62.4082C222.659 62.4338 222.582 62.4466 222.429 62.4594C222.147 61.7554 221.865 61.2818 221.571 61.013C221.289 60.7442 220.969 60.6034 220.624 60.565C220.278 60.5394 219.741 60.5778 218.998 60.693C218.41 60.7826 218.128 60.821 217.539 60.9106C217.795 62.6642 217.923 63.5345 218.192 65.2753C218.64 65.2113 218.87 65.1729 219.318 65.1089C219.83 65.0321 220.189 64.9297 220.381 64.8145C220.573 64.6993 220.688 64.5457 220.726 64.3537C220.765 64.1745 220.739 63.8161 220.662 63.3041C220.803 63.2785 220.88 63.2657 221.033 63.2529C221.251 64.6737 221.366 65.3905 221.584 66.8112C221.43 66.8368 221.366 66.8496 221.213 66.8624C221.123 66.2864 221.021 65.9024 220.88 65.7232C220.752 65.5441 220.585 65.4417 220.381 65.4033C220.176 65.3777 219.856 65.4033 219.395 65.4673C218.934 65.5313 218.691 65.5697 218.23 65.6464C218.371 66.632 218.448 67.1312 218.602 68.1168C218.781 69.3455 218.973 70.0623 219.165 70.2543C219.357 70.4463 219.817 70.4975 220.534 70.3823C220.854 70.3311 221.008 70.3055 221.328 70.2671C221.891 70.1775 222.339 70.0367 222.685 69.8447C223.03 69.6527 223.325 69.3071 223.593 68.8207C223.849 68.3343 224.016 67.6944 224.08 66.888L224.131 66.9136ZM219.28 59.4003C218.755 59.0803 218.486 58.9267 217.962 58.6067C217.322 58.2227 216.938 57.9795 216.784 57.8515C216.643 57.7235 216.554 57.5955 216.541 57.4676C216.502 57.186 216.63 57.0196 216.95 56.9684C217.117 56.9428 217.283 56.9812 217.437 57.0836C217.59 57.186 217.808 57.4036 218.115 57.7491C218.691 58.3891 218.973 58.7219 219.549 59.3619C219.446 59.3747 219.395 59.3875 219.293 59.4003H219.28Z" fill="white"/>
<path d="M128.316 8.93236C127.472 7.17883 125.961 6.71804 124.54 5.74528C125.782 5.61728 126.844 5.50209 127.907 5.39969C128.841 5.31009 129.392 5.68128 129.737 6.62845C130.031 7.44762 130.863 7.9852 131.631 8.16439C132.361 8.33078 132.822 8.80437 133.398 9.12435C133.769 9.32915 134.102 9.64913 134.358 9.22675C134.524 8.95796 134.524 8.38198 134.345 8.11319C133.654 7.08923 132.668 6.35966 131.593 5.75808C131.209 5.54049 130.838 5.2717 130.019 4.73412C131.132 4.79811 131.734 4.82371 132.335 4.86211C132.732 4.88771 133.206 5.1053 133.513 4.95171C135.382 4.00454 135.945 5.1053 136.777 6.59005C137.558 7.9724 139.26 8.48438 140.885 8.63797C140.975 8.63797 141.269 8.04919 141.18 7.934C140.348 6.69244 139.17 5.88607 137.775 5.41249C137.583 5.34849 137.404 5.2461 137.199 5.1437C137.826 4.93891 138.377 4.69572 138.953 4.58052C139.772 4.41413 140.809 4.77252 140.949 5.45089C141.269 6.96123 142.69 7.20442 143.535 8.11319C143.804 8.39478 143.983 8.56117 144.213 8.17719C144.393 7.8828 144.585 7.52441 144.559 7.21722C144.533 6.97403 144.175 6.74364 143.957 6.53885C143.471 6.09087 142.985 5.65568 142.293 5.04131C143.689 5.3101 144.879 5.88607 145.749 6.43645C146.376 6.82044 147.068 7.15323 147.772 7.31962C148.22 7.42202 148.783 7.23002 149.244 7.05083C149.41 6.98683 149.602 6.42365 149.512 6.33406C149.218 6.01407 148.847 5.65568 148.437 5.56609C146.389 5.1053 144.316 4.70852 142.178 4.28613C143.42 3.82535 144.597 3.40297 145.762 2.90378C145.98 2.81419 146.056 2.4046 146.197 2.13581C146.005 2.03342 145.826 1.87982 145.609 1.82862C143.855 1.43184 142.268 1.94382 140.898 3.00618C139.926 3.76135 138.825 3.92775 137.711 3.92775C136.406 3.92775 135.113 3.47976 133.807 4.01734C133.641 4.08134 133.385 3.90215 133.167 3.83815C133.372 3.73575 133.59 3.65896 133.782 3.54376C135.19 2.66059 137.007 2.5966 138.185 1.23985C138.338 1.06065 138.582 0.919859 138.633 0.727866C138.684 0.548672 138.53 0.139088 138.454 0.139088C137.852 0.113489 137.238 -0.257697 136.662 0.279883C135.958 0.932658 135.177 1.52144 134.447 2.13581C132.63 3.65896 130.505 4.29893 128.201 4.42693C128.073 4.42693 127.945 4.29893 127.715 4.17094C128.892 3.18537 130.057 2.25101 131.183 1.26545C131.35 1.12465 131.299 0.740665 131.35 0.459076C131.132 0.420677 130.889 0.292682 130.71 0.369479C129.2 0.919859 127.83 1.89262 126.972 3.13418C126.076 4.42693 124.976 4.93891 123.657 5.2973C122.953 5.48929 122.224 5.57889 121.123 5.78368C121.904 5.02851 122.467 4.55492 122.941 4.00454C123.376 3.49256 123.709 2.90378 124.054 2.31501C124.31 1.89262 124.067 1.50864 123.568 1.52144C123.273 1.52144 122.902 1.52144 122.71 1.68783C121.635 2.571 120.521 3.45416 120.445 5.04131C120.406 5.87327 120.073 6.28286 119.229 6.47485C118.154 6.73084 117.13 7.19163 116.093 7.60121C115.12 7.9724 114.16 8.35638 113.213 8.79156C113.008 8.88116 112.931 9.23955 112.791 9.48274C113.059 9.54674 113.456 9.75153 113.571 9.64913C114.672 8.61237 116.195 8.54837 117.45 7.8444C118.307 7.35802 118.921 7.52441 119.689 8.31798C120.662 9.32915 122.006 9.31635 123.184 9.77713C123.337 9.84113 123.619 9.52114 123.837 9.39314C123.734 9.21395 123.657 8.98356 123.504 8.88116C122.71 8.34358 121.891 7.8444 121.085 7.30682C120.957 7.21722 120.88 7.06363 120.777 6.93563C120.944 6.84604 121.11 6.71804 121.289 6.69244C122.045 6.61565 122.902 6.18046 123.299 7.33242C123.376 7.55001 123.555 7.8316 123.747 7.8828C125.206 8.25399 126.678 8.56117 128.329 8.94516L128.316 8.93236ZM130.915 6.15486C131.35 6.47485 131.849 6.80764 132.323 7.17883C132.566 7.35802 132.771 7.56281 133.001 7.7676C132.694 7.7676 132.335 7.8956 132.092 7.7676C131.58 7.48601 131.119 7.08923 130.646 6.71804C130.543 6.64125 130.492 6.47485 130.428 6.35966C130.569 6.30846 130.71 6.25726 130.915 6.16766V6.15486Z" fill="white"/>
</g>
<defs>
<clipPath id="clip0_1017_11241">
<rect width="262.313" height="86" fill="white"/>
</clipPath>
</defs>
</svg>
