<svg width="231" height="226" viewBox="0 0 231 226" fill="none" xmlns="http://www.w3.org/2000/svg">
<g id="Layer_1" clip-path="url(#clip0_903_3731)">
<g id="Group">
<g id="Group_2">
<path id="Vector" d="M14.5624 95.2423L12.1511 94.5424L13.971 88.2578L16.3823 88.9578L14.5624 95.2423Z" fill="#273A43"/>
<path id="Vector_2" d="M11.7101 60.291L18.1554 50.1262L20.9004 51.5109L16.0626 59.1346L20.961 62.2692L25.4045 55.2847L27.922 56.8977L23.4785 63.8822L28.7712 67.2756L33.609 59.6519L36.0051 61.5693L29.5598 71.7341L11.6949 60.3063L11.7101 60.291Z" fill="#273A43"/>
<path id="Vector_3" d="M22.447 44.4759L24.6308 41.9651L38.2039 53.8646L44.3004 46.8649L46.4388 49.2387L38.4011 58.4753L22.447 44.4911V44.4759Z" fill="#273A43"/>
<path id="Vector_4" d="M34.2773 31.773L36.7341 29.5361L51.02 45.2399L48.5632 47.4767L34.2773 31.773Z" fill="#273A43"/>
<path id="Vector_5" d="M53.9467 42.2412L42.1328 24.5897L44.4076 23.0528L56.4642 26.7657C58.2688 27.3592 60.1039 27.9374 62.1815 28.6678L62.2573 28.6222C61.1806 27.2222 60.3313 25.944 59.1788 24.2245L54.0528 16.5705L56.7826 14.7292L68.7785 32.6546L67.2619 33.6742L53.977 29.6721C52.1268 29.1091 50.2767 28.5157 48.1838 27.8157L48.108 27.8613C49.1696 29.2461 50.0492 30.4939 51.2169 32.2438L56.6765 40.4L53.9467 42.2412Z" fill="#273A43"/>
<path id="Vector_6" d="M69.5962 27.6655L71.0672 25.1851L71.5829 25.0938C73.4785 26.6003 75.0254 26.9046 76.7998 26.159C78.65 25.3829 79.4082 23.5721 78.7561 22.02C78.1192 20.4983 76.9514 19.844 73.0387 19.7679C68.5801 19.7223 66.5631 18.5202 65.4864 15.9029C64.2883 13.0269 65.6228 9.83137 69.2625 8.29447C71.9468 7.16843 74.4036 7.53363 76.4055 9.07053L74.9799 11.5204L74.4643 11.6117C73.1904 10.7139 71.9165 10.4096 70.4151 11.0335C68.6408 11.7791 68.0645 13.1943 68.6104 14.5181C69.1412 15.7964 70.0663 16.2224 74.0397 16.405C78.8926 16.6181 80.7428 17.8506 81.8499 20.4831C83.1844 23.6939 81.6527 27.3611 77.9827 28.9132C74.9951 30.161 72.326 29.8567 69.581 27.6502L69.5962 27.6655Z" fill="#273A43"/>
<path id="Vector_7" d="M94.7992 22.9008L91.9177 1.84072L97.4683 1.07988C102.261 0.425554 104.793 2.06897 105.278 5.61448C105.567 7.66875 104.611 9.55564 102.761 10.423V10.5143C105.339 10.7425 107.235 12.3555 107.614 15.0337C108.16 18.9901 105.976 21.3791 100.532 22.1247L94.7992 22.916V22.9008ZM96.4219 10.286L98.8028 9.95127C101.351 9.60129 102.458 8.38394 102.17 6.29924C101.912 4.36671 100.547 3.51456 97.6806 3.9102L95.5878 4.19932L96.4219 10.2708V10.286ZM97.6958 19.5683L99.9857 19.2487C103.413 18.777 104.626 17.514 104.323 15.2619C104.02 13.0099 102.443 12.0968 99.3336 12.5229L96.7858 12.8729L97.6958 19.5683Z" fill="#273A43"/>
<path id="Vector_8" d="M125.024 21.6383L123.432 16.5711L114.515 16.1146L112.422 20.9992L108.706 20.8014L118.245 0L121.506 0.167385L128.74 21.8209L125.024 21.6231V21.6383ZM115.652 13.3908L122.567 13.756L120.717 7.88231C120.308 6.51279 119.944 5.1585 119.64 3.83464H119.549C119.14 5.12806 118.609 6.42149 118.063 7.74536L115.652 13.3908Z" fill="#273A43"/>
<path id="Vector_9" d="M142.238 25.4249L138.629 14.7579L134.823 17.4361L133.367 23.1728L130.152 22.3511L135.369 1.74756L138.584 2.56927L137.628 6.35825C137.067 8.59512 136.4 10.9689 135.808 13.2058H135.839C137.598 11.8667 139.236 10.6037 141.025 9.29509L147.137 4.74527L151.019 5.73436L141.435 12.7037L146.166 26.414L142.254 25.4249H142.238Z" fill="#273A43"/>
<path id="Vector_10" d="M150.049 16.5721C152.915 10.6528 159.072 8.46155 164.577 11.1397C168.414 13.0114 170.446 16.0395 170.643 20.1481L167.716 20.5893L167.337 20.2698C167.049 17.3177 165.866 15.4156 163.227 14.1222C159.466 12.281 155.281 13.9548 153.264 18.1394C151.277 22.248 152.43 26.5543 156.13 28.3651C159.163 29.8412 162.681 29.4912 164.532 26.2196L164.577 26.113L159.663 23.7088L160.892 21.1676L168.535 24.8957L163.652 34.9692L160.922 33.6301L161.423 32.6106C161.771 31.8802 162.166 31.3324 162.575 30.9063L162.53 30.8607C159.891 32.4737 157.146 32.4432 154.401 31.1042C149.017 28.4717 147.213 22.4458 150.049 16.5873V16.5721Z" fill="#273A43"/>
<path id="Vector_11" d="M177.408 45.7099L179.031 40.6427L172.025 35.0886L167.505 37.858L164.594 35.5451L184.354 24.102L186.917 26.1259L180.335 48.0076L177.423 45.6947L177.408 45.7099ZM174.527 33.5517L179.956 37.858L181.837 31.9996C182.292 30.63 182.777 29.3366 183.292 28.0584L183.232 27.9975C182.14 28.8192 180.972 29.5801 179.759 30.3257L174.527 33.5365V33.5517ZM186.068 19.9174C187.129 18.5783 188.934 18.3653 190.162 19.3392C191.391 20.313 191.633 22.1543 190.572 23.4934C189.525 24.8172 187.706 25.015 186.462 24.0259C185.234 23.0521 185.021 21.2413 186.053 19.9174H186.068ZM187.038 20.6783C186.447 21.4391 186.523 22.4434 187.266 23.0369C188.009 23.6303 189.01 23.4629 189.601 22.7021C190.193 21.9412 190.132 20.9065 189.404 20.3283C188.676 19.75 187.645 19.9326 187.054 20.6783H187.038Z" fill="#273A43"/>
<path id="Vector_12" d="M191.844 60.6834L191.328 60.866L189.069 58.2791L191.874 48.0534L190.085 45.9992L183.442 51.8424L181.228 49.3164L197.152 35.3018L201.368 40.1103C204.37 43.534 204.446 46.76 201.277 49.5599C199.214 51.3859 196.818 51.6598 194.513 50.2903L191.859 60.6834H191.844ZM197.152 39.7755L192.208 44.1275L193.876 46.0296C195.802 48.236 197.364 48.6469 199.123 47.11C200.973 45.4818 200.731 43.8536 198.835 41.6776L197.167 39.7755H197.152Z" fill="#273A43"/>
<path id="Vector_13" d="M192.347 62.358L210.561 51.4932L213.579 56.5756C217.446 63.0884 216.248 68.5512 210.485 71.9902C204.692 75.4444 199.096 73.7401 195.365 67.4404L192.347 62.358ZM196.745 63.6057L197.898 65.5535C200.825 70.4837 204.252 71.6402 208.756 68.9621C213.079 66.3904 213.67 62.921 210.713 57.9147L209.56 55.9669L196.745 63.6057Z" fill="#273A43"/>
<path id="Vector_14" d="M210.834 83.3264L212.563 82.7178L214.504 88.3328L212.775 88.9414L210.818 83.3264H210.834Z" fill="#273A43"/>
</g>
<g id="Group_3">
<path id="Vector_15" d="M3.17431 138.302L2.37054 132.991C2.88617 131.941 4.38754 130.237 6.88984 127.878C7.69361 127.117 8.43672 126.341 9.16466 125.55C9.8926 124.759 10.3021 124.211 10.4537 123.937C10.5902 123.663 10.6205 123.252 10.5447 122.72L10.4234 121.928L6.05574 122.598C4.50887 122.841 3.49278 123.024 3.03782 123.176C2.56769 123.328 2.24922 123.572 2.05207 123.922C1.87008 124.272 1.83975 124.896 1.97624 125.793L2.11273 126.737L1.44545 126.843L0.0198975 117.394L0.687177 117.287L0.77817 117.926C0.899493 118.779 1.09664 119.342 1.36962 119.631C1.6426 119.92 1.9914 120.072 2.46153 120.102C2.93166 120.118 3.97808 120.011 5.61595 119.752L15.2763 118.276C16.8384 118.033 17.8545 117.835 18.2943 117.683C18.7341 117.531 19.0222 117.287 19.1435 116.953C19.2648 116.618 19.2648 115.963 19.1132 114.959L19.0677 114.624L19.735 114.518L20.3113 117.318C20.6904 119.189 20.9482 120.681 21.115 121.791C21.4032 123.678 21.4638 125.23 21.2818 126.463C21.115 127.696 20.6904 128.73 20.0079 129.582C19.3255 130.435 18.4307 130.937 17.3237 131.104C16.0346 131.302 14.8669 130.998 13.8053 130.176C12.7589 129.369 11.9703 128.046 11.4698 126.235C11.1968 127.117 9.96843 128.669 7.7846 130.876C6.01025 132.671 4.87284 134.056 4.38754 135C3.90225 135.943 3.72026 137.008 3.85675 138.18L3.18947 138.286L3.17431 138.302ZM11.0755 121.822C11.212 122.552 11.3485 123.298 11.5001 124.059C11.6518 124.835 11.8641 125.489 12.1219 126.037C12.3797 126.585 12.7134 127.011 13.0925 127.315C13.4716 127.619 13.9569 127.833 14.5332 127.954C15.1095 128.076 15.792 128.076 16.5806 127.954C17.9606 127.741 19.0222 127.224 19.7501 126.402C20.4781 125.58 20.6601 123.998 20.3113 121.67C20.2506 121.305 20.1748 120.894 20.0686 120.437L11.0755 121.807V121.822Z" fill="#273A43"/>
<path id="Vector_16" d="M15.7935 155.103L16.0361 155.773L10.0761 157.523L4.3739 142.002L5.01085 141.774L5.14734 142.154C5.48098 143.082 5.82978 143.645 6.17859 143.813C6.52739 143.98 6.90653 144.056 7.316 143.98C7.72546 143.919 8.71122 143.584 10.2733 143.021L19.4332 139.628C20.8587 139.095 21.7838 138.715 22.2085 138.472C22.6331 138.228 22.8757 137.924 22.9516 137.589C23.0274 137.239 22.8909 136.615 22.5724 135.717L23.2094 135.489L28.123 148.88L23.634 151.041L23.3914 150.386C24.5894 149.61 25.378 148.91 25.7723 148.271C26.1666 147.632 26.3183 147.008 26.2425 146.369C26.1666 145.73 25.8937 144.756 25.4084 143.447L24.4529 140.845L16.6124 143.737L17.3404 145.73C17.674 146.643 17.9925 147.252 18.2806 147.556C18.5688 147.86 18.8872 148.012 19.2512 148.012C19.6152 148.012 20.2521 147.845 21.162 147.495L21.4047 148.149L15.02 150.508L14.7774 149.854C15.8086 149.473 16.4759 149.123 16.7641 148.819C17.0522 148.515 17.1887 148.18 17.1735 147.799C17.1584 147.419 16.9915 146.841 16.7034 146.034L15.9451 143.98L11.5168 145.608C9.30267 146.43 8.0591 147.054 7.77096 147.48C7.48282 147.906 7.57381 148.743 8.02877 150.006L8.5444 151.406C8.90837 152.395 9.333 153.156 9.81829 153.704C10.3036 154.251 11.0467 154.662 12.0476 154.951C13.0485 155.24 14.2921 155.286 15.7935 155.119V155.103Z" fill="#273A43"/>
<path id="Vector_17" d="M12.715 162.316L18.2504 159.09L18.6143 159.729C15.4296 162.56 14.6106 165.314 16.1727 168.022C16.8703 169.24 17.7651 169.97 18.8418 170.244C19.9186 170.503 20.8891 170.396 21.7384 169.894C22.6028 169.392 23.1488 168.677 23.4066 167.749C23.6493 166.82 23.6341 165.39 23.4066 163.457C23.1943 161.723 23.1033 160.384 23.1488 159.41C23.1791 158.451 23.4521 157.553 23.9222 156.747C24.4075 155.94 25.0445 155.301 25.8482 154.829C27.0766 154.114 28.3505 153.947 29.6548 154.327C30.959 154.708 32.0054 155.545 32.7637 156.853C33.1883 157.584 33.4613 158.345 33.5978 159.121C33.7343 159.897 33.6281 160.855 33.2793 161.966C33.9769 162.088 34.5987 162.012 35.175 161.753L35.4935 162.316L30.9893 164.949L30.6708 164.386C31.7931 163.305 32.5059 162.118 32.7788 160.871C33.0518 159.623 32.885 158.436 32.2632 157.371C31.6718 156.336 30.959 155.758 30.1249 155.59C29.2908 155.438 28.5477 155.545 27.8804 155.94C27.0766 156.397 26.5913 157.097 26.379 158.025C26.1667 158.953 26.1667 160.384 26.379 162.347C26.5762 164.218 26.6672 165.603 26.6672 166.516C26.6672 167.429 26.4094 168.296 25.9392 169.118C25.4691 169.94 24.7563 170.624 23.8312 171.172C22.3602 172.024 20.874 172.237 19.3878 171.796C17.9015 171.355 16.6731 170.305 15.7177 168.646C14.6258 166.759 14.4287 164.751 15.1414 162.636C14.5803 162.59 13.8979 162.712 13.1093 162.986L12.7453 162.347L12.715 162.316Z" fill="#273A43"/>
<path id="Vector_18" d="M33.5486 168.449L33.1088 167.932L36.8092 164.888L49.3814 179.603L45.8175 182.814L45.408 182.327C46.2573 181.292 46.7729 180.44 46.9549 179.77C47.1369 179.085 47.1369 178.538 46.9549 178.112C46.7729 177.686 46.3179 177.046 45.6052 176.225L43.5275 173.79L32.8662 182.966C31.6833 183.985 30.925 184.685 30.6065 185.05C30.2881 185.431 30.1364 185.811 30.1667 186.207C30.1971 186.603 30.5004 187.15 31.0918 187.82L31.7288 188.566L31.2132 189.007L24.7527 181.444L25.2683 181.003L25.9356 181.779C26.4967 182.433 26.9517 182.798 27.3308 182.92C27.7099 183.027 28.1043 182.966 28.4986 182.737C28.908 182.509 29.7421 181.855 31.0008 180.775L41.6622 171.599L39.7361 169.347C38.902 168.373 38.2954 167.749 37.9163 167.505C37.5372 167.247 36.9912 167.171 36.2633 167.292C35.5353 167.414 34.6406 167.795 33.5486 168.464V168.449Z" fill="#273A43"/>
<path id="Vector_19" d="M49.4767 195.686L43.6229 190.893L42.4248 191.547C40.6808 192.491 39.6192 193.175 39.2704 193.601C38.8913 194.058 38.7699 194.545 38.8913 195.047C39.0126 195.549 39.3159 195.99 39.8164 196.401L39.3917 196.919L34.8118 193.16L35.2364 192.643C36.0098 193.099 36.7074 193.267 37.3444 193.16C37.9813 193.054 39.0278 192.597 40.4836 191.76C40.6201 191.684 41.1509 191.38 42.1063 190.878L55.3154 183.802L55.7552 184.167L50.9175 200.677L50.3108 202.884C50.1744 203.386 50.1592 203.842 50.2502 204.268C50.3412 204.694 50.6445 205.166 51.1449 205.653L50.7203 206.186L44.6541 201.225L45.0788 200.708C45.8219 201.316 46.3678 201.666 46.7166 201.773C47.0654 201.879 47.3839 201.773 47.6417 201.438C47.7782 201.271 48.0057 200.632 48.3393 199.521L49.4919 195.686H49.4767ZM49.7042 195.017L52.343 186.176L44.2598 190.543L49.7042 195.001V195.017Z" fill="#273A43"/>
<path id="Vector_20" d="M74.9987 196.722L80.8829 199.826L80.5644 200.42C79.7606 200.054 79.0782 199.933 78.5474 200.024C78.0014 200.115 77.592 200.328 77.3038 200.663C77.0157 200.998 76.6062 201.698 76.0299 202.778L72.9513 208.667C72.1627 210.174 71.5258 211.254 71.0253 211.923C70.5249 212.593 69.8121 213.126 68.887 213.536C67.9619 213.947 66.8851 214.099 65.6416 213.978C64.398 213.856 63.1241 213.445 61.8047 212.76C60.2427 211.939 59.0446 210.965 58.2408 209.854C57.4371 208.743 57.0124 207.648 56.9973 206.552C56.9821 205.456 57.3461 204.209 58.0892 202.778L59.0446 200.967L61.926 195.459C62.6692 194.044 63.0938 193.116 63.2303 192.674C63.3668 192.233 63.3364 191.853 63.1544 191.548C62.9725 191.259 62.4417 190.863 61.5469 190.392L61.1374 190.179L61.4559 189.585L69.4936 193.831L69.1751 194.424L68.8263 194.242C67.9619 193.785 67.3553 193.557 67.0065 193.557C66.6577 193.557 66.3392 193.724 66.051 194.074C65.7629 194.424 65.2169 195.322 64.4587 196.798L61.5469 202.367C60.5308 204.3 59.909 205.715 59.6664 206.613C59.4237 207.511 59.5451 208.484 60.0607 209.519C60.5612 210.554 61.5014 211.437 62.8815 212.167C63.9582 212.73 65.035 213.05 66.1269 213.11C67.2188 213.171 68.1439 213.004 68.887 212.639C69.6301 212.258 70.2215 211.771 70.6462 211.193C71.0708 210.6 71.6471 209.626 72.375 208.256L75.5294 202.23C76.0602 201.226 76.3635 200.496 76.4545 200.039C76.5455 199.583 76.4697 199.141 76.2271 198.7C75.9844 198.274 75.4688 197.817 74.6802 197.331L74.9987 196.737V196.722Z" fill="#273A43"/>
<path id="Vector_21" d="M96.2317 224.536L91.0603 223.151C90.3172 222.268 89.3617 220.199 88.194 216.958C87.8149 215.923 87.4206 214.919 86.9808 213.945C86.541 212.971 86.2225 212.362 86.0253 212.119C85.8282 211.875 85.4642 211.693 84.9486 211.541L84.1752 211.343L83.0378 215.634C82.6283 217.156 82.4008 218.16 82.3553 218.647C82.2946 219.134 82.4008 219.529 82.6435 219.849C82.8861 220.153 83.4472 220.427 84.3117 220.671L85.2367 220.914L85.0699 221.568L75.8645 219.103L76.0465 218.449L76.6683 218.616C77.4872 218.829 78.0938 218.89 78.4578 218.753C78.8369 218.632 79.1099 218.358 79.3222 217.947C79.5194 217.521 79.8378 216.516 80.2625 214.903L82.7799 205.439C83.1894 203.902 83.4169 202.897 83.4472 202.426C83.4776 201.954 83.3714 201.604 83.1287 201.345C82.8861 201.087 82.2643 200.843 81.2937 200.584L80.9601 200.493L81.1421 199.839L83.9325 200.432C85.7827 200.843 87.2537 201.178 88.3305 201.467C90.1655 201.954 91.6062 202.532 92.6678 203.171C93.7294 203.826 94.5028 204.632 95.0033 205.591C95.5037 206.565 95.6099 207.584 95.3218 208.665C94.9881 209.928 94.2298 210.886 93.0773 211.525C91.9095 212.164 90.4082 212.362 88.5428 212.104C89.2404 212.712 90.1655 214.462 91.3029 217.353C92.2432 219.712 93.0318 221.295 93.7142 222.131C94.3815 222.968 95.2763 223.547 96.4137 223.897L96.2469 224.551L96.2317 224.536ZM84.342 210.673C85.0548 210.841 85.7979 211.008 86.5561 211.175C87.3296 211.343 88.012 211.404 88.6186 211.388C89.2253 211.373 89.7409 211.236 90.1655 211.008C90.5901 210.78 90.9844 210.415 91.3181 209.943C91.6517 209.471 91.9247 208.832 92.137 208.056C92.501 206.702 92.4555 205.515 91.9854 204.526C91.5152 203.537 90.1655 202.73 87.8907 202.121C87.5419 202.03 87.1324 201.939 86.6775 201.863L84.3268 210.688L84.342 210.673Z" fill="#273A43"/>
<path id="Vector_22" d="M112.503 218.236L104.951 217.84L104.375 219.073C103.51 220.868 103.071 222.04 103.04 222.603C103.01 223.196 103.192 223.668 103.571 224.003C103.965 224.338 104.466 224.52 105.103 224.551L105.072 225.235L99.1578 224.916L99.1882 224.231C100.068 224.14 100.75 223.866 101.205 223.394C101.66 222.938 102.236 221.933 102.919 220.412C102.98 220.275 103.237 219.712 103.707 218.738L110.213 205.195L110.79 205.225L116.598 221.416L117.402 223.546C117.584 224.033 117.842 224.414 118.175 224.703C118.509 224.992 119.025 225.19 119.707 225.296L119.677 225.981L111.866 225.57L111.897 224.901C112.852 224.946 113.504 224.901 113.853 224.794C114.202 224.688 114.384 224.398 114.399 223.972C114.399 223.759 114.217 223.105 113.823 222.009L112.488 218.236H112.503ZM112.291 217.566L109.213 208.877L105.254 217.201L112.276 217.566H112.291Z" fill="#273A43"/>
<path id="Vector_23" d="M140.785 223.52L123.967 207.223L126.12 220.918C126.302 222.059 126.469 222.79 126.636 223.14C126.803 223.49 127.167 223.764 127.743 223.977C128.319 224.19 129.123 224.22 130.169 224.053L130.276 224.722L122.936 225.879L122.829 225.209C123.754 224.996 124.452 224.707 124.892 224.357C125.347 224.007 125.589 223.657 125.635 223.322C125.68 222.987 125.605 222.227 125.423 221.024L123.785 210.555C123.542 209.049 123.315 208.045 123.102 207.542C122.875 207.055 122.602 206.751 122.283 206.66C121.95 206.569 121.267 206.599 120.206 206.766L120.1 206.097L125.908 205.184L139.982 218.788L138.131 206.979C137.995 206.112 137.813 205.503 137.57 205.184C137.328 204.864 136.933 204.651 136.342 204.529C135.766 204.408 135.083 204.423 134.31 204.529L134.203 203.86L141.346 202.734L141.453 203.403C140.634 203.601 139.997 203.86 139.557 204.195C139.117 204.529 138.859 204.879 138.783 205.245C138.708 205.625 138.738 206.234 138.874 207.071L141.437 223.398L140.816 223.49L140.785 223.52Z" fill="#273A43"/>
<path id="Vector_24" d="M157.467 208.514L165.429 205.288L165.687 205.943C164.807 206.293 164.246 206.628 164.003 206.932C163.761 207.236 163.67 207.617 163.746 208.073C163.821 208.53 164.17 209.549 164.807 211.147L165.596 213.11C165.368 213.156 165.156 213.216 164.989 213.292C164.291 213.582 163.457 214.16 162.502 215.042C161.198 216.245 159.878 217.127 158.559 217.644C155.92 218.71 153.372 218.725 150.916 217.69C148.459 216.655 146.7 214.799 145.623 212.121C144.561 209.473 144.455 206.81 145.335 204.132C146.214 201.454 148.08 199.552 150.946 198.38C153.418 197.376 155.829 197.467 158.165 198.639C158.21 197.878 158.119 197.117 157.907 196.341L158.559 196.082L161.046 202.276L160.394 202.534C159.363 200.739 158.043 199.521 156.421 198.882C154.798 198.243 153.145 198.274 151.462 198.943C149.733 199.643 148.474 200.906 147.7 202.717C146.927 204.528 147.2 207.084 148.535 210.386C149.854 213.673 151.416 215.758 153.206 216.625C154.995 217.492 156.815 217.553 158.665 216.808C159.605 216.427 160.394 215.879 161.001 215.179C161.622 214.479 161.956 213.795 162.017 213.125C162.077 212.456 161.941 211.695 161.592 210.843C161.198 209.853 160.864 209.214 160.591 208.94C160.318 208.667 160.03 208.514 159.711 208.514C159.393 208.514 158.877 208.651 158.149 208.956L157.71 209.138L157.452 208.484L157.467 208.514Z" fill="#273A43"/>
<path id="Vector_25" d="M181.836 189.37L186.749 185.429L187.174 185.961C186.704 186.616 186.4 187.361 186.264 188.168C186.143 188.944 186.309 190.131 186.78 191.744C187.159 193.068 187.356 194.087 187.371 194.818C189.13 195.35 190.359 195.578 191.071 195.502C191.799 195.441 192.421 195.198 192.937 194.772C193.65 194.194 193.938 193.402 193.786 192.413L194.317 191.987C194.65 192.748 194.726 193.524 194.499 194.346C194.286 195.152 193.831 195.822 193.149 196.37C191.663 197.572 189.752 197.861 187.417 197.267C187.28 199.839 186.461 201.741 184.945 202.943C184.414 203.385 183.792 203.719 183.094 203.932C182.397 204.145 181.699 204.237 180.986 204.191C180.274 204.145 179.576 203.963 178.909 203.628C178.241 203.293 177.665 202.822 177.18 202.182C176.422 201.224 176.027 200.204 176.027 199.124C176.027 198.059 176.376 196.415 177.059 194.224C175.163 193.692 173.813 192.915 173.009 191.911C172.372 191.12 172.115 190.161 172.236 189.05C172.342 187.94 172.858 187.011 173.783 186.266C174.617 185.596 175.542 185.231 176.573 185.17C177.62 185.109 178.439 185.459 179.03 186.205C179.97 187.392 179.788 189.416 178.469 192.292C179.894 192.672 181.29 193.037 182.639 193.418C183.989 193.798 185.309 194.178 186.598 194.559C186.552 193.6 186.385 192.687 186.112 191.835C185.839 190.983 185.566 190.359 185.263 189.994C184.565 189.111 183.564 189.081 182.26 189.903L181.836 189.37ZM177.802 192.124C178.621 189.994 178.605 188.411 177.771 187.377C177.529 187.072 177.256 186.829 176.968 186.631C176.679 186.448 176.376 186.327 176.058 186.266C175.739 186.205 175.436 186.235 175.133 186.311C174.829 186.403 174.526 186.555 174.253 186.768C173.692 187.209 173.404 187.757 173.358 188.381C173.313 189.005 173.51 189.598 173.95 190.146C174.556 190.892 175.83 191.546 177.786 192.109L177.802 192.124ZM177.771 194.437C177.377 195.578 177.21 196.644 177.301 197.648C177.392 198.652 177.68 199.459 178.166 200.067C178.924 201.011 180.016 201.604 181.441 201.832C182.867 202.061 184.05 201.787 185.005 201.026C186.067 200.174 186.628 198.865 186.689 197.085C184.899 196.507 183.261 195.989 181.775 195.548C180.289 195.107 178.954 194.741 177.771 194.437Z" fill="#273A43"/>
<path id="Vector_26" d="M208.365 165.482L208.729 164.964L214.431 168.997L214.067 169.514C213.324 169.194 212.566 169.057 211.807 169.088C212.414 171.675 211.929 174.079 210.367 176.301C208.714 178.659 206.606 180.059 204.073 180.501C201.54 180.942 199.038 180.303 196.596 178.568C194.989 177.427 193.715 176.012 192.79 174.323C191.85 172.633 191.471 170.914 191.653 169.194C191.835 167.475 192.441 165.877 193.488 164.386C194.352 163.169 195.368 162.24 196.566 161.601C197.764 160.962 198.841 160.612 199.781 160.551C199.341 159.73 198.78 159.014 198.113 158.436L198.492 157.904L204.755 162.119L204.392 162.636C201.95 161.449 199.903 161.099 198.265 161.616C196.627 162.119 195.323 163.077 194.337 164.477C193.139 166.182 192.881 168.038 193.548 170.016C194.231 172.01 195.853 173.912 198.431 175.722C200.873 177.442 203.133 178.218 205.195 178.035C207.273 177.853 208.88 176.94 210.033 175.312C210.655 174.444 211.064 173.394 211.277 172.177C211.489 170.96 211.277 169.727 210.655 168.479C210.018 167.231 209.26 166.227 208.38 165.451L208.365 165.482Z" fill="#273A43"/>
<path id="Vector_27" d="M215.747 150.218L212.759 157.188L213.715 158.161C215.095 159.592 216.035 160.414 216.551 160.642C217.097 160.885 217.597 160.87 218.037 160.627C218.477 160.368 218.825 159.957 219.083 159.364L219.705 159.638L217.37 165.085L216.748 164.811C216.975 163.944 216.945 163.213 216.672 162.635C216.399 162.042 215.671 161.159 214.473 159.987C214.352 159.881 213.927 159.44 213.184 158.664L202.78 147.844L203.008 147.312L220.16 147.464H222.435C222.95 147.464 223.39 147.342 223.785 147.129C224.164 146.916 224.528 146.505 224.861 145.897L225.483 146.171L222.389 153.383L221.768 153.11C222.147 152.227 222.344 151.603 222.344 151.238C222.344 150.873 222.162 150.599 221.768 150.431C221.57 150.34 220.888 150.294 219.735 150.294L215.747 150.234V150.218ZM215.034 150.188L205.844 150.066L212.244 156.67L215.034 150.188Z" fill="#273A43"/>
<path id="Vector_28" d="M210.241 123.464L215.109 124.407L214.958 125.077C213.866 124.97 212.925 125.077 212.122 125.381C211.318 125.685 210.787 126.081 210.499 126.537C210.211 127.009 209.938 127.846 209.665 129.048L208.8 132.852L217.035 134.739L217.445 132.913C217.718 131.742 217.687 130.905 217.384 130.433C217.081 129.961 216.322 129.581 215.124 129.307L215.291 128.592L222.131 130.159L221.964 130.874C221.13 130.692 220.463 130.616 219.947 130.676C219.431 130.737 219.037 130.905 218.794 131.194C218.537 131.483 218.309 132.107 218.097 133.065L217.687 134.891L222.51 135.987C224.042 136.337 225.043 136.52 225.543 136.565C226.028 136.596 226.423 136.489 226.726 136.231C227.029 135.972 227.272 135.394 227.484 134.511L227.636 133.857L228.288 134.009L226.241 143.063L225.589 142.911L225.725 142.302C225.907 141.465 225.937 140.872 225.801 140.506C225.664 140.141 225.391 139.852 224.967 139.67C224.542 139.472 223.526 139.198 221.903 138.833L212.379 136.657C210.833 136.307 209.832 136.124 209.362 136.109C208.891 136.109 208.543 136.215 208.3 136.474C208.057 136.733 207.83 137.341 207.602 138.33L207.526 138.68L206.874 138.528L210.287 123.494L210.241 123.464Z" fill="#273A43"/>
<path id="Vector_29" d="M209.028 113.713L207.072 115.858C206.132 116.893 205.51 117.517 205.237 117.745C204.964 117.973 204.691 118.065 204.433 118.065C203.887 118.034 203.629 117.73 203.66 117.121C203.675 116.802 203.811 116.513 204.054 116.269C204.297 116.026 204.797 115.691 205.525 115.265L209.043 113.226L209.013 113.713H209.028ZM224.785 107.687L224.815 106.987L230.988 107.717L230.169 124.243L229.486 124.212V123.801C229.562 122.812 229.456 122.158 229.213 121.854C228.956 121.549 228.637 121.351 228.243 121.245C227.849 121.154 226.802 121.062 225.149 120.971L215.398 120.484C213.881 120.408 212.88 120.408 212.395 120.469C211.91 120.53 211.561 120.697 211.364 120.986C211.167 121.275 211.03 121.899 210.985 122.858L210.317 122.828L211.015 108.569L215.989 108.341L215.959 109.041C214.548 109.285 213.548 109.619 212.941 110.045C212.334 110.471 211.94 110.989 211.758 111.613C211.576 112.237 211.455 113.241 211.379 114.626L211.242 117.395L219.583 117.806L219.69 115.691C219.735 114.717 219.689 114.032 219.538 113.637C219.386 113.241 219.159 112.967 218.825 112.83C218.491 112.693 217.839 112.602 216.869 112.541L216.899 111.841L223.708 112.176L223.678 112.861C222.571 112.8 221.828 112.861 221.449 113.028C221.07 113.195 220.812 113.454 220.675 113.804C220.539 114.154 220.463 114.763 220.417 115.615L220.311 117.806L225.013 118.034C227.363 118.156 228.758 118.065 229.198 117.791C229.623 117.502 229.881 116.695 229.941 115.371L230.017 113.88C230.063 112.83 229.972 111.963 229.744 111.278C229.502 110.593 228.986 109.908 228.182 109.254C227.378 108.6 226.256 108.052 224.8 107.626L224.785 107.687Z" fill="#273A43"/>
</g>
</g>
<path id="Vector_30" d="M126.872 122.082C126.144 125.931 127.6 129.112 128.343 132.794C128.359 132.901 128.237 132.962 128.161 132.901C125.765 130.953 123.688 129.264 121.625 127.575C119.745 126.023 119.426 124.334 120.518 121.96C121.458 119.921 120.958 117.41 119.866 115.675C118.85 114.047 118.85 112.328 118.41 110.684C118.122 109.619 118.076 108.447 116.833 108.736C115.847 108.965 114.952 110.106 114.786 111.11C114.27 114.154 114.725 117.167 115.559 120.119C115.877 121.23 116.727 124.592 116.272 124.182C114.346 122.021 113.587 121.564 112.571 120.393C111.904 119.617 111.222 118.673 110.6 118.08C108.173 115.736 106.445 113.362 107.627 109.102C108.735 105.13 105.686 97.9021 103.866 97.8413C103.654 97.8413 102.456 97.4304 102.031 98.5869C101.288 102.391 103.26 105.632 103.654 109.436C103.684 109.741 103.184 110.471 102.623 110.319C101.091 109.543 101.258 109.634 99.9992 108.813C98.1945 107.641 96.9661 105.069 97.9519 103.578C100.136 100.23 99.5291 96.8217 98.0884 93.9914C97.6789 93.2001 97.4363 92.8349 96.9813 92.6371C95.8136 92.135 94.8885 93.0328 94.6155 93.7784C94.4183 94.311 94.4638 95.3305 94.4942 96.137C94.5548 97.8261 94.6762 99.5303 94.7975 101.904C94.8733 103.335 91.6279 95.6196 91.0365 93.0175C90.6118 91.1611 89.9445 89.2894 88.9436 87.6917C88.3067 86.6721 87.0024 85.8656 85.774 85.5004C84.849 85.2265 84.1968 85.6526 83.9694 86.3221C83.6054 87.4025 84.0149 88.4069 84.5153 89.7003C86.4413 94.661 89.7929 99.0282 93.3871 103.182C94.7368 104.734 94.2515 106.058 93.6904 105.374C92.2649 103.624 87.9275 100.55 84.849 100.017C84.4698 99.9564 82.6045 99.4847 82.3618 100.078C82.2253 100.611 82.5741 101.235 82.8623 101.706C85.3342 105.647 89.1559 107.595 93.6146 108.189C96.769 108.6 99.0741 110.304 101.106 112.358C103.472 114.747 106.915 118.475 108.507 119.693C108.871 119.967 109.69 120.986 109.25 120.819C108.689 120.621 108.158 120.377 107.582 120.24C103.411 119.267 99.9537 116.086 95.3586 116.391C94.2364 116.467 94.0544 116.254 93.5994 116.512C93.1899 116.756 92.6895 117.151 92.8563 117.927C93.1293 119.13 94.3577 120.864 96.405 120.956C98.8922 121.062 101.364 121.397 103.836 121.625C109.933 122.158 114.983 124.882 119.411 128.868C119.654 129.081 120.533 130.344 119.82 130.223C115.877 129.857 112.041 129.431 108.189 129.188C107.627 129.157 106.384 129.705 106.414 130.344C106.414 130.862 106.96 131.47 107.4 131.683C111.161 133.433 115.453 134.164 119.275 133.464C123.278 132.733 126.205 133.829 129.269 135.564C130.831 136.446 132.256 137.572 134.47 139.109C134.561 139.17 134.516 139.322 134.41 139.307C131.786 139.246 129.996 139.094 128.222 139.246C126.508 139.398 124.795 139.855 123.111 140.281C121.898 140.585 121.61 141.727 122.535 142.609C123.081 143.126 123.506 143.476 124.416 143.872C127.691 145.333 131.634 144.648 134.652 141.894C136.229 140.448 137.594 140.311 139.505 141.498C141.917 142.99 144.646 144.009 147.255 145.181C149.696 146.276 152.153 147.357 154.671 148.27C155.201 148.468 156.809 148.878 157.052 148.27C157.37 147.463 156.172 146.992 156.096 146.976C154.261 146.596 150.94 144.983 144.843 142.396C142.963 141.59 141.719 140.524 141.977 137.314C142.098 135.868 139.566 131.242 138.277 128.26C138.11 127.879 137.291 127.164 136.366 127.773C135.82 128.168 135.941 128.853 136.032 129.325C136.502 131.775 137.079 134.194 137.579 136.629C137.655 137.009 137.761 137.435 137.61 137.755C137.215 138.151 136.442 137.648 136.078 137.359C134.576 136.127 130.178 134.286 132.559 132.064C132.817 131.836 133.196 130.557 133.181 130.268C133.09 127.803 130.906 124.866 129.102 121.732C128.556 120.788 127.1 121.016 126.888 122.082H126.872ZM154.655 148.27C155.186 148.468 156.794 148.878 157.036 148.27C157.234 147.555 156.142 147.007 156.081 146.976" fill="#273A43"/>
</g>
<defs>
<clipPath id="clip0_903_3731">
<rect width="231" height="226" fill="white"/>
</clipPath>
</defs>
</svg>
