<svg width="95" height="86" viewBox="0 0 95 86" fill="none" xmlns="http://www.w3.org/2000/svg">
<g id="Layer_1" clip-path="url(#clip0_933_4201)">
<g id="Group">
<g id="Group_2">
<path id="Vector" d="M5.9322 35.9537L4.94995 35.6894L5.69127 33.317L6.67352 33.5813L5.9322 35.9537Z" fill="#273A43"/>
<path id="Vector_2" d="M4.77034 22.7597L7.39584 18.9225L8.514 19.4452L6.54332 22.3231L8.53871 23.5064L10.3488 20.8698L11.3743 21.4787L9.5642 24.1153L11.7202 25.3963L13.6909 22.5184L14.6669 23.2422L12.0414 27.0794L4.76416 22.7654L4.77034 22.7597Z" fill="#273A43"/>
<path id="Vector_3" d="M9.1438 16.7895L10.0334 15.8417L15.5624 20.3337L18.0458 17.6913L18.9168 18.5875L15.6427 22.0743L9.1438 16.7952V16.7895Z" fill="#273A43"/>
<path id="Vector_4" d="M13.9629 11.9943L14.9637 11.1499L20.783 17.078L19.7822 17.9224L13.9629 11.9943Z" fill="#273A43"/>
<path id="Vector_5" d="M21.9752 15.9459L17.1628 9.28249L18.0895 8.70232L23.0007 10.1039C23.7359 10.328 24.4834 10.5462 25.3297 10.822L25.3606 10.8047C24.922 10.2763 24.576 9.79374 24.1065 9.14463L22.0185 6.25524L23.1305 5.56018L28.017 12.327L27.3992 12.7118L21.9876 11.2011C21.2339 10.9886 20.4802 10.7645 19.6277 10.5003L19.5968 10.5175C20.0293 11.0403 20.3876 11.5113 20.8633 12.1719L23.0872 15.2508L21.9752 15.9459Z" fill="#273A43"/>
<path id="Vector_6" d="M28.3502 10.4436L28.9495 9.50726L29.1595 9.4728C29.9317 10.0415 30.5618 10.1564 31.2846 9.8749C32.0383 9.58194 32.3472 8.89837 32.0816 8.31245C31.8221 7.73802 31.3464 7.49101 29.7526 7.46229C27.9363 7.44506 27.1147 6.99125 26.6761 6.00323C26.1881 4.91756 26.7317 3.71125 28.2143 3.13108C29.3078 2.706 30.3086 2.84386 31.124 3.42404L30.5433 4.34887L30.3333 4.38334C29.8144 4.04442 29.2954 3.92954 28.6838 4.16505C27.9611 4.44652 27.7263 4.98075 27.9487 5.4805C28.1649 5.96302 28.5418 6.12386 30.1603 6.1928C32.1372 6.27322 32.8908 6.73851 33.3418 7.73227C33.8854 8.94432 33.2615 10.3287 31.7665 10.9146C30.5495 11.3857 29.4622 11.2708 28.3441 10.4378L28.3502 10.4436Z" fill="#273A43"/>
<path id="Vector_7" d="M38.6164 8.64491L37.4426 0.694779L39.7036 0.407564C41.6558 0.160558 42.6875 0.780944 42.8851 2.11937C43.0025 2.89485 42.6133 3.60715 41.8597 3.93457V3.96904C42.9099 4.0552 43.6821 4.6641 43.8365 5.6751C44.0589 7.16862 43.1693 8.07048 40.9515 8.35195L38.6164 8.65065V8.64491ZM39.2774 3.88287L40.2473 3.7565C41.2851 3.62438 41.7361 3.16483 41.6187 2.37786C41.5137 1.64833 40.9577 1.32665 39.7901 1.47601L38.9376 1.58515L39.2774 3.87713V3.88287ZM39.7963 7.3869L40.7291 7.26627C42.1253 7.0882 42.6195 6.61142 42.4959 5.76126C42.3724 4.9111 41.7299 4.56644 40.4635 4.72729L39.4257 4.85941L39.7963 7.3869Z" fill="#273A43"/>
<path id="Vector_8" d="M50.9287 8.16841L50.28 6.25556L46.6475 6.08323L45.795 7.92715L44.2815 7.85247L48.1672 0L49.4954 0.0631874L52.4422 8.23734L50.9287 8.16267V8.16841ZM47.1109 5.05499L49.9279 5.19286L49.1742 2.97555C49.0074 2.45857 48.8591 1.94732 48.7356 1.44757H48.6985C48.5317 1.93583 48.3155 2.4241 48.0931 2.92385L47.1109 5.05499Z" fill="#273A43"/>
<path id="Vector_9" d="M57.9409 9.59782L56.4706 5.57105L54.9201 6.58205L54.327 8.74766L53.0173 8.43747L55.1424 0.659668L56.4521 0.969861L56.0629 2.40019C55.8343 3.24461 55.5625 4.14072 55.3216 4.98514H55.334C56.0506 4.47964 56.7177 4.00286 57.4467 3.50885L59.9363 1.7913L61.5178 2.16468L57.6135 4.79557L59.5409 9.9712L57.9471 9.59782H57.9409Z" fill="#273A43"/>
<path id="Vector_10" d="M61.1226 6.25599C62.2902 4.02145 64.7983 3.19427 67.0408 4.20527C68.6037 4.91182 69.4315 6.05494 69.5118 7.6059L68.3196 7.77249L68.1651 7.65185C68.0477 6.53746 67.5659 5.81942 66.491 5.33115C64.9589 4.63609 63.2539 5.26797 62.4322 6.84765C61.623 8.39862 62.0925 10.0243 63.5998 10.7078C64.8354 11.265 66.2686 11.1329 67.0222 9.89788L67.0408 9.85767L65.0392 8.95007L65.5396 7.99077L68.6531 9.39813L66.6639 13.2009L65.552 12.6954L65.7558 12.3105C65.8979 12.0348 66.0585 11.828 66.2253 11.6671L66.2068 11.6499C65.1319 12.2588 64.0137 12.2473 62.8956 11.7418C60.7025 10.748 59.9674 8.47329 61.1226 6.26173V6.25599Z" fill="#273A43"/>
<path id="Vector_11" d="M72.2675 17.2554L72.9285 15.3425L70.0744 13.2458L68.2335 14.2913L67.0474 13.4182L75.0968 9.09845L76.1409 9.86244L73.4598 18.1228L72.2737 17.2496L72.2675 17.2554ZM71.0937 12.6657L73.3053 14.2913L74.0714 12.0797C74.2567 11.5628 74.4544 11.0745 74.6644 10.592L74.6397 10.569C74.1949 10.8792 73.7192 11.1664 73.225 11.4479L71.0937 12.6599V12.6657ZM75.7949 7.51877C76.2274 7.01327 76.9625 6.93285 77.4629 7.30048C77.9633 7.66812 78.0621 8.36318 77.6297 8.86868C77.2034 9.36843 76.4621 9.44311 75.9555 9.06973C75.4552 8.70209 75.3687 8.01852 75.7887 7.51877H75.7949ZM76.1903 7.80598C75.9494 8.0932 75.9803 8.47232 76.283 8.69635C76.5857 8.92038 76.9934 8.85719 77.2343 8.56997C77.4752 8.28276 77.4505 7.89215 77.154 7.67386C76.8575 7.45558 76.4374 7.52451 76.1965 7.80598H76.1903Z" fill="#273A43"/>
<path id="Vector_12" d="M78.1478 22.9077L77.9378 22.9766L77.0173 22.0001L78.1602 18.1399L77.4312 17.3644L74.7254 19.5702L73.8235 18.6167L80.31 13.3262L82.0274 15.1414C83.2506 16.4338 83.2815 17.6516 81.9903 18.7086C81.1502 19.3979 80.1741 19.5013 79.2351 18.9843L78.154 22.9077H78.1478ZM80.31 15.015L78.2961 16.6579L78.9756 17.3759C79.7602 18.2088 80.3965 18.3639 81.1131 17.7838C81.8668 17.1691 81.768 16.5545 80.9957 15.733L80.3162 15.015H80.31Z" fill="#273A43"/>
<path id="Vector_13" d="M78.3528 23.54L85.7721 19.4386L87.0015 21.3572C88.5768 23.8158 88.0888 25.878 85.7413 27.1762C83.3814 28.4801 81.1018 27.8368 79.5821 25.4586L78.3528 23.54ZM80.1443 24.0111L80.6138 24.7463C81.8061 26.6075 83.2022 27.0441 85.037 26.0331C86.7976 25.0623 87.0386 23.7526 85.8339 21.8627L85.3644 21.1274L80.1443 24.0111Z" fill="#273A43"/>
<path id="Vector_14" d="M85.8831 31.4555L86.5874 31.2257L87.3781 33.3454L86.6739 33.5751L85.877 31.4555H85.8831Z" fill="#273A43"/>
</g>
<g id="Group_3">
<path id="Vector_15" d="M1.29325 52.2087L0.965837 50.2039C1.17588 49.8076 1.78747 49.1642 2.80678 48.2739C3.13419 47.9866 3.4369 47.6937 3.73343 47.395C4.02995 47.0963 4.19675 46.8895 4.25853 46.7861C4.31413 46.6827 4.32648 46.5276 4.29559 46.3265L4.24617 46.0278L2.46701 46.2806C1.83689 46.3725 1.42298 46.4414 1.23765 46.4989C1.04615 46.5563 0.916416 46.6482 0.836106 46.7803C0.761975 46.9125 0.749619 47.148 0.805218 47.4869L0.860817 47.843L0.589 47.8832L0.00830078 44.316L0.280118 44.2758L0.317183 44.5171C0.366605 44.8388 0.446914 45.0513 0.558112 45.1604C0.66931 45.2696 0.811396 45.327 1.0029 45.3385C1.19441 45.3443 1.62067 45.304 2.28786 45.2064L6.22302 44.6492C6.85932 44.5573 7.27322 44.4826 7.45237 44.4252C7.63153 44.3677 7.7489 44.2758 7.79832 44.1494C7.84774 44.0231 7.84774 43.7761 7.78597 43.3969L7.76743 43.2706L8.03925 43.2303L8.274 44.2873C8.42844 44.9938 8.53346 45.5568 8.60142 45.9761C8.71879 46.6884 8.7435 47.2743 8.66937 47.7396C8.60142 48.2049 8.42844 48.5955 8.15045 48.9172C7.87245 49.2389 7.50797 49.4285 7.057 49.4916C6.5319 49.5663 6.05622 49.4514 5.62379 49.1412C5.19753 48.8368 4.87629 48.337 4.67243 47.6535C4.56123 47.9866 4.06084 48.5726 3.17126 49.4055C2.44847 50.0833 1.98515 50.606 1.78747 50.9622C1.58978 51.3183 1.51565 51.7204 1.57125 52.1627L1.29943 52.203L1.29325 52.2087ZM4.51181 45.9876C4.56741 46.2633 4.62301 46.5448 4.68478 46.832C4.74656 47.125 4.83305 47.372 4.93807 47.5788C5.04309 47.7856 5.179 47.9464 5.33344 48.0613C5.48788 48.1762 5.68556 48.2566 5.92032 48.3026C6.15507 48.3485 6.43306 48.3485 6.7543 48.3026C7.31647 48.2221 7.7489 48.0268 8.04543 47.7167C8.34196 47.4065 8.41609 46.8091 8.274 45.9302C8.24929 45.7923 8.2184 45.6372 8.17516 45.4649L4.51181 45.9819V45.9876Z" fill="#273A43"/>
<path id="Vector_16" d="M6.43351 58.5513L6.53235 58.804L4.10454 59.4646L1.78174 53.6054L2.0412 53.5192L2.0968 53.6629C2.23271 54.0133 2.37479 54.2258 2.51688 54.289C2.65897 54.3522 2.81341 54.3809 2.9802 54.3522C3.147 54.3292 3.54855 54.2028 4.18485 53.9903L7.91615 52.7093C8.49685 52.5083 8.87369 52.3646 9.04666 52.2727C9.21964 52.1808 9.31848 52.0659 9.34937 51.9396C9.38025 51.8074 9.32466 51.5719 9.19492 51.233L9.45439 51.1469L11.4559 56.2018L9.62736 57.0175L9.52852 56.7705C10.0166 56.4776 10.3378 56.2133 10.4984 55.9721C10.659 55.7308 10.7208 55.4953 10.6899 55.254C10.659 55.0128 10.5478 54.6451 10.3501 54.1511L9.96095 53.1688L6.76711 54.2603L7.06363 55.0128C7.19954 55.3574 7.32927 55.5872 7.44665 55.7021C7.56402 55.817 7.69375 55.8744 7.84202 55.8744C7.99028 55.8744 8.24974 55.8112 8.6204 55.6791L8.71924 55.9261L6.11845 56.8165L6.01961 56.5695C6.43969 56.4259 6.71151 56.2938 6.82888 56.1789C6.94626 56.064 7.00186 55.9376 6.99568 55.794C6.9895 55.6504 6.92155 55.4321 6.80417 55.1277L6.49529 54.3522L4.69141 54.9668C3.78948 55.277 3.28291 55.5125 3.16553 55.6734C3.04816 55.8342 3.08522 56.1501 3.27055 56.6269L3.48059 57.1554C3.62886 57.5288 3.80183 57.816 3.99952 58.0228C4.1972 58.2296 4.49991 58.3847 4.90763 58.4938C5.31536 58.603 5.82192 58.6202 6.43351 58.557V58.5513Z" fill="#273A43"/>
<path id="Vector_17" d="M5.17944 61.2742L7.43429 60.0564L7.58255 60.2976C6.28524 61.3661 5.95165 62.4058 6.58795 63.4283C6.87212 63.8878 7.2366 64.1635 7.67522 64.2669C8.11383 64.3646 8.5092 64.3244 8.85515 64.1348C9.20727 63.9453 9.42967 63.6753 9.53469 63.3249C9.63353 62.9745 9.62735 62.4345 9.53469 61.705C9.4482 61.0501 9.41114 60.5446 9.42967 60.177C9.44202 59.8151 9.55322 59.4762 9.74473 59.1717C9.94242 58.8673 10.2019 58.626 10.5293 58.448C11.0297 58.178 11.5486 58.1148 12.0799 58.2584C12.6112 58.402 13.0374 58.7179 13.3463 59.2119C13.5193 59.4877 13.6305 59.7749 13.6861 60.0678C13.7417 60.3608 13.6984 60.7227 13.5563 61.142C13.8405 61.188 14.0938 61.1593 14.3285 61.0616L14.4583 61.2742L12.6235 62.2679L12.4938 62.0554C12.9509 61.6475 13.2413 61.1995 13.3525 60.7284C13.4637 60.2574 13.3957 59.8094 13.1424 59.4073C12.9015 59.0166 12.6112 58.7984 12.2714 58.7352C11.9316 58.6777 11.6289 58.7179 11.3571 58.8673C11.0297 59.0396 10.832 59.3039 10.7455 59.6543C10.659 60.0047 10.659 60.5446 10.7455 61.2856C10.8258 61.9922 10.8629 62.5149 10.8629 62.8596C10.8629 63.2042 10.7579 63.5317 10.5664 63.8419C10.3749 64.1521 10.0845 64.4105 9.70766 64.6173C9.10843 64.939 8.50302 65.0194 7.89761 64.8529C7.2922 64.6863 6.79181 64.2899 6.40262 63.6638C5.95783 62.9515 5.87752 62.1932 6.16787 61.3948C5.93929 61.3775 5.6613 61.4235 5.34006 61.5269L5.1918 61.2856L5.17944 61.2742Z" fill="#273A43"/>
<path id="Vector_18" d="M13.666 63.5892L13.4869 63.3939L14.9942 62.245L20.1155 67.7997L18.6638 69.0118L18.497 68.828C18.8429 68.4374 19.053 68.1157 19.1271 67.8629C19.2012 67.6044 19.2012 67.3976 19.1271 67.2368C19.053 67.076 18.8676 66.8347 18.5773 66.5245L17.7309 65.6054L13.3881 69.0692C12.9062 69.4541 12.5973 69.7183 12.4676 69.8562C12.3379 69.9998 12.2761 70.1434 12.2884 70.2928C12.3008 70.4421 12.4243 70.6489 12.6653 70.9017L12.9247 71.1831L12.7147 71.3497L10.083 68.4948L10.293 68.3282L10.5649 68.6212C10.7934 68.8682 10.9788 69.006 11.1332 69.052C11.2877 69.0922 11.4483 69.0692 11.6089 68.9831C11.7757 68.8969 12.1155 68.6499 12.6282 68.2421L16.9711 64.7782L16.1865 63.9281C15.8468 63.5604 15.5997 63.3249 15.4452 63.233C15.2908 63.1354 15.0684 63.1066 14.7718 63.1526C14.4753 63.1986 14.1108 63.3422 13.666 63.5949V63.5892Z" fill="#273A43"/>
<path id="Vector_19" d="M20.1545 73.8712L17.7699 72.0617L17.2818 72.3087C16.5714 72.6649 16.139 72.9234 15.9969 73.0842C15.8425 73.2566 15.793 73.4404 15.8425 73.6299C15.8919 73.8195 16.0154 73.9861 16.2193 74.1412L16.0463 74.3365L14.1807 72.9176L14.3536 72.7223C14.6687 72.8947 14.9529 72.9579 15.2123 72.9176C15.4718 72.8774 15.8981 72.7051 16.4911 72.3892C16.5467 72.3604 16.7629 72.2456 17.1521 72.056L22.5329 69.3849L22.712 69.5227L20.7413 75.7553L20.4942 76.5883C20.4386 76.7778 20.4325 76.9501 20.4695 77.111C20.5066 77.2718 20.6301 77.4499 20.834 77.6337L20.661 77.8348L18.19 75.9621L18.3629 75.7668C18.6656 75.9966 18.888 76.1287 19.0301 76.1689C19.1722 76.2091 19.3019 76.1689 19.407 76.0425C19.4626 75.9794 19.5552 75.7381 19.6911 75.3188L20.1606 73.8712H20.1545ZM20.2471 73.6184L21.322 70.281L18.0293 71.9296L20.2471 73.6127V73.6184Z" fill="#273A43"/>
<path id="Vector_20" d="M30.5506 74.2621L32.9475 75.434L32.8178 75.658C32.4904 75.5201 32.2124 75.4742 31.9962 75.5087C31.7738 75.5431 31.607 75.6235 31.4896 75.7499C31.3722 75.8763 31.2054 76.1405 30.9707 76.5484L29.7166 78.7714C29.3954 79.3401 29.1359 79.748 28.932 80.0007C28.7282 80.2535 28.4378 80.4545 28.061 80.6096C27.6842 80.7647 27.2455 80.8221 26.739 80.7762C26.2324 80.7302 25.7135 80.5751 25.176 80.3166C24.5397 80.0065 24.0517 79.6388 23.7243 79.2195C23.3969 78.8001 23.2239 78.3866 23.2177 77.973C23.2115 77.5594 23.3598 77.0883 23.6625 76.5484L24.0517 75.8648L25.2255 73.7854C25.5282 73.2511 25.7011 72.9007 25.7567 72.7342C25.8123 72.5676 25.8 72.424 25.7258 72.3091C25.6517 72.1999 25.4355 72.0506 25.071 71.8725L24.9042 71.7921L25.0339 71.5681L28.3081 73.1707L28.1784 73.3947L28.0363 73.3258C27.6842 73.1535 27.4371 73.0673 27.295 73.0673C27.1529 73.0673 27.0231 73.1305 26.9058 73.2626C26.7884 73.3947 26.566 73.7337 26.2571 74.2909L25.071 76.3933C24.6571 77.1228 24.4038 77.657 24.305 77.9959C24.2061 78.3349 24.2556 78.7025 24.4656 79.0931C24.6695 79.4837 25.0525 79.8169 25.6146 80.0926C26.0533 80.3052 26.4919 80.4258 26.9367 80.4488C27.3815 80.4717 27.7583 80.4086 28.061 80.2707C28.3637 80.1271 28.6046 79.9433 28.7776 79.725C28.9506 79.5009 29.1853 79.1333 29.4819 78.6163L30.7668 76.3416C30.983 75.9625 31.1066 75.6867 31.1436 75.5144C31.1807 75.3421 31.1498 75.1755 31.051 75.0089C30.9521 74.8481 30.7421 74.6757 30.4209 74.4919L30.5506 74.2679V74.2621Z" fill="#273A43"/>
<path id="Vector_21" d="M39.2002 84.7619L37.0936 84.2391C36.7909 83.906 36.4017 83.1247 35.926 81.9012C35.7716 81.5106 35.6109 81.1315 35.4318 80.7638C35.2526 80.3962 35.1229 80.1664 35.0426 80.0745C34.9623 79.9826 34.814 79.9137 34.604 79.8562L34.2889 79.7815L33.8256 81.4014C33.6588 81.9759 33.5661 82.355 33.5476 82.5388C33.5229 82.7226 33.5661 82.872 33.665 82.9926C33.7638 83.1075 33.9924 83.2109 34.3445 83.3028L34.7214 83.3947L34.6534 83.6417L30.9036 82.7111L30.9777 82.4641L31.231 82.5273C31.5646 82.6077 31.8117 82.6307 31.9599 82.579C32.1144 82.5331 32.2256 82.4297 32.3121 82.2746C32.3924 82.1137 32.5221 81.7346 32.6951 81.1257L33.7206 77.5527C33.8874 76.9726 33.98 76.5934 33.9924 76.4154C34.0047 76.2373 33.9615 76.1052 33.8627 76.0075C33.7638 75.9099 33.5105 75.818 33.1152 75.7203L32.9793 75.6858L33.0534 75.4388L34.1901 75.6629C34.9438 75.818 35.543 75.9443 35.9816 76.0535C36.7291 76.2373 37.316 76.4556 37.7484 76.6968C38.1808 76.9439 38.4959 77.2483 38.6998 77.6102C38.9036 77.9778 38.9469 78.3627 38.8295 78.7705C38.6936 79.2473 38.3847 79.6092 37.9152 79.8505C37.4395 80.0917 36.8279 80.1664 36.0681 80.0688C36.3523 80.2985 36.7291 80.9591 37.1924 82.0505C37.5754 82.9409 37.8967 83.5383 38.1747 83.8543C38.4465 84.1702 38.811 84.3885 39.2743 84.5206L39.2063 84.7676L39.2002 84.7619ZM34.3569 79.5288C34.6472 79.592 34.9499 79.6552 35.2588 79.7184C35.5739 79.7815 35.8519 79.8045 36.099 79.7988C36.3461 79.793 36.5561 79.7413 36.7291 79.6552C36.9021 79.569 37.0627 79.4311 37.1986 79.2531C37.3345 79.075 37.4457 78.8337 37.5322 78.5408C37.6805 78.0295 37.6619 77.5815 37.4704 77.2081C37.2789 76.8347 36.7291 76.5303 35.8024 76.3005C35.6604 76.266 35.4936 76.2316 35.3082 76.2028L34.3507 79.5345L34.3569 79.5288Z" fill="#273A43"/>
<path id="Vector_22" d="M45.8282 82.3836L42.7517 82.2342L42.517 82.6995C42.1648 83.3773 41.9857 83.8196 41.9733 84.0322C41.961 84.2562 42.0351 84.4343 42.1895 84.5607C42.3502 84.687 42.554 84.756 42.8135 84.7675L42.8011 85.0259L40.3918 84.9053L40.4042 84.6468C40.7625 84.6124 41.0405 84.509 41.2258 84.3309C41.4112 84.1586 41.6459 83.7794 41.9239 83.205C41.9486 83.1533 42.0536 82.9408 42.2451 82.5731L44.8954 77.4607L45.1301 77.4722L47.4961 83.5841L47.8236 84.3883C47.8977 84.5721 48.0027 84.7158 48.1386 84.8249C48.2745 84.934 48.4846 85.0087 48.7626 85.0489L48.7502 85.3074L45.5687 85.1523L45.5811 84.8996C45.9703 84.9168 46.2359 84.8996 46.378 84.8594C46.5201 84.8191 46.5942 84.71 46.6004 84.5492C46.6004 84.4688 46.5263 84.2217 46.3656 83.8081L45.822 82.3836H45.8282ZM45.7417 82.1308L44.4876 78.8508L42.8753 81.993L45.7355 82.1308H45.7417Z" fill="#273A43"/>
<path id="Vector_23" d="M57.3492 84.3785L50.4982 78.2263L51.3754 83.3962C51.4495 83.827 51.5175 84.1027 51.5854 84.2349C51.6534 84.367 51.8016 84.4704 52.0364 84.5508C52.2711 84.6312 52.5986 84.6427 53.0248 84.5795L53.0681 84.8323L50.0781 85.2688L50.0348 85.0161C50.4117 84.9357 50.6958 84.8265 50.875 84.6944C51.0603 84.5623 51.1592 84.4302 51.1777 84.3038C51.1962 84.1774 51.1653 83.8902 51.0912 83.4364L50.424 79.4843C50.3252 78.9156 50.2325 78.5365 50.146 78.3469C50.0534 78.1631 49.9422 78.0482 49.8124 78.0138C49.6765 77.9793 49.3985 77.9908 48.9661 78.054L48.9229 77.8012L51.2889 77.4566L57.0218 82.592L56.2681 78.1344C56.2125 77.807 56.1383 77.5772 56.0395 77.4566C55.9407 77.3359 55.78 77.2555 55.5391 77.2096C55.3044 77.1636 55.0264 77.1694 54.7113 77.2096L54.6681 76.9568L57.5777 76.5317L57.621 76.7845C57.2874 76.8592 57.0279 76.9568 56.8488 77.0832C56.6696 77.2096 56.5646 77.3417 56.5337 77.4796C56.5028 77.6232 56.5152 77.8529 56.5708 78.1689L57.6148 84.3325L57.3615 84.367L57.3492 84.3785Z" fill="#273A43"/>
<path id="Vector_24" d="M64.1442 78.7138L67.3875 77.496L67.4925 77.743C67.1342 77.8751 66.9056 78.0015 66.8068 78.1164C66.7079 78.2313 66.6709 78.3749 66.7018 78.5472C66.7326 78.7195 66.8747 79.1044 67.1342 79.7076L67.4554 80.4486C67.3628 80.4658 67.2763 80.4888 67.2083 80.5175C66.9241 80.6266 66.5844 80.8449 66.1952 81.1781C65.6639 81.6319 65.1265 81.9651 64.589 82.1604C63.5141 82.5625 62.4762 82.5682 61.4755 82.1776C60.4747 81.787 59.7581 81.0862 59.3195 80.0752C58.887 79.0757 58.8438 78.0704 59.2021 77.0594C59.5604 76.0484 60.3202 75.3304 61.4878 74.8881C62.4948 74.509 63.477 74.5434 64.4284 74.9857C64.4469 74.6985 64.4098 74.4113 64.3234 74.1183L64.589 74.0207L65.6021 76.3586L65.3365 76.4563C64.9164 75.7785 64.379 75.3189 63.7179 75.0776C63.0569 74.8364 62.3836 74.8479 61.6979 75.1006C60.9936 75.3649 60.4809 75.8416 60.1658 76.5252C59.8507 77.2088 59.9619 78.1738 60.5056 79.4203C61.043 80.6611 61.6793 81.4481 62.4083 81.7755C63.1372 82.1029 63.8786 82.1259 64.6322 81.8444C65.0153 81.7008 65.3365 81.494 65.5836 81.2298C65.8369 80.9656 65.9728 80.7071 65.9975 80.4543C66.0222 80.2016 65.9666 79.9144 65.8245 79.5927C65.6639 79.2193 65.528 78.978 65.4168 78.8746C65.3056 78.7712 65.1882 78.7138 65.0585 78.7138C64.9288 78.7138 64.7187 78.7655 64.4222 78.8804L64.243 78.9493L64.138 78.7023L64.1442 78.7138Z" fill="#273A43"/>
<path id="Vector_25" d="M74.0708 71.4868L76.0723 69.999L76.2453 70.2001C76.0538 70.4471 75.9302 70.7285 75.8746 71.033C75.8252 71.3259 75.8932 71.774 76.0847 72.3829C76.2391 72.8827 76.3194 73.2675 76.3256 73.5433C77.0422 73.7443 77.5426 73.8305 77.8329 73.8017C78.1295 73.7788 78.3828 73.6869 78.5928 73.526C78.8831 73.3077 79.0005 73.009 78.9387 72.6356L79.155 72.4748C79.2909 72.762 79.3218 73.055 79.2291 73.3652C79.1426 73.6696 78.9573 73.9224 78.6793 74.1292C78.0739 74.583 77.2955 74.6921 76.3441 74.4681C76.2885 75.4389 75.9549 76.1569 75.3372 76.6107C75.121 76.7773 74.8677 76.9037 74.5835 76.9841C74.2993 77.0645 74.0152 77.099 73.7248 77.0817C73.4345 77.0645 73.1503 76.9956 72.8785 76.8692C72.6067 76.7428 72.3719 76.5648 72.1742 76.3235C71.8653 75.9616 71.7047 75.5767 71.7047 75.1689C71.7047 74.7668 71.8468 74.1464 72.1248 73.3192C71.3526 73.1182 70.8028 72.8252 70.4754 72.4461C70.2159 72.1474 70.1109 71.7855 70.1603 71.3662C70.2035 70.9468 70.4136 70.5964 70.7904 70.315C71.1302 70.0622 71.507 69.9243 71.9271 69.9014C72.3534 69.8784 72.687 70.0105 72.9279 70.292C73.3109 70.74 73.2368 71.504 72.6993 72.5897C73.28 72.7333 73.8484 72.8712 74.3982 73.0148C74.948 73.1584 75.4854 73.302 76.0105 73.4456C75.992 73.0837 75.9241 72.739 75.8129 72.4174C75.7017 72.0957 75.5905 71.8602 75.4669 71.7223C75.1827 71.3891 74.775 71.3776 74.2437 71.6878L74.0708 71.4868ZM72.4275 72.5265C72.7611 71.7223 72.7549 71.1249 72.4151 70.7343C72.3163 70.6194 72.2051 70.5275 72.0877 70.4528C71.9704 70.3839 71.8468 70.3379 71.7171 70.315C71.5873 70.292 71.4638 70.3035 71.3402 70.3322C71.2167 70.3666 71.0931 70.4241 70.9819 70.5045C70.7534 70.6711 70.636 70.8779 70.6174 71.1134C70.5989 71.3489 70.6792 71.573 70.8584 71.7797C71.1055 72.0612 71.6244 72.3082 72.4213 72.5208L72.4275 72.5265ZM72.4151 73.3996C72.2545 73.8305 72.1866 74.2326 72.2236 74.6117C72.2607 74.9908 72.3781 75.2953 72.5758 75.525C72.8846 75.8812 73.3294 76.1052 73.9101 76.1914C74.4908 76.2775 74.9727 76.1741 75.3619 75.8869C75.7943 75.5652 76.0229 75.0712 76.0476 74.3992C75.3186 74.1809 74.6515 73.9856 74.046 73.819C73.4406 73.6524 72.897 73.5145 72.4151 73.3996Z" fill="#273A43"/>
<path id="Vector_26" d="M84.8776 62.4691L85.0258 62.2738L87.3486 63.796L87.2004 63.9913C86.8977 63.8707 86.5888 63.819 86.2799 63.8305C86.527 64.807 86.3293 65.7146 85.693 66.5533C85.0197 67.4436 84.161 67.9721 83.1293 68.1387C82.0976 68.3053 81.0783 68.064 80.0837 67.4092C79.4289 66.9784 78.91 66.4441 78.5331 65.8065C78.1501 65.1689 77.9957 64.5198 78.0698 63.8707C78.1439 63.2216 78.391 62.6184 78.8173 62.0555C79.1694 61.5959 79.5833 61.2455 80.0713 61.0043C80.5594 60.763 80.998 60.6309 81.381 60.6079C81.2019 60.2977 80.9733 60.0277 80.7015 59.8095L80.8559 59.6084L83.4073 61.1996L83.259 61.3949C82.2644 60.9468 81.4304 60.8147 80.7632 61.01C80.0961 61.1996 79.5648 61.5615 79.1632 62.0899C78.6752 62.7333 78.5702 63.4341 78.842 64.1809C79.12 64.9334 79.781 65.6514 80.8312 66.335C81.8258 66.9841 82.7463 67.2771 83.5864 67.2081C84.4328 67.1392 85.0876 66.7945 85.5571 66.1799C85.8104 65.8525 85.9772 65.4561 86.0637 64.9966C86.1502 64.537 86.0637 64.0717 85.8104 63.6007C85.5509 63.1297 85.242 62.7505 84.8837 62.4576L84.8776 62.4691Z" fill="#273A43"/>
<path id="Vector_27" d="M87.8847 56.7073L86.6677 59.3382L87.0569 59.7058C87.619 60.2458 88.002 60.556 88.2121 60.6422C88.4345 60.7341 88.6384 60.7283 88.8175 60.6364C88.9967 60.5388 89.1387 60.3837 89.2438 60.1596L89.497 60.263L88.5457 62.3195L88.2924 62.2161C88.3851 61.8887 88.3727 61.613 88.2615 61.3947C88.1503 61.1706 87.8538 60.8375 87.3657 60.3952C87.3163 60.355 87.1434 60.1884 86.8407 59.8954L82.6028 55.8112L82.6954 55.6101L89.6824 55.6676H90.609C90.8191 55.6676 90.9982 55.6216 91.1588 55.5412C91.3133 55.4608 91.4615 55.3057 91.5974 55.0759L91.8507 55.1793L90.5905 57.9021L90.3372 57.7987C90.4916 57.4656 90.572 57.23 90.572 57.0922C90.572 56.9543 90.4978 56.8509 90.3372 56.7877C90.2569 56.7533 89.9789 56.736 89.5094 56.736L87.8847 56.7131V56.7073ZM87.5943 56.6958L83.8507 56.6499L86.4576 59.1429L87.5943 56.6958Z" fill="#273A43"/>
<path id="Vector_28" d="M85.6417 46.6073L87.6247 46.9634L87.563 47.2162C87.1182 47.176 86.7351 47.2162 86.4077 47.3311C86.0803 47.446 85.8641 47.5953 85.7467 47.7677C85.6293 47.9457 85.5181 48.2617 85.4069 48.7155L85.0548 50.1515L88.4093 50.8638L88.5761 50.1745C88.6873 49.7322 88.6749 49.4163 88.5514 49.2382C88.4278 49.0601 88.1189 48.9165 87.6309 48.8131L87.6989 48.5431L90.485 49.1348L90.417 49.4048C90.0773 49.3358 89.8054 49.3071 89.5954 49.3301C89.3854 49.3531 89.2247 49.4163 89.1259 49.5254C89.0209 49.6346 88.9282 49.8701 88.8417 50.232L88.6749 50.9213L90.6394 51.3349C91.2634 51.467 91.6711 51.5359 91.875 51.5532C92.0726 51.5646 92.2333 51.5244 92.3568 51.4268C92.4804 51.3291 92.5792 51.1108 92.6657 50.7777L92.7275 50.5307L92.9931 50.5881L92.1591 54.006L91.8935 53.9485L91.9491 53.7188C92.0232 53.4028 92.0356 53.1788 91.98 53.0409C91.9244 52.9031 91.8132 52.7939 91.6402 52.725C91.4672 52.6503 91.0533 52.5469 90.3923 52.4091L86.5127 51.5876C85.8826 51.4555 85.4749 51.3866 85.2834 51.3808C85.0919 51.3808 84.9498 51.421 84.851 51.5187C84.7521 51.6163 84.6595 51.8461 84.5668 52.2195L84.5359 52.3516L84.2703 52.2942L85.6602 46.6188L85.6417 46.6073Z" fill="#273A43"/>
<path id="Vector_29" d="M85.1478 42.9263L84.3509 43.7363C83.9679 44.1269 83.7146 44.3624 83.6034 44.4486C83.4922 44.5347 83.381 44.5692 83.276 44.5692C83.0536 44.5577 82.9486 44.4428 82.9609 44.213C82.9671 44.0924 83.0227 43.9833 83.1216 43.8914C83.2204 43.7995 83.4243 43.6731 83.7208 43.5122L85.154 42.7425L85.1417 42.9263H85.1478ZM91.5664 40.6516L91.5788 40.3873L94.0931 40.6631L93.7595 46.9014L93.4815 46.8899V46.7348C93.5124 46.3614 93.4691 46.1144 93.3703 45.9995C93.2653 45.8846 93.1355 45.81 92.9749 45.7697C92.8143 45.7353 92.388 45.7008 91.7147 45.6664L87.7424 45.4825C87.1247 45.4538 86.717 45.4538 86.5193 45.4768C86.3216 45.4998 86.1795 45.563 86.0992 45.6721C86.0189 45.7812 85.9633 46.0168 85.9447 46.3786L85.6729 46.3672L85.9571 40.9847L87.9834 40.8986L87.971 41.1628C87.3965 41.2547 86.9888 41.3811 86.7417 41.5419C86.4946 41.7028 86.3339 41.8981 86.2598 42.1336C86.1857 42.3691 86.1363 42.7482 86.1054 43.271L86.0498 44.3164L89.4475 44.4715L89.4907 43.6731C89.5093 43.3054 89.4907 43.0469 89.4289 42.8976C89.3672 42.7482 89.2745 42.6448 89.1386 42.5931C89.0027 42.5414 88.737 42.507 88.3417 42.484L88.354 42.2198L91.1278 42.3461L91.1154 42.6046C90.6645 42.5817 90.3618 42.6046 90.2073 42.6678C90.0529 42.731 89.9479 42.8287 89.8923 42.9608C89.8367 43.0929 89.8058 43.3227 89.7872 43.6444L89.744 44.4715L91.6591 44.5577C92.6166 44.6037 93.185 44.5692 93.3641 44.4658C93.5371 44.3567 93.6421 44.0522 93.6668 43.5524L93.6977 42.9895C93.7162 42.5931 93.6792 42.2657 93.5865 42.0072C93.4877 41.7487 93.2776 41.4902 92.9502 41.2432C92.6228 40.9962 92.1656 40.7894 91.5726 40.6286L91.5664 40.6516Z" fill="#273A43"/>
</g>
</g>
<path id="Vector_30" d="M51.6817 46.0856C51.3852 47.5389 51.9782 48.7395 52.2809 50.1296C52.2871 50.1698 52.2377 50.1928 52.2068 50.1698C51.2307 49.4345 50.3844 48.7969 49.5442 48.1593C48.7782 47.5734 48.6485 46.9358 49.0933 46.0397C49.4763 45.2699 49.2724 44.3221 48.8276 43.6673C48.4137 43.0526 48.4137 42.4035 48.2346 41.7831C48.1172 41.381 48.0986 40.9387 47.5921 41.0478C47.1905 41.134 46.8261 41.5648 46.7581 41.944C46.5481 43.0928 46.7334 44.2302 47.0732 45.3446C47.2029 45.7639 47.5488 47.0334 47.3635 46.8783C46.5789 46.0626 46.2701 45.8903 45.8562 45.448C45.5843 45.155 45.3064 44.7989 45.0531 44.5749C44.0646 43.6902 43.3604 42.7941 43.8422 41.1857C44.2932 39.6864 43.0515 36.9579 42.3102 36.9349C42.2237 36.9349 41.7357 36.7798 41.5627 37.2164C41.26 38.6525 42.0631 39.876 42.2237 41.3121C42.2361 41.427 42.0322 41.7027 41.8036 41.6453C41.1797 41.3523 41.2476 41.3868 40.7349 41.0766C39.9997 40.6343 39.4994 39.6635 39.9009 39.1005C40.7905 37.8368 40.5434 36.5501 39.9565 35.4816C39.7897 35.1829 39.6909 35.045 39.5055 34.9704C39.0299 34.7808 38.653 35.1197 38.5418 35.4012C38.4615 35.6022 38.48 35.9871 38.4924 36.2916C38.5171 36.9292 38.5665 37.5725 38.6159 38.4687C38.6468 39.0086 37.3248 36.0963 37.0839 35.114C36.9109 34.4132 36.6391 33.7066 36.2314 33.1035C35.9719 32.7186 35.4406 32.4141 34.9402 32.2763C34.5634 32.1729 34.2978 32.3337 34.2051 32.5865C34.0568 32.9943 34.2236 33.3734 34.4275 33.8617C35.2121 35.7344 36.5773 37.383 38.0414 38.9512C38.5912 39.5371 38.3936 40.0368 38.165 39.7784C37.5843 39.1178 35.8175 37.9574 34.5634 37.7564C34.409 37.7334 33.6491 37.5553 33.5503 37.7793C33.4947 37.9804 33.6368 38.2159 33.7541 38.394C34.7611 39.8818 36.3179 40.617 38.1341 40.8411C39.419 40.9961 40.358 41.6395 41.1859 42.415C42.1496 43.3168 43.5519 44.7242 44.2006 45.1838C44.3488 45.2872 44.6824 45.672 44.5033 45.6088C44.2747 45.5342 44.0585 45.4422 43.8237 45.3905C42.1249 45.0229 40.7164 43.8223 38.8445 43.9372C38.3874 43.966 38.3132 43.8855 38.1279 43.9832C37.9611 44.0751 37.7573 44.2245 37.8252 44.5174C37.9364 44.9712 38.4368 45.6261 39.2708 45.6605C40.2839 45.7007 41.2909 45.8271 42.2978 45.9133C44.7812 46.1143 46.8384 47.1426 48.6423 48.6476C48.7411 48.728 49.0994 49.2048 48.8091 49.1588C47.2029 49.021 45.6399 48.8601 44.0708 48.7682C43.8422 48.7567 43.3357 48.9635 43.348 49.2048C43.348 49.4001 43.5704 49.6299 43.7496 49.7103C45.2816 50.3709 47.0299 50.6466 48.5867 50.3824C50.2176 50.1066 51.4099 50.5202 52.6578 51.1751C53.2941 51.5082 53.8748 51.9333 54.7767 52.5135C54.8138 52.5365 54.7952 52.5939 54.752 52.5882C53.6832 52.5652 52.9543 52.5078 52.2315 52.5652C51.5334 52.6226 50.8354 52.795 50.1496 52.9558C49.6554 53.0707 49.538 53.5015 49.9149 53.8347C50.1373 54.03 50.3103 54.1621 50.6809 54.3115C52.0153 54.8629 53.6215 54.6044 54.8508 53.5647C55.4933 53.019 56.0493 52.9673 56.8277 53.4153C57.8099 53.9783 58.9219 54.3632 59.9845 54.8055C60.9791 55.2191 61.9798 55.6269 63.0053 55.9716C63.2215 56.0462 63.8764 56.2013 63.9752 55.9716C64.1049 55.6671 63.6169 55.489 63.586 55.4833C62.8385 55.3397 61.4856 54.7308 59.0022 53.7543C58.2362 53.4498 57.7296 53.0477 57.8346 51.8357C57.8841 51.29 56.8524 49.5437 56.3273 48.4178C56.2593 48.2742 55.9257 48.0042 55.5489 48.234C55.3265 48.3833 55.3759 48.6418 55.413 48.8199C55.6045 49.7447 55.8392 50.6581 56.0431 51.5772C56.074 51.7208 56.1172 51.8816 56.0555 52.0022C55.8948 52.1516 55.5798 51.962 55.4315 51.8529C54.8199 51.3876 53.0284 50.6925 53.9983 49.8539C54.1033 49.7677 54.2578 49.2852 54.2516 49.1761C54.2145 48.2455 53.3249 47.1368 52.5898 45.9535C52.3674 45.5973 51.7744 45.6835 51.6879 46.0856H51.6817ZM62.9992 55.9716C63.2154 56.0462 63.8702 56.2013 63.969 55.9716C64.0494 55.7016 63.6046 55.4948 63.5798 55.4833" fill="#273A43"/>
</g>
<defs>
<clipPath id="clip0_933_4201">
<rect width="94.098" height="85.3145" fill="white"/>
</clipPath>
</defs>
</svg>
