<svg width="133" height="130" viewBox="0 0 133 130" fill="none" xmlns="http://www.w3.org/2000/svg">
<g clip-path="url(#clip0_940_6246)">
<path d="M8.37666 54.7855L6.98962 54.3828L8.03644 50.7678L9.42348 51.1705L8.37666 54.7855Z" fill="#273A43"/>
<path d="M6.73577 34.6808L10.4433 28.8337L12.0222 29.6303L9.23941 34.0155L12.0571 35.8187L14.6131 31.801L16.0612 32.7288L13.5052 36.7465L16.5497 38.6984L19.3325 34.3131L20.7108 35.416L17.0033 41.263L6.72705 34.6895L6.73577 34.6808Z" fill="#273A43"/>
<path d="M12.912 25.5834L14.1682 24.1392L21.9757 30.984L25.4825 26.9576L26.7125 28.3231L22.0891 33.6362L12.912 25.5922V25.5834Z" fill="#273A43"/>
<path d="M19.7169 18.2764L21.1301 16.9897L29.3476 26.0229L27.9344 27.3096L19.7169 18.2764Z" fill="#273A43"/>
<path d="M31.0313 24.2981L24.2357 14.1446L25.5442 13.2606L32.4794 15.3963C33.5175 15.7377 34.573 16.0703 35.7682 16.4904L35.8118 16.4642C35.1924 15.6589 34.7039 14.9236 34.0409 13.9345L31.0924 9.53177L32.6626 8.47266L39.5629 18.7837L38.6905 19.3702L31.0488 17.0681C29.9845 16.7443 28.9202 16.4029 27.7164 16.0003L27.6728 16.0265C28.2834 16.823 28.7894 17.5408 29.4611 18.5474L32.6015 23.239L31.0313 24.2981Z" fill="#273A43"/>
<path d="M40.0332 15.9138L40.8794 14.487L41.176 14.4345C42.2664 15.3011 43.1562 15.4761 44.1768 15.0472C45.2411 14.6008 45.6773 13.5592 45.3022 12.6664C44.9358 11.7911 44.2641 11.4147 42.0134 11.371C39.4487 11.3447 38.2885 10.6532 37.6691 9.14768C36.98 7.49336 37.7476 5.65522 39.8413 4.77117C41.3853 4.12344 42.7985 4.33352 43.95 5.21757L43.13 6.62681L42.8334 6.67933C42.1006 6.1629 41.3679 5.98784 40.5042 6.34671C39.4836 6.77561 39.1521 7.58964 39.4662 8.35116C39.7715 9.08641 40.3036 9.3315 42.5892 9.43653C45.3807 9.55908 46.4449 10.2681 47.0818 11.7823C47.8494 13.6292 46.9683 15.7387 44.8573 16.6315C43.1387 17.3493 41.6034 17.1742 40.0245 15.905L40.0332 15.9138Z" fill="#273A43"/>
<path d="M54.5305 13.1729L52.873 1.05875L56.0658 0.621094C58.8225 0.244714 60.2793 1.19004 60.5584 3.2295C60.7242 4.41116 60.1746 5.49653 59.1103 5.99545V6.04797C60.5933 6.17927 61.6838 7.10709 61.9019 8.64762C62.2159 10.9234 60.9597 12.2976 57.828 12.7265L54.5305 13.1817V13.1729ZM55.4639 5.91668L56.8335 5.72411C58.2991 5.52279 58.9359 4.82255 58.7701 3.62338C58.6218 2.51175 57.8367 2.02158 56.188 2.24916L54.9841 2.41547L55.4639 5.90792V5.91668ZM56.1967 11.256L57.5139 11.0722C59.4854 10.8009 60.1833 10.0744 60.0089 8.77892C59.8344 7.48347 58.9271 6.95829 57.1388 7.20337L55.6733 7.40469L56.1967 11.256Z" fill="#273A43"/>
<path d="M71.9165 12.4468L71.0005 9.53205L65.8711 9.26946L64.6673 12.0792L62.53 11.9654L68.0171 0L69.8927 0.0962833L74.0538 12.5518L71.9165 12.4381V12.4468ZM66.5254 7.70267L70.5033 7.91274L69.439 4.53407C69.2035 3.7463 68.9941 2.96728 68.8197 2.20576H68.7673C68.5318 2.94977 68.2265 3.69378 67.9124 4.45529L66.5254 7.70267Z" fill="#273A43"/>
<path d="M81.8185 14.6248L79.7423 8.48897L77.5527 10.0295L76.7152 13.3294L74.8658 12.8567L77.8667 1.00513L79.7161 1.47779L79.1665 3.65729C78.8438 4.94399 78.4599 6.30946 78.1197 7.59616H78.1372C79.1491 6.82589 80.0912 6.09939 81.1206 5.34663L84.6361 2.72947L86.8694 3.29842L81.3561 7.30731L84.0778 15.1938L81.8272 14.6248H81.8185Z" fill="#273A43"/>
<path d="M86.3111 9.53272C87.9599 6.12779 91.5016 4.86735 94.6682 6.40789C96.8753 7.48451 98.0442 9.22636 98.1576 11.5897L96.474 11.8435L96.2559 11.6597C96.0901 9.96161 95.4097 8.86749 93.8918 8.12348C91.7284 7.06436 89.3207 8.0272 88.1605 10.4343C87.0177 12.7976 87.6807 15.2747 89.8092 16.3163C91.5539 17.1654 93.5778 16.964 94.642 15.0821L94.6682 15.0209L91.8418 13.6379L92.5484 12.1761L96.945 14.3206L94.1361 20.1151L92.5659 19.3449L92.8537 18.7584C93.0544 18.3383 93.2812 18.0232 93.5167 17.7781L93.4905 17.7518C91.9727 18.6796 90.3937 18.6621 88.8148 17.8919C85.7179 16.3776 84.6798 12.9114 86.3111 9.54147V9.53272Z" fill="#273A43"/>
<path d="M102.049 26.2933L102.982 23.3785L98.9522 20.1837L96.3526 21.7767L94.6777 20.4463L106.044 13.864L107.519 15.0281L103.733 27.615L102.058 26.2845L102.049 26.2933ZM100.392 19.2996L103.515 21.7767L104.596 18.4068C104.858 17.619 105.137 16.875 105.434 16.1398L105.399 16.1048C104.771 16.5774 104.099 17.0151 103.401 17.444L100.392 19.2909V19.2996ZM107.03 11.4569C107.641 10.6866 108.679 10.5641 109.386 11.1243C110.092 11.6845 110.232 12.7436 109.621 13.5139C109.019 14.2754 107.972 14.3892 107.257 13.8202C106.55 13.26 106.428 12.2184 107.021 11.4569H107.03ZM107.588 11.8946C107.248 12.3322 107.292 12.9099 107.719 13.2513C108.147 13.5926 108.723 13.4964 109.063 13.0587C109.403 12.6211 109.368 12.0259 108.949 11.6932C108.531 11.3606 107.937 11.4657 107.597 11.8946H107.588Z" fill="#273A43"/>
<path d="M110.353 34.9065L110.056 35.0115L108.756 33.5235L110.37 27.6414L109.341 26.4598L105.52 29.8209L104.246 28.3679L113.406 20.3064L115.831 23.0724C117.558 25.0418 117.602 26.8974 115.779 28.508C114.592 29.5583 113.214 29.7159 111.888 28.9281L110.361 34.9065H110.353ZM113.406 22.8798L110.562 25.3832L111.521 26.4773C112.629 27.7465 113.528 27.9828 114.54 27.0987C115.604 26.1622 115.464 25.2256 114.374 23.9739L113.414 22.8798H113.406Z" fill="#273A43"/>
<path d="M110.642 35.8695L121.119 29.6199L122.855 32.5434C125.08 36.2897 124.39 39.432 121.075 41.4102C117.743 43.3971 114.524 42.4168 112.378 38.793L110.642 35.8695ZM113.172 36.5873L113.835 37.7077C115.519 40.5437 117.49 41.2089 120.081 39.6684C122.567 38.1891 122.907 36.1934 121.206 33.3137L120.543 32.1933L113.172 36.5873Z" fill="#273A43"/>
<path d="M121.276 47.9312L122.27 47.5811L123.387 50.8109L122.392 51.161L121.267 47.9312H121.276Z" fill="#273A43"/>
<path d="M1.82572 79.554L1.36337 76.4992C1.65997 75.8953 2.52359 74.9149 3.96297 73.5582C4.42531 73.1206 4.85276 72.6742 5.27149 72.219C5.69022 71.7638 5.92575 71.4487 6.01299 71.2912C6.0915 71.1336 6.10895 70.8973 6.06533 70.5909L5.99554 70.1358L3.48318 70.5209C2.59338 70.661 2.00891 70.766 1.7472 70.8535C1.47678 70.941 1.29358 71.0811 1.18018 71.2824C1.0755 71.4837 1.05805 71.8426 1.13656 72.359L1.21507 72.9017L0.831238 72.963L0.0112305 67.5274L0.395064 67.4661L0.447405 67.8337C0.517193 68.3239 0.630598 68.6478 0.787621 68.8141C0.944643 68.9804 1.14528 69.0679 1.41571 69.0854C1.68614 69.0942 2.28806 69.0329 3.2302 68.8841L8.78706 68.035C9.68557 67.895 10.27 67.7812 10.523 67.6937C10.776 67.6061 10.9418 67.4661 11.0115 67.2735C11.0813 67.081 11.0813 66.7046 10.9941 66.1269L10.9679 65.9343L11.3518 65.873L11.6833 67.4836C11.9013 68.5602 12.0496 69.418 12.1456 70.057C12.3113 71.1424 12.3462 72.0352 12.2416 72.7442C12.1456 73.4532 11.9013 74.0484 11.5088 74.5385C11.1162 75.0287 10.6015 75.3176 9.96473 75.4138C9.22323 75.5276 8.55152 75.3526 7.94088 74.8799C7.33896 74.416 6.88534 73.6545 6.59746 72.6129C6.44044 73.1206 5.73384 74.0134 4.47765 75.2826C3.45701 76.3154 2.80275 77.1119 2.52359 77.6546C2.24444 78.1973 2.13976 78.81 2.21827 79.484L1.83444 79.5453L1.82572 79.554ZM6.37065 70.0745C6.44916 70.4946 6.52767 70.9235 6.61491 71.3612C6.70214 71.8076 6.82427 72.184 6.97257 72.4991C7.12087 72.8142 7.31279 73.0593 7.53087 73.2343C7.74896 73.4094 8.02811 73.5319 8.3596 73.602C8.6911 73.672 9.08365 73.672 9.53728 73.602C10.3311 73.4794 10.9418 73.1818 11.3605 72.7092C11.7792 72.2365 11.8839 71.3262 11.6833 69.987C11.6484 69.7769 11.6047 69.5406 11.5437 69.278L6.37065 70.0657V70.0745Z" fill="#273A43"/>
<path d="M9.08453 89.2188L9.22411 89.6039L5.79578 90.6105L2.51575 81.6825L2.88213 81.5512L2.96064 81.77C3.15256 82.3039 3.3532 82.6278 3.55384 82.7241C3.75448 82.8203 3.97257 82.8641 4.2081 82.8203C4.44364 82.7853 5.01066 82.5928 5.90918 82.2689L11.1782 80.317C11.9982 80.0106 12.5303 79.7918 12.7746 79.6518C13.0188 79.5117 13.1584 79.3366 13.202 79.1441C13.2456 78.9428 13.1671 78.5839 12.9839 78.0675L13.3503 77.9362L16.1767 85.6388L13.5946 86.8818L13.455 86.5054C14.1442 86.059 14.5978 85.6563 14.8246 85.2887C15.0514 84.9211 15.1386 84.5622 15.095 84.1946C15.0514 83.8269 14.8944 83.2667 14.6152 82.514L14.0656 81.0172L9.5556 82.6803L9.97433 83.8269C10.1662 84.3521 10.3494 84.7022 10.5152 84.8773C10.6809 85.0524 10.8641 85.1399 11.0735 85.1399C11.2828 85.1399 11.6492 85.0436 12.1726 84.8423L12.3122 85.2187L8.63963 86.5754L8.50006 86.199C9.09325 85.9802 9.47709 85.7789 9.64283 85.6038C9.80858 85.4288 9.88709 85.2362 9.87837 85.0174C9.86964 84.7985 9.77369 84.4659 9.60794 84.002L9.17177 82.8203L6.62451 83.7569C5.35088 84.2296 4.63555 84.5885 4.46981 84.8335C4.30406 85.0786 4.3564 85.56 4.61811 86.2865L4.91471 87.0918C5.12407 87.6608 5.36833 88.0984 5.64748 88.4135C5.92663 88.7286 6.35408 88.965 6.92983 89.1313C7.50558 89.2976 8.22091 89.3238 9.08453 89.2276V89.2188Z" fill="#273A43"/>
<path d="M7.31372 93.3676L10.4978 91.512L10.7072 91.8796C8.87522 93.5077 8.40416 95.092 9.30268 96.65C9.70396 97.3503 10.2186 97.7704 10.838 97.928C11.4574 98.0768 12.0157 98.0155 12.5042 97.7266C13.0014 97.4378 13.3155 97.0264 13.4638 96.4925C13.6034 95.9585 13.5946 95.1357 13.4638 94.0241C13.3416 93.0263 13.2893 92.256 13.3155 91.6958C13.3329 91.1444 13.4899 90.6279 13.7604 90.164C14.0395 89.7001 14.4059 89.3325 14.8683 89.0611C15.5749 88.6498 16.3076 88.5535 17.0579 88.7723C17.8081 88.9911 18.41 89.4725 18.8462 90.2253C19.0904 90.6454 19.2474 91.0831 19.326 91.5295C19.4045 91.9759 19.3434 92.5273 19.1428 93.1663C19.544 93.2363 19.9017 93.1926 20.2332 93.0438L20.4164 93.3676L17.8255 94.8819L17.6423 94.558C18.2879 93.9366 18.6979 93.2538 18.8549 92.5361C19.0119 91.8184 18.916 91.1356 18.5583 90.5229C18.2181 89.9277 17.8081 89.5951 17.3283 89.4988C16.8485 89.4113 16.421 89.4725 16.0372 89.7001C15.5749 89.9627 15.2957 90.3653 15.1736 90.8993C15.0515 91.4332 15.0515 92.256 15.1736 93.3851C15.287 94.4618 15.3393 95.2583 15.3393 95.7835C15.3393 96.3087 15.191 96.8076 14.9206 97.2802C14.6502 97.7529 14.2402 98.1468 13.708 98.4619C12.8619 98.9521 12.007 99.0746 11.1521 98.8208C10.2972 98.5669 9.59055 97.963 9.04097 97.0089C8.41288 95.9235 8.29947 94.7681 8.70948 93.5514C8.38671 93.5252 7.99415 93.5952 7.54053 93.7528L7.33117 93.3851L7.31372 93.3676Z" fill="#273A43"/>
<path d="M19.2977 96.8954L19.0447 96.5978L21.1732 94.8472L28.405 103.311L26.355 105.158L26.1194 104.878C26.6079 104.283 26.9045 103.793 27.0092 103.408C27.1139 103.014 27.1139 102.699 27.0092 102.454C26.9045 102.208 26.6428 101.841 26.2328 101.368L25.0377 99.9677L18.9051 105.246C18.2247 105.832 17.7885 106.235 17.6053 106.445C17.4221 106.664 17.3349 106.883 17.3523 107.11C17.3698 107.338 17.5442 107.653 17.8845 108.038L18.2508 108.467L17.9542 108.721L14.238 104.37L14.5346 104.117L14.9185 104.563C15.2412 104.939 15.5029 105.149 15.721 105.22C15.9391 105.281 16.1659 105.246 16.3927 105.114C16.6283 104.983 17.1081 104.607 17.8321 103.985L23.9647 98.7073L22.8568 97.4118C22.377 96.8516 22.0281 96.4927 21.81 96.3527C21.5919 96.2039 21.2779 96.1601 20.8592 96.2301C20.4404 96.3002 19.9258 96.519 19.2977 96.9041V96.8954Z" fill="#273A43"/>
<path d="M28.4599 112.563L25.0926 109.806L24.4035 110.182C23.4003 110.725 22.7896 111.119 22.589 111.364C22.3709 111.626 22.3011 111.906 22.3709 112.195C22.4407 112.484 22.6152 112.738 22.903 112.974L22.6588 113.272L20.0243 111.11L20.2685 110.812C20.7134 111.075 21.1147 111.171 21.4811 111.11C21.8475 111.049 22.4494 110.786 23.2869 110.305C23.3654 110.261 23.6707 110.086 24.2203 109.797L31.8184 105.727L32.0714 105.937L29.2886 115.434L28.9397 116.703C28.8612 116.992 28.8525 117.254 28.9048 117.5C28.9571 117.745 29.1316 118.016 29.4195 118.296L29.1752 118.602L25.6858 115.749L25.9301 115.451C26.3575 115.801 26.6716 116.003 26.8722 116.064C27.0729 116.125 27.2561 116.064 27.4044 115.871C27.4829 115.775 27.6137 115.408 27.8056 114.769L28.4686 112.563H28.4599ZM28.5908 112.178L30.1086 107.092L25.459 109.604L28.5908 112.169V112.178Z" fill="#273A43"/>
<path d="M43.1407 113.159L46.5254 114.944L46.3422 115.286C45.8799 115.076 45.4873 115.006 45.182 115.058C44.8679 115.111 44.6324 115.233 44.4667 115.426C44.3009 115.618 44.0654 116.021 43.7339 116.642L41.963 120.03C41.5094 120.896 41.143 121.518 40.8551 121.903C40.5673 122.288 40.1572 122.594 39.6251 122.831C39.093 123.067 38.4736 123.155 37.7583 123.085C37.043 123.015 36.3102 122.778 35.5512 122.384C34.6527 121.912 33.9636 121.351 33.5012 120.713C33.0389 120.074 32.7946 119.443 32.7859 118.813C32.7772 118.183 32.9865 117.465 33.414 116.642L33.9636 115.601L35.621 112.432C36.0485 111.618 36.2927 111.084 36.3713 110.83C36.4498 110.576 36.4323 110.358 36.3276 110.183C36.223 110.016 35.9176 109.789 35.403 109.517L35.1674 109.395L35.3506 109.053L39.9741 111.496L39.7909 111.837L39.5902 111.732C39.093 111.469 38.744 111.338 38.5434 111.338C38.3428 111.338 38.1596 111.434 37.9938 111.636C37.8281 111.837 37.514 112.353 37.0779 113.202L35.403 116.406C34.8185 117.518 34.4608 118.332 34.3212 118.848C34.1817 119.365 34.2514 119.925 34.548 120.52C34.8359 121.115 35.3768 121.623 36.1706 122.043C36.79 122.367 37.4093 122.551 38.0374 122.586C38.6655 122.621 39.1977 122.524 39.6251 122.314C40.0526 122.095 40.3928 121.815 40.637 121.483C40.8813 121.141 41.2128 120.581 41.6315 119.793L43.446 116.327C43.7513 115.75 43.9258 115.329 43.9781 115.067C44.0305 114.804 43.9869 114.55 43.8473 114.297C43.7077 114.051 43.4111 113.789 42.9575 113.509L43.1407 113.167V113.159Z" fill="#273A43"/>
<path d="M55.3544 129.158L52.3797 128.361C51.9523 127.853 51.4027 126.663 50.731 124.799C50.5129 124.203 50.2861 123.626 50.0331 123.066C49.7801 122.505 49.5969 122.155 49.4835 122.015C49.3701 121.875 49.1608 121.77 48.8642 121.683L48.4193 121.569L47.765 124.037C47.5295 124.912 47.3986 125.49 47.3724 125.77C47.3376 126.05 47.3986 126.278 47.5382 126.462C47.6778 126.637 48.0005 126.794 48.4978 126.934L49.0299 127.074L48.9339 127.451L43.6388 126.033L43.7435 125.656L44.1011 125.753C44.5722 125.875 44.9211 125.91 45.1305 125.832C45.3486 125.762 45.5056 125.604 45.6277 125.368C45.7412 125.123 45.9243 124.545 46.1686 123.617L47.6167 118.173C47.8522 117.289 47.9831 116.711 48.0005 116.44C48.018 116.168 47.9569 115.967 47.8173 115.818C47.6778 115.669 47.3201 115.529 46.7618 115.38L46.5699 115.328L46.6746 114.952L48.2797 115.293C49.344 115.529 50.1901 115.722 50.8095 115.888C51.865 116.168 52.6938 116.501 53.3044 116.868C53.9151 117.245 54.36 117.709 54.6478 118.26C54.9357 118.82 54.9968 119.407 54.831 120.028C54.6391 120.755 54.2029 121.306 53.5399 121.674C52.8682 122.041 52.0046 122.155 50.9316 122.006C51.3329 122.357 51.865 123.363 52.5193 125.026C53.0602 126.383 53.5138 127.293 53.9063 127.775C54.2902 128.256 54.8049 128.589 55.4591 128.79L55.3632 129.166L55.3544 129.158ZM48.5152 121.184C48.9252 121.28 49.3527 121.376 49.7888 121.473C50.2337 121.569 50.6263 121.604 50.9752 121.595C51.3242 121.586 51.6208 121.508 51.865 121.376C52.1093 121.245 52.3361 121.035 52.528 120.764C52.7199 120.492 52.877 120.125 52.9991 119.678C53.2085 118.899 53.1823 118.216 52.9119 117.647C52.6414 117.079 51.865 116.615 50.5565 116.264C50.3559 116.212 50.1203 116.159 49.8586 116.116L48.5065 121.192L48.5152 121.184Z" fill="#273A43"/>
<path d="M64.7141 125.534L60.3698 125.306L60.0384 126.015C59.5411 127.048 59.2881 127.722 59.2707 128.046C59.2532 128.387 59.3579 128.659 59.576 128.851C59.8028 129.044 60.0907 129.149 60.4571 129.166L60.4396 129.56L57.0375 129.376L57.0549 128.983C57.5609 128.93 57.9534 128.772 58.2152 128.501C58.4769 128.238 58.8083 127.661 59.2009 126.785C59.2358 126.707 59.3841 126.383 59.6545 125.823L63.3969 118.032L63.7284 118.05L67.0695 127.363L67.5318 128.589C67.6365 128.869 67.7848 129.088 67.9767 129.254C68.1686 129.42 68.4652 129.534 68.8578 129.595L68.8404 129.989L64.3478 129.753L64.3652 129.368C64.9148 129.394 65.2899 129.368 65.4905 129.306C65.6912 129.245 65.7959 129.079 65.8046 128.834C65.8046 128.711 65.6999 128.335 65.4731 127.705L64.7054 125.534H64.7141ZM64.592 125.149L62.8211 120.151L60.5443 124.939L64.5833 125.149H64.592Z" fill="#273A43"/>
<path d="M80.9824 128.573L71.3081 119.199L72.5468 127.077C72.6515 127.733 72.7475 128.153 72.8434 128.355C72.9394 128.556 73.1488 128.714 73.4803 128.836C73.8117 128.959 74.2741 128.976 74.876 128.88L74.9371 129.265L70.7149 129.93L70.6538 129.545C71.186 129.423 71.5873 129.256 71.8402 129.055C72.1019 128.854 72.2415 128.652 72.2677 128.46C72.2939 128.267 72.2502 127.829 72.1456 127.138L71.2034 121.116C71.0638 120.249 70.933 119.672 70.8109 119.383C70.68 119.103 70.523 118.928 70.3398 118.875C70.1479 118.823 69.7553 118.84 69.1447 118.936L69.0836 118.551L72.4247 118.026L80.5201 125.851L79.4558 119.059C79.3773 118.56 79.2726 118.21 79.1331 118.026C78.9935 117.842 78.7667 117.72 78.4265 117.65C78.095 117.58 77.7024 117.588 77.2575 117.65L77.1965 117.265L81.3052 116.617L81.3663 117.002C80.8952 117.116 80.5288 117.265 80.2758 117.457C80.0229 117.65 79.8746 117.851 79.8309 118.061C79.7873 118.28 79.8048 118.63 79.8833 119.111L81.3576 128.503L80.9999 128.556L80.9824 128.573Z" fill="#273A43"/>
<path d="M90.5782 119.942L95.1581 118.086L95.3064 118.463C94.8004 118.664 94.4776 118.857 94.3381 119.032C94.1985 119.207 94.1461 119.425 94.1898 119.688C94.2334 119.951 94.434 120.537 94.8004 121.456L95.254 122.585C95.1232 122.612 95.001 122.647 94.9051 122.69C94.5038 122.857 94.024 123.189 93.4744 123.697C92.7242 124.388 91.9653 124.896 91.2063 125.194C89.6884 125.806 88.2229 125.815 86.8097 125.22C85.3965 124.625 84.3846 123.557 83.7652 122.016C83.1545 120.493 83.0935 118.962 83.5995 117.421C84.1054 115.88 85.1784 114.786 86.8271 114.112C88.2491 113.535 89.6361 113.587 90.9795 114.261C91.0057 113.824 90.9533 113.386 90.8312 112.939L91.2063 112.791L92.637 116.353L92.2619 116.502C91.6687 115.469 90.9097 114.769 89.9763 114.401C89.0429 114.034 88.092 114.051 87.1237 114.436C86.1293 114.839 85.4052 115.565 84.9603 116.607C84.5154 117.649 84.6724 119.119 85.4401 121.018C86.199 122.909 87.0976 124.108 88.1269 124.607C89.1563 125.106 90.2031 125.141 91.2674 124.712C91.8082 124.493 92.2619 124.178 92.6108 123.776C92.9685 123.373 93.1604 122.979 93.1953 122.594C93.2302 122.209 93.1517 121.771 92.951 121.281C92.7242 120.712 92.5323 120.345 92.3753 120.187C92.2182 120.029 92.0525 119.942 91.8693 119.942C91.6861 119.942 91.3895 120.021 90.9708 120.196L90.7178 120.301L90.5695 119.924L90.5782 119.942Z" fill="#273A43"/>
<path d="M104.596 108.93L107.422 106.663L107.666 106.969C107.396 107.345 107.221 107.774 107.143 108.238C107.073 108.685 107.169 109.367 107.439 110.295C107.658 111.057 107.771 111.643 107.78 112.063C108.792 112.37 109.498 112.501 109.908 112.457C110.327 112.422 110.685 112.282 110.981 112.037C111.391 111.704 111.557 111.249 111.47 110.68L111.775 110.435C111.967 110.873 112.011 111.319 111.88 111.792C111.758 112.256 111.496 112.641 111.103 112.956C110.248 113.648 109.149 113.814 107.806 113.472C107.727 114.952 107.256 116.046 106.384 116.737C106.079 116.991 105.721 117.184 105.32 117.306C104.918 117.429 104.517 117.481 104.107 117.455C103.697 117.429 103.296 117.324 102.912 117.131C102.528 116.939 102.197 116.667 101.917 116.3C101.481 115.748 101.255 115.162 101.255 114.54C101.255 113.928 101.455 112.982 101.848 111.722C100.757 111.415 99.9809 110.969 99.5185 110.391C99.1521 109.936 99.0038 109.385 99.0736 108.746C99.1347 108.107 99.4313 107.573 99.9634 107.144C100.443 106.759 100.975 106.549 101.569 106.514C102.17 106.479 102.642 106.68 102.982 107.109C103.523 107.792 103.418 108.956 102.659 110.61C103.479 110.829 104.282 111.039 105.058 111.258C105.834 111.477 106.593 111.696 107.335 111.914C107.309 111.363 107.213 110.838 107.056 110.348C106.899 109.857 106.742 109.499 106.567 109.288C106.166 108.781 105.59 108.763 104.84 109.236L104.596 108.93ZM102.275 110.514C102.746 109.288 102.737 108.378 102.258 107.783C102.118 107.608 101.961 107.468 101.795 107.354C101.63 107.249 101.455 107.179 101.272 107.144C101.089 107.109 100.914 107.126 100.74 107.17C100.565 107.223 100.391 107.31 100.234 107.433C99.9111 107.687 99.7453 108.002 99.7192 108.361C99.693 108.72 99.8064 109.061 100.059 109.376C100.408 109.805 101.141 110.181 102.266 110.505L102.275 110.514ZM102.258 111.844C102.031 112.501 101.935 113.114 101.987 113.691C102.04 114.269 102.205 114.733 102.485 115.083C102.921 115.626 103.549 115.967 104.369 116.098C105.189 116.23 105.869 116.072 106.419 115.634C107.029 115.144 107.352 114.392 107.387 113.367C106.358 113.035 105.416 112.737 104.561 112.483C103.706 112.23 102.938 112.019 102.258 111.844Z" fill="#273A43"/>
<path d="M119.856 95.1885L120.065 94.8909L123.345 97.2104L123.136 97.508C122.708 97.3242 122.272 97.2454 121.836 97.2629C122.185 98.751 121.906 100.134 121.007 101.412C120.056 102.769 118.844 103.574 117.387 103.828C115.93 104.082 114.491 103.714 113.086 102.716C112.162 102.06 111.429 101.246 110.897 100.274C110.356 99.3024 110.138 98.3133 110.242 97.3242C110.347 96.3351 110.696 95.4161 111.298 94.5583C111.795 93.858 112.38 93.3241 113.069 92.9565C113.758 92.5888 114.377 92.3875 114.918 92.3525C114.665 91.8798 114.342 91.4684 113.959 91.1358L114.177 90.8295L117.779 93.2541L117.57 93.5517C116.166 92.8689 114.988 92.6676 114.046 92.9652C113.104 93.2541 112.353 93.8055 111.786 94.6108C111.097 95.5911 110.949 96.659 111.333 97.7969C111.725 98.9435 112.659 100.038 114.142 101.079C115.546 102.068 116.846 102.515 118.032 102.41C119.228 102.305 120.152 101.78 120.815 100.843C121.173 100.344 121.408 99.7401 121.531 99.0398C121.653 98.3396 121.531 97.6306 121.173 96.9128C120.807 96.1951 120.37 95.6174 119.864 95.171L119.856 95.1885Z" fill="#273A43"/>
<path d="M124.102 86.4087L122.383 90.4176L122.933 90.9778C123.727 91.8006 124.268 92.2732 124.564 92.4045C124.878 92.5446 125.166 92.5358 125.419 92.3958C125.672 92.247 125.873 92.0107 126.021 91.6693L126.379 91.8268L125.035 94.9604L124.678 94.8029C124.808 94.3039 124.791 93.8838 124.634 93.5512C124.477 93.2098 124.058 92.7021 123.369 92.0282C123.299 91.9669 123.055 91.713 122.628 91.2666L116.643 85.0432L116.774 84.7369L126.64 84.8244H127.949C128.246 84.8244 128.499 84.7544 128.725 84.6319C128.943 84.5093 129.153 84.273 129.345 83.9229L129.702 84.0804L127.923 88.2293L127.565 88.0718C127.783 87.5641 127.897 87.2052 127.897 86.9952C127.897 86.7851 127.792 86.6275 127.565 86.5313C127.452 86.4787 127.059 86.4525 126.396 86.4525L124.102 86.4175V86.4087ZM123.692 86.3912L118.405 86.3212L122.087 90.12L123.692 86.3912Z" fill="#273A43"/>
<path d="M120.935 71.0189L123.735 71.5616L123.648 71.9467C123.02 71.8855 122.479 71.9467 122.017 72.1218C121.554 72.2969 121.249 72.5244 121.083 72.787C120.917 73.0584 120.76 73.5398 120.603 74.2313L120.106 76.4195L124.843 77.5049L125.079 76.4546C125.236 75.7806 125.218 75.2992 125.044 75.0278C124.869 74.7565 124.433 74.5376 123.744 74.3801L123.84 73.9687L127.774 74.8703L127.678 75.2816C127.198 75.1766 126.815 75.1328 126.518 75.1679C126.221 75.2029 125.995 75.2992 125.855 75.4655C125.707 75.6318 125.576 75.9906 125.454 76.5421L125.218 77.5924L127.992 78.2227C128.873 78.424 129.449 78.529 129.737 78.5553C130.016 78.5728 130.243 78.5115 130.417 78.3627C130.592 78.2139 130.731 77.8813 130.854 77.3736L130.941 76.9972L131.316 77.0848L130.138 82.2928L129.763 82.2053L129.842 81.8552C129.946 81.3738 129.964 81.0324 129.885 80.8223C129.807 80.6122 129.65 80.4459 129.405 80.3409C129.161 80.2271 128.577 80.0696 127.643 79.8595L122.165 78.6078C121.275 78.4065 120.699 78.3014 120.429 78.2927C120.159 78.2927 119.958 78.354 119.818 78.5028C119.679 78.6516 119.548 79.0017 119.417 79.5706L119.373 79.7719L118.998 79.6844L120.961 71.0364L120.935 71.0189Z" fill="#273A43"/>
<path d="M120.237 65.4099L119.112 66.644C118.571 67.2392 118.213 67.5981 118.056 67.7294C117.899 67.8607 117.742 67.9132 117.594 67.9132C117.28 67.8957 117.132 67.7207 117.149 67.3705C117.158 67.1867 117.236 67.0204 117.376 66.8804C117.515 66.7403 117.803 66.5477 118.222 66.3027L120.246 65.1298L120.228 65.4099H120.237ZM129.301 61.9437L129.318 61.541L132.869 61.9612L132.398 71.467L132.005 71.4494V71.2131C132.049 70.6442 131.988 70.2678 131.848 70.0927C131.7 69.9177 131.517 69.8039 131.29 69.7426C131.063 69.6901 130.461 69.6376 129.51 69.5851L123.901 69.305C123.029 69.2612 122.453 69.2612 122.174 69.2962C121.895 69.3312 121.694 69.4275 121.581 69.5938C121.467 69.7601 121.389 70.119 121.363 70.6704L120.979 70.6529L121.38 62.4513L124.241 62.32L124.224 62.7227C123.413 62.8627 122.837 63.0553 122.488 63.3004C122.139 63.5455 121.912 63.8431 121.807 64.2019C121.703 64.5608 121.633 65.1385 121.589 65.935L121.511 67.5281L126.309 67.7644L126.37 66.5477C126.396 65.9876 126.37 65.5937 126.283 65.3661C126.195 65.1385 126.064 64.981 125.873 64.9022C125.681 64.8234 125.306 64.7709 124.747 64.7359L124.765 64.3332L128.682 64.5258L128.664 64.9197C128.027 64.8847 127.6 64.9197 127.382 65.016C127.164 65.1123 127.015 65.2611 126.937 65.4624C126.858 65.6637 126.815 66.0138 126.789 66.504L126.727 67.7644L129.432 67.8957C130.784 67.9657 131.586 67.9132 131.839 67.7557C132.084 67.5894 132.232 67.1254 132.267 66.3639L132.311 65.5061C132.337 64.9022 132.284 64.4033 132.153 64.0094C132.014 63.6155 131.717 63.2216 131.255 62.8452C130.793 62.4688 130.147 62.1537 129.31 61.9086L129.301 61.9437Z" fill="#273A43"/>
<path d="M72.9797 70.224C72.561 72.4385 73.3985 74.2679 73.8259 76.3861C73.8346 76.4474 73.7649 76.4824 73.7212 76.4474C72.3429 75.327 71.1478 74.3554 69.9614 73.3838C68.8797 72.491 68.6965 71.5195 69.3246 70.154C69.8655 68.9811 69.5776 67.5368 68.9495 66.539C68.365 65.6024 68.365 64.6133 68.112 63.668C67.9463 63.0553 67.9201 62.3813 67.2048 62.5476C66.6378 62.6789 66.1231 63.3354 66.0271 63.9131C65.7305 65.6637 65.9922 67.3968 66.472 69.0949C66.6552 69.7338 67.1437 71.6683 66.882 71.4319C65.7741 70.189 65.338 69.9264 64.7535 69.2524C64.3697 68.806 63.9771 68.2633 63.6194 67.922C62.2237 66.574 61.2292 65.2085 61.9096 62.7577C62.5465 60.4731 60.793 56.3154 59.7462 56.2804C59.6241 56.2804 58.9349 56.0441 58.6907 56.7093C58.2632 58.8976 59.3973 60.762 59.6241 62.9502C59.6415 63.1253 59.3537 63.5454 59.0309 63.4579C58.1498 63.0115 58.2458 63.064 57.5217 62.5914C56.4836 61.9174 55.777 60.4381 56.3441 59.5803C57.6002 57.6547 57.2513 55.694 56.4226 54.0659C56.187 53.6108 56.0475 53.4007 55.7858 53.2869C55.1141 52.998 54.5819 53.5145 54.4249 53.9434C54.3115 54.2497 54.3377 54.8362 54.3551 55.3001C54.39 56.2717 54.4598 57.252 54.5296 58.6175C54.5732 59.4403 52.7064 55.0025 52.3662 53.5057C52.1219 52.4379 51.7381 51.3612 51.1623 50.4422C50.7959 49.8557 50.0457 49.3918 49.3391 49.1817C48.807 49.0242 48.4319 49.2693 48.301 49.6544C48.0916 50.2759 48.3272 50.8536 48.6151 51.5976C49.7229 54.451 51.6508 56.9632 53.7183 59.3527C54.4947 60.2456 54.2155 61.0071 53.8928 60.6132C53.0728 59.6066 50.5778 57.8385 48.807 57.5321C48.5889 57.4971 47.5159 57.2258 47.3763 57.5671C47.2978 57.8735 47.4984 58.2324 47.6642 58.5037C49.0861 60.7707 51.2844 61.8911 53.8491 62.2325C55.6636 62.4688 56.9896 63.4492 58.1585 64.6308C59.5194 66.005 61.4996 68.1495 62.4156 68.8498C62.625 69.0073 63.096 69.5938 62.8431 69.4975C62.5203 69.3837 62.215 69.2437 61.8835 69.1649C59.4845 68.6047 57.4956 66.7753 54.8523 66.9504C54.2068 66.9941 54.1021 66.8716 53.8404 67.0204C53.6049 67.1604 53.317 67.388 53.413 67.8344C53.57 68.5259 54.2766 69.5238 55.4543 69.5763C56.8849 69.6376 58.3068 69.8301 59.7288 69.9614C63.2356 70.2678 66.1405 71.8346 68.6878 74.1279C68.8274 74.2504 69.3333 74.9769 68.9233 74.9069C66.6552 74.6968 64.4482 74.4517 62.2324 74.3117C61.9096 74.2942 61.1943 74.6093 61.2118 74.9769C61.2118 75.2745 61.5258 75.6246 61.7788 75.7472C63.9422 76.7538 66.411 77.1739 68.6093 76.7713C70.9123 76.3511 72.5959 76.9813 74.3581 77.9792C75.2566 78.4869 76.0766 79.1346 77.3502 80.0186C77.4025 80.0537 77.3764 80.1412 77.3153 80.1324C75.8062 80.0974 74.7768 80.0099 73.7561 80.0974C72.7704 80.185 71.7846 80.4475 70.8163 80.6926C70.1184 80.8677 69.9527 81.5242 70.4848 82.0318C70.7989 82.3294 71.0431 82.5308 71.5665 82.7583C73.4508 83.5986 75.7189 83.2048 77.4549 81.6204C78.3621 80.7889 79.1472 80.7101 80.2464 81.3929C81.6334 82.2507 83.2037 82.8371 84.7041 83.5111C86.1086 84.1413 87.5218 84.7628 88.9699 85.288C89.2752 85.4018 90.1999 85.6381 90.3395 85.288C90.5227 84.8241 89.8335 84.5527 89.7899 84.544C88.7344 84.3251 86.8239 83.3973 83.3171 81.9093C82.2354 81.4454 81.52 80.8327 81.6683 78.9858C81.7381 78.1542 80.2813 75.4933 79.5398 73.7777C79.4438 73.5589 78.9728 73.1475 78.4406 73.4976C78.1266 73.7252 78.1964 74.1191 78.2487 74.3904C78.5192 75.7997 78.8507 77.1914 79.1385 78.5919C79.1821 78.8107 79.2432 79.0558 79.156 79.2396C78.9292 79.4672 78.4843 79.1784 78.2749 79.012C77.4113 78.303 74.8815 77.2439 76.2511 75.966C76.3994 75.8347 76.6174 75.0994 76.6087 74.9331C76.5564 73.5151 75.3002 71.8258 74.2621 70.0227C73.9481 69.48 73.1106 69.6113 72.9885 70.224H72.9797ZM88.9612 85.288C89.2665 85.4018 90.1912 85.6381 90.3308 85.288C90.4442 84.8766 89.8161 84.5615 89.7812 84.544" fill="#273A43"/>
</g>
<defs>
<clipPath id="clip0_940_6246">
<rect width="132.876" height="130" fill="white"/>
</clipPath>
</defs>
</svg>
