<svg width="193" height="188" viewBox="0 0 193 188" fill="none" xmlns="http://www.w3.org/2000/svg">
<g id="Layer_1" clip-path="url(#clip0_903_3697)" filter="url(#filter0_d_903_3697)">
<g id="Group">
<g id="Group_2">
<path id="Vector" d="M15.6377 75.8566L13.7107 75.2991L15.165 70.2938L17.0921 70.8513L15.6377 75.8566Z" fill="#273A43"/>
<path id="Vector_2" d="M13.3583 48.0193L18.5091 39.9235L20.7028 41.0263L16.8366 47.0983L20.7513 49.5949L24.3023 44.032L26.3141 45.3167L22.7631 50.8796L26.9928 53.5822L30.859 47.5103L32.7739 49.0374L27.6231 57.1333L13.3462 48.0315L13.3583 48.0193Z" fill="#273A43"/>
<path id="Vector_3" d="M21.9387 35.4232L23.6839 33.4235L34.531 42.901L39.403 37.326L41.1119 39.2166L34.6885 46.5732L21.9387 35.4353V35.4232Z" fill="#273A43"/>
<path id="Vector_4" d="M31.3931 25.306L33.3564 23.5244L44.7731 36.0318L42.8097 37.8134L31.3931 25.306Z" fill="#273A43"/>
<path id="Vector_5" d="M47.112 33.6435L37.6709 19.5848L39.4888 18.3607L49.1239 21.3179C50.5661 21.7906 52.0326 22.2511 53.693 22.8329L53.7536 22.7965C52.8931 21.6815 52.2144 20.6635 51.2933 19.2939L47.1969 13.1978L49.3784 11.7313L58.965 26.0082L57.753 26.8202L47.1363 23.6327C45.6577 23.1843 44.1791 22.7117 42.5066 22.1542L42.446 22.1905C43.2944 23.2934 43.9973 24.2872 44.9305 25.681L49.2936 32.1771L47.112 33.6435Z" fill="#273A43"/>
<path id="Vector_6" d="M59.6185 22.0345L60.7941 20.059L61.2062 19.9863C62.7211 21.1861 63.9573 21.4285 65.3753 20.8346C66.8539 20.2165 67.4599 18.7743 66.9387 17.5381C66.4297 16.3262 65.4965 15.805 62.3696 15.7444C58.8065 15.7081 57.1946 14.7506 56.3341 12.666C55.3766 10.3754 56.4432 7.83033 59.3519 6.60625C61.497 5.7094 63.4604 6.00027 65.0602 7.22435L63.9209 9.1756L63.5089 9.24832C62.4908 8.53327 61.4728 8.29087 60.2729 8.78778C58.855 9.38164 58.3944 10.5088 58.8307 11.5632C59.2549 12.5812 59.9942 12.9206 63.1695 13.066C67.0478 13.2357 68.5264 14.2173 69.4111 16.314C70.4776 18.8713 69.2536 21.7921 66.3206 23.0283C63.9331 24.0221 61.8 23.7797 59.6064 22.0224L59.6185 22.0345Z" fill="#273A43"/>
<path id="Vector_7" d="M79.7595 18.2395L77.4568 1.46601L81.8925 0.860033C85.7223 0.338891 87.7463 1.64781 88.1341 4.47167C88.3644 6.10781 87.6009 7.61064 86.1223 8.30145V8.37417C88.1826 8.55597 89.6976 9.84064 90.0006 11.9737C90.4369 15.1248 88.6916 17.0276 84.3407 17.6214L79.7595 18.2516V18.2395ZM81.0563 8.19238L82.9591 7.92575C84.9952 7.647 85.8799 6.67743 85.6496 5.01705C85.4436 3.47786 84.3528 2.79917 82.0622 3.11427L80.3897 3.34455L81.0563 8.18026V8.19238ZM82.0743 15.5853L83.9044 15.3308C86.6434 14.9551 87.613 13.9492 87.3706 12.1555C87.1282 10.3618 85.8678 9.63461 83.3833 9.97396L81.3472 10.2527L82.0743 15.5853Z" fill="#273A43"/>
<path id="Vector_8" d="M103.914 17.234L102.642 13.1982L95.5153 12.8346L93.8428 16.725L90.8735 16.5675L98.4968 0L101.102 0.133315L106.883 17.3795L103.914 17.2219V17.234ZM96.4243 10.6652L101.951 10.9561L100.472 6.27794C100.145 5.18718 99.8541 4.10854 99.6118 3.05413H99.539C99.2118 4.0843 98.7876 5.11446 98.3513 6.16887L96.4243 10.6652Z" fill="#273A43"/>
<path id="Vector_9" d="M117.671 20.2499L114.787 11.7541L111.745 13.8871L110.581 18.4562L108.012 17.8018L112.181 1.39185L114.75 2.0463L113.987 5.06408C113.538 6.84566 113.005 8.73631 112.532 10.5179H112.557C113.962 9.45137 115.271 8.44544 116.701 7.40316L121.586 3.7794L124.688 4.56718L117.029 10.1179L120.81 21.0377L117.683 20.2499H117.671Z" fill="#273A43"/>
<path id="Vector_10" d="M123.913 13.199C126.203 8.48447 131.124 6.73925 135.523 8.8723C138.59 10.363 140.214 12.7748 140.371 16.0471L138.032 16.3986L137.729 16.144C137.499 13.7928 136.553 12.2779 134.445 11.2477C131.439 9.78126 128.094 11.1144 126.482 14.4473C124.894 17.7196 125.815 21.1494 128.773 22.5917C131.197 23.7673 134.008 23.4885 135.487 20.8828L135.523 20.798L131.597 18.8831L132.578 16.8591L138.686 19.8284L134.784 27.8516L132.602 26.785L133.002 25.973C133.281 25.3913 133.596 24.955 133.923 24.6156L133.887 24.5793C131.778 25.8639 129.585 25.8397 127.391 24.7732C123.089 22.6765 121.646 17.8771 123.913 13.2111V13.199Z" fill="#273A43"/>
<path id="Vector_11" d="M145.777 36.4061L147.074 32.3703L141.475 27.9466L137.863 30.1524L135.536 28.3102L151.328 19.1963L153.376 20.8082L148.117 38.2361L145.79 36.394L145.777 36.4061ZM143.475 26.7225L147.814 30.1524L149.316 25.4863C149.68 24.3956 150.068 23.3654 150.48 22.3474L150.431 22.2989C149.559 22.9533 148.626 23.5593 147.656 24.1532L143.475 26.7104V26.7225ZM152.698 15.8634C153.546 14.7969 154.988 14.6272 155.97 15.4028C156.952 16.1785 157.146 17.645 156.297 18.7115C155.461 19.7659 154.007 19.9234 153.013 19.1357C152.031 18.36 151.861 16.9178 152.686 15.8634H152.698ZM153.473 16.4694C153.001 17.0753 153.061 17.8752 153.655 18.3479C154.249 18.8206 155.049 18.6873 155.522 18.0813C155.994 17.4753 155.946 16.6512 155.364 16.1906C154.782 15.7301 153.958 15.8755 153.485 16.4694H153.473Z" fill="#273A43"/>
<path id="Vector_12" d="M157.314 48.3318L156.901 48.4772L155.096 46.4169L157.338 38.2725L155.908 36.6364L150.599 41.2903L148.83 39.2785L161.555 28.1163L164.925 31.9461C167.324 34.673 167.385 37.2424 164.852 39.4724C163.204 40.9267 161.289 41.1449 159.447 40.0541L157.326 48.3318H157.314ZM161.555 31.6795L157.604 35.1457L158.938 36.6606C160.477 38.418 161.725 38.7452 163.131 37.5211C164.61 36.2243 164.416 34.9275 162.901 33.1944L161.568 31.6795H161.555Z" fill="#273A43"/>
<path id="Vector_13" d="M157.716 49.6656L172.272 41.0122L174.683 45.0601C177.774 50.2473 176.817 54.5983 172.211 57.3373C167.581 60.0884 163.109 58.731 160.128 53.7135L157.716 49.6656ZM161.231 50.6594L162.152 52.2107C164.491 56.1374 167.23 57.0585 170.829 54.9255C174.284 52.8773 174.756 50.114 172.393 46.1267L171.472 44.5754L161.231 50.6594Z" fill="#273A43"/>
<path id="Vector_14" d="M172.489 66.3662L173.871 65.8814L175.422 70.3535L174.041 70.8383L172.477 66.3662H172.489Z" fill="#273A43"/>
</g>
<g id="Group_3">
<path id="Vector_15" d="M6.53674 110.152L5.8944 105.922C6.30647 105.086 7.50631 103.729 9.50604 101.85C10.1484 101.244 10.7422 100.626 11.324 99.9957C11.9057 99.3655 12.2329 98.9291 12.3541 98.711C12.4632 98.4928 12.4875 98.1656 12.4269 97.7414L12.3299 97.1112L8.83946 97.6445C7.60326 97.8384 6.79125 97.9838 6.42767 98.105C6.05196 98.2262 5.79745 98.4201 5.63989 98.6989C5.49446 98.9776 5.47022 99.4745 5.57929 100.19L5.68837 100.941L5.15511 101.026L4.01587 93.4996L4.54913 93.4147L4.62185 93.9238C4.7188 94.6025 4.87636 95.0509 5.09451 95.2812C5.31266 95.5114 5.59141 95.6326 5.96712 95.6569C6.34283 95.669 7.17908 95.5841 8.48799 95.3781L16.2082 94.2025C17.4565 94.0086 18.2685 93.851 18.62 93.7298C18.9714 93.6087 19.2017 93.4147 19.2987 93.1481C19.3956 92.8815 19.3956 92.3603 19.2744 91.5605L19.2381 91.2938L19.7713 91.209L20.2319 93.439C20.5349 94.9297 20.7409 96.1174 20.8742 97.0021C21.1045 98.505 21.153 99.7412 21.0075 100.723C20.8742 101.705 20.5349 102.529 19.9895 103.207C19.4441 103.886 18.729 104.286 17.8443 104.419C16.8141 104.577 15.8809 104.334 15.0326 103.68C14.1963 103.038 13.5661 101.983 13.1662 100.541C12.948 101.244 11.9663 102.48 10.2211 104.238C8.8031 105.668 7.89413 106.771 7.50631 107.522C7.11848 108.273 6.97305 109.122 7.08212 110.055L6.54886 110.14L6.53674 110.152ZM12.851 97.0264C12.9601 97.6081 13.0692 98.202 13.1904 98.808C13.3116 99.4261 13.4813 99.9472 13.6873 100.384C13.8933 100.82 14.16 101.159 14.4629 101.402C14.7659 101.644 15.1538 101.814 15.6143 101.911C16.0749 102.008 16.6202 102.008 17.2505 101.911C18.3533 101.741 19.2017 101.329 19.7834 100.674C20.3652 100.02 20.5106 98.7595 20.2319 96.9052C20.1834 96.6143 20.1228 96.2871 20.038 95.9235L12.851 97.0143V97.0264Z" fill="#273A43"/>
<path id="Vector_16" d="M16.6214 123.534L16.8153 124.067L12.0523 125.461L7.49536 113.099L8.00438 112.917L8.11346 113.22C8.38009 113.959 8.65884 114.408 8.93759 114.541C9.21634 114.674 9.51933 114.735 9.84656 114.674C10.1738 114.626 10.9616 114.359 12.2099 113.911L19.5301 111.208C20.6693 110.784 21.4086 110.481 21.748 110.287C22.0873 110.093 22.2812 109.851 22.3418 109.584C22.4024 109.305 22.2934 108.808 22.0389 108.093L22.5479 107.912L26.4746 118.577L22.8872 120.298L22.6933 119.777C23.6508 119.159 24.281 118.601 24.5961 118.092C24.9112 117.583 25.0324 117.086 24.9718 116.577C24.9112 116.068 24.693 115.292 24.3052 114.25L23.5417 112.178L17.2759 114.48L17.8576 116.068C18.1242 116.795 18.3787 117.28 18.609 117.522C18.8393 117.765 19.0938 117.886 19.3847 117.886C19.6755 117.886 20.1846 117.753 20.9117 117.474L21.1056 117.995L16.0033 119.874L15.8094 119.353C16.6335 119.05 17.1668 118.771 17.3971 118.528C17.6273 118.286 17.7364 118.019 17.7243 117.716C17.7122 117.413 17.5789 116.953 17.3486 116.31L16.7426 114.674L13.2037 115.971C11.4342 116.626 10.4404 117.122 10.2101 117.462C9.97988 117.801 10.0526 118.468 10.4162 119.474L10.8282 120.589C11.1191 121.376 11.4585 121.982 11.8463 122.419C12.2341 122.855 12.828 123.182 13.6279 123.413C14.4278 123.643 15.4216 123.679 16.6214 123.546V123.534Z" fill="#273A43"/>
<path id="Vector_17" d="M14.1611 129.278L18.5848 126.709L18.8756 127.218C16.3305 129.472 15.6761 131.666 16.9244 133.823C17.4819 134.793 18.197 135.375 19.0574 135.593C19.9179 135.799 20.6936 135.714 21.3723 135.314C22.0631 134.914 22.4994 134.344 22.7054 133.605C22.8994 132.866 22.8872 131.727 22.7054 130.187C22.5358 128.806 22.463 127.739 22.4994 126.964C22.5236 126.2 22.7418 125.485 23.1175 124.843C23.5053 124.2 24.0144 123.691 24.6567 123.316C25.6384 122.746 26.6564 122.613 27.6987 122.916C28.741 123.219 29.5772 123.885 30.1832 124.928C30.5226 125.509 30.7407 126.115 30.8498 126.733C30.9589 127.351 30.874 128.115 30.5953 129C31.1528 129.097 31.6497 129.036 32.1102 128.83L32.3647 129.278L28.7652 131.375L28.5107 130.927C29.4076 130.066 29.9772 129.121 30.1953 128.127C30.4135 127.133 30.2802 126.188 29.7833 125.34C29.3106 124.515 28.741 124.055 28.0744 123.922C27.4078 123.8 26.814 123.885 26.2807 124.2C25.6384 124.564 25.2505 125.121 25.0809 125.861C24.9112 126.6 24.9112 127.739 25.0809 129.303C25.2384 130.793 25.3111 131.896 25.3111 132.623C25.3111 133.351 25.1051 134.041 24.7294 134.696C24.3537 135.35 23.7841 135.896 23.0448 136.332C21.8692 137.011 20.6815 137.18 19.4937 136.829C18.306 136.477 17.3243 135.641 16.5608 134.32C15.6882 132.817 15.5306 131.218 16.1003 129.533C15.6518 129.497 15.1065 129.594 14.4762 129.812L14.1854 129.303L14.1611 129.278Z" fill="#273A43"/>
<path id="Vector_18" d="M30.8106 134.163L30.4591 133.751L33.4163 131.327L43.4634 143.047L40.6153 145.604L40.2881 145.216C40.9668 144.392 41.3789 143.713 41.5243 143.18C41.6697 142.635 41.6697 142.198 41.5243 141.859C41.3789 141.52 41.0153 141.011 40.4457 140.356L38.7853 138.417L30.2652 145.725C29.3199 146.537 28.7139 147.095 28.4594 147.385C28.2049 147.688 28.0837 147.991 28.1079 148.306C28.1322 148.622 28.3746 149.058 28.8472 149.591L29.3563 150.185L28.9442 150.536L23.7812 144.513L24.1933 144.162L24.7266 144.78C25.175 145.301 25.5386 145.592 25.8416 145.689C26.1446 145.774 26.4597 145.725 26.7748 145.543C27.102 145.361 27.7686 144.84 28.7745 143.98L37.2946 136.672L35.7554 134.878C35.0888 134.102 34.604 133.605 34.301 133.412C33.9981 133.206 33.5618 133.145 32.98 133.242C32.3983 133.339 31.6832 133.642 30.8106 134.175V134.163Z" fill="#273A43"/>
<path id="Vector_19" d="M43.5397 155.856L38.8615 152.039L37.9041 152.56C36.5103 153.311 35.662 153.857 35.3832 154.196C35.0802 154.559 34.9833 154.947 35.0802 155.347C35.1772 155.747 35.4196 156.099 35.8195 156.426L35.4802 156.838L31.8201 153.844L32.1594 153.432C32.7775 153.796 33.335 153.929 33.844 153.844C34.3531 153.76 35.1893 153.396 36.3528 152.729C36.4619 152.669 36.8861 152.426 37.6496 152.026L48.2057 146.391L48.5572 146.682L44.6911 159.831L44.2063 161.589C44.0972 161.989 44.0851 162.352 44.1578 162.692C44.2305 163.031 44.4729 163.407 44.8729 163.795L44.5335 164.219L39.6857 160.268L40.025 159.856C40.6189 160.34 41.0552 160.619 41.3339 160.704C41.6127 160.789 41.8672 160.704 42.0732 160.437C42.1823 160.304 42.3641 159.795 42.6307 158.91L43.5518 155.856H43.5397ZM43.7215 155.323L45.8303 148.282L39.3706 151.76L43.7215 155.311V155.323Z" fill="#273A43"/>
<path id="Vector_20" d="M63.9359 156.681L68.6383 159.154L68.3837 159.626C67.7414 159.335 67.196 159.238 66.7718 159.311C66.3355 159.384 66.0083 159.554 65.778 159.82C65.5478 160.087 65.2205 160.644 64.76 161.505L62.2997 166.195C61.6695 167.395 61.1605 168.255 60.7605 168.789C60.3606 169.322 59.791 169.746 59.0517 170.073C58.3124 170.401 57.4519 170.522 56.4581 170.425C55.4643 170.328 54.4462 170.001 53.3918 169.455C52.1435 168.801 51.1861 168.025 50.5437 167.14C49.9014 166.256 49.562 165.383 49.5499 164.51C49.5378 163.638 49.8287 162.644 50.4225 161.505L51.1861 160.063L53.4888 155.675C54.0826 154.548 54.422 153.809 54.5311 153.457C54.6401 153.106 54.6159 152.803 54.4705 152.561C54.325 152.33 53.9009 152.015 53.1858 151.639L52.8586 151.47L53.1131 150.997L59.5365 154.378L59.2819 154.851L59.0032 154.706C58.3124 154.342 57.8276 154.16 57.5488 154.16C57.2701 154.16 57.0156 154.294 56.7853 154.572C56.555 154.851 56.1187 155.566 55.5128 156.742L53.1858 161.178C52.3738 162.717 51.8769 163.844 51.683 164.559C51.4891 165.274 51.586 166.05 51.9981 166.874C52.398 167.698 53.1494 168.401 54.2523 168.983C55.1128 169.431 55.9733 169.686 56.8459 169.734C57.7185 169.782 58.4578 169.649 59.0517 169.358C59.6455 169.055 60.1182 168.667 60.4575 168.207C60.7969 167.734 61.2574 166.959 61.8392 165.868L64.36 161.068C64.7842 160.269 65.0266 159.687 65.0993 159.323C65.1721 158.96 65.1115 158.608 64.9175 158.257C64.7236 157.917 64.3116 157.554 63.6814 157.166L63.9359 156.693V156.681Z" fill="#273A43"/>
<path id="Vector_21" d="M80.9043 178.834L76.7715 177.731C76.1776 177.028 75.4141 175.38 74.4809 172.798C74.1779 171.974 73.8628 171.174 73.5113 170.399C73.1599 169.623 72.9054 169.138 72.7478 168.944C72.5903 168.75 72.2994 168.605 71.8873 168.484L71.2692 168.326L70.3602 171.744C70.033 172.956 69.8512 173.756 69.8149 174.144C69.7664 174.531 69.8512 174.847 70.0451 175.101C70.2391 175.343 70.6875 175.562 71.3783 175.756L72.1176 175.949L71.9843 176.471L64.6277 174.507L64.7731 173.986L65.27 174.119C65.9245 174.289 66.4093 174.338 66.7001 174.228C67.0031 174.131 67.2213 173.913 67.3909 173.586C67.5485 173.247 67.803 172.447 68.1424 171.162L70.1542 163.624C70.4814 162.4 70.6632 161.6 70.6875 161.224C70.7117 160.848 70.6269 160.57 70.433 160.364C70.2391 160.158 69.7421 159.964 68.9665 159.758L68.6999 159.685L68.8453 159.164L71.0753 159.636C72.5539 159.964 73.7295 160.23 74.59 160.461C76.0564 160.848 77.2078 161.309 78.0562 161.818C78.9045 162.339 79.5226 162.981 79.9226 163.745C80.3225 164.521 80.4074 165.333 80.1771 166.193C79.9105 167.199 79.3045 167.963 78.3834 168.472C77.4502 168.981 76.2504 169.138 74.7597 168.932C75.3172 169.417 76.0564 170.811 76.9654 173.113C77.7168 174.992 78.347 176.252 78.8924 176.919C79.4257 177.586 80.1407 178.046 81.0497 178.325L80.9164 178.846L80.9043 178.834ZM71.4025 167.793C71.9722 167.926 72.566 168.06 73.172 168.193C73.7901 168.326 74.3355 168.375 74.8203 168.363C75.305 168.35 75.7171 168.241 76.0564 168.06C76.3958 167.878 76.7109 167.587 76.9775 167.211C77.2442 166.836 77.4623 166.326 77.632 165.708C77.9229 164.63 77.8865 163.684 77.5108 162.897C77.1351 162.109 76.0564 161.467 74.2385 160.982C73.9598 160.909 73.6325 160.836 73.2689 160.776L71.3904 167.805L71.4025 167.793Z" fill="#273A43"/>
<path id="Vector_22" d="M93.9079 173.816L87.8724 173.501L87.4118 174.483C86.721 175.913 86.3695 176.846 86.3453 177.294C86.3211 177.767 86.4665 178.143 86.7695 178.409C87.0846 178.676 87.4845 178.821 87.9936 178.846L87.9693 179.391L83.2427 179.137L83.2669 178.591C83.9699 178.518 84.5152 178.3 84.8788 177.925C85.2424 177.561 85.703 176.761 86.2483 175.549C86.2968 175.44 86.5028 174.992 86.8785 174.216L92.0779 163.43L92.5384 163.454L97.1802 176.349L97.8225 178.046C97.968 178.434 98.174 178.737 98.4406 178.967C98.7073 179.197 99.1193 179.355 99.6647 179.44L99.6405 179.985L93.3989 179.658L93.4231 179.124C94.1867 179.161 94.7078 179.124 94.9866 179.04C95.2653 178.955 95.4107 178.725 95.4229 178.385C95.4229 178.216 95.2774 177.694 94.9623 176.822L93.8958 173.816H93.9079ZM93.7382 173.283L91.278 166.363L88.1148 172.992L93.7261 173.283H93.7382Z" fill="#273A43"/>
<path id="Vector_23" d="M116.51 178.025L103.069 165.045L104.79 175.952C104.935 176.861 105.069 177.443 105.202 177.722C105.335 178.001 105.626 178.219 106.087 178.389C106.547 178.558 107.19 178.582 108.026 178.449L108.111 178.982L102.245 179.903L102.16 179.37C102.899 179.201 103.457 178.97 103.808 178.692C104.172 178.413 104.366 178.134 104.402 177.867C104.439 177.601 104.378 176.995 104.232 176.037L102.924 167.699C102.73 166.499 102.548 165.699 102.378 165.299C102.196 164.912 101.978 164.669 101.724 164.596C101.457 164.524 100.912 164.548 100.063 164.681L99.9785 164.148L104.62 163.421L115.867 174.256L114.389 164.851C114.28 164.16 114.134 163.675 113.94 163.421C113.746 163.166 113.431 162.997 112.959 162.9C112.498 162.803 111.953 162.815 111.335 162.9L111.25 162.366L116.958 161.47L117.043 162.003C116.388 162.16 115.879 162.366 115.528 162.633C115.176 162.9 114.97 163.178 114.91 163.469C114.849 163.772 114.873 164.257 114.983 164.924L117.031 177.928L116.534 178.001L116.51 178.025Z" fill="#273A43"/>
<path id="Vector_24" d="M129.841 166.073L136.204 163.504L136.41 164.025C135.707 164.304 135.258 164.571 135.064 164.813C134.87 165.055 134.798 165.358 134.858 165.722C134.919 166.086 135.198 166.898 135.707 168.17L136.337 169.734C136.155 169.77 135.986 169.818 135.852 169.879C135.295 170.109 134.628 170.57 133.865 171.273C132.822 172.23 131.768 172.933 130.713 173.345C128.605 174.194 126.569 174.206 124.605 173.381C122.642 172.557 121.236 171.079 120.375 168.946C119.527 166.837 119.442 164.716 120.145 162.583C120.848 160.45 122.339 158.935 124.629 158.002C126.605 157.202 128.532 157.275 130.398 158.208C130.435 157.602 130.362 156.996 130.192 156.378L130.713 156.172L132.701 161.104L132.18 161.31C131.356 159.88 130.301 158.911 129.005 158.402C127.708 157.893 126.387 157.917 125.042 158.45C123.66 159.008 122.654 160.014 122.036 161.456C121.418 162.898 121.636 164.934 122.702 167.564C123.757 170.182 125.005 171.842 126.435 172.533C127.865 173.224 129.32 173.272 130.798 172.679C131.55 172.376 132.18 171.939 132.665 171.382C133.162 170.824 133.428 170.279 133.477 169.746C133.525 169.212 133.416 168.606 133.137 167.928C132.822 167.14 132.556 166.631 132.338 166.413C132.119 166.195 131.889 166.073 131.635 166.073C131.38 166.073 130.968 166.182 130.386 166.425L130.035 166.57L129.829 166.049L129.841 166.073Z" fill="#273A43"/>
<path id="Vector_25" d="M149.315 150.826L153.242 147.687L153.581 148.111C153.206 148.632 152.963 149.226 152.854 149.868C152.757 150.486 152.891 151.432 153.266 152.716C153.569 153.771 153.727 154.583 153.739 155.165C155.145 155.589 156.127 155.771 156.696 155.71C157.278 155.661 157.775 155.468 158.187 155.128C158.756 154.668 158.987 154.037 158.866 153.25L159.29 152.91C159.556 153.516 159.617 154.134 159.435 154.789C159.265 155.431 158.902 155.964 158.357 156.401C157.169 157.358 155.642 157.588 153.775 157.116C153.666 159.164 153.012 160.679 151.8 161.636C151.376 161.988 150.879 162.255 150.321 162.424C149.764 162.594 149.206 162.667 148.637 162.63C148.067 162.594 147.51 162.448 146.976 162.182C146.443 161.915 145.982 161.539 145.595 161.03C144.989 160.267 144.674 159.455 144.674 158.594C144.674 157.746 144.952 156.437 145.498 154.692C143.983 154.268 142.904 153.65 142.262 152.85C141.753 152.219 141.547 151.456 141.644 150.571C141.728 149.686 142.141 148.947 142.88 148.353C143.546 147.82 144.286 147.529 145.11 147.481C145.946 147.432 146.601 147.711 147.073 148.305C147.825 149.25 147.679 150.862 146.625 153.153C147.764 153.456 148.879 153.747 149.958 154.05C151.036 154.353 152.091 154.656 153.121 154.959C153.085 154.195 152.951 153.468 152.733 152.789C152.515 152.11 152.297 151.614 152.054 151.323C151.497 150.62 150.697 150.595 149.655 151.25L149.315 150.826ZM146.092 153.019C146.746 151.323 146.734 150.062 146.067 149.238C145.873 148.996 145.655 148.802 145.425 148.644C145.195 148.499 144.952 148.402 144.698 148.353C144.443 148.305 144.201 148.329 143.958 148.39C143.716 148.462 143.474 148.584 143.256 148.753C142.807 149.105 142.577 149.541 142.54 150.038C142.504 150.535 142.662 151.008 143.013 151.444C143.498 152.038 144.516 152.559 146.079 153.007L146.092 153.019ZM146.067 154.862C145.752 155.771 145.619 156.619 145.692 157.419C145.764 158.219 145.995 158.861 146.382 159.346C146.988 160.097 147.861 160.57 149 160.752C150.139 160.933 151.085 160.715 151.848 160.109C152.697 159.431 153.145 158.388 153.194 156.97C151.763 156.51 150.455 156.098 149.267 155.746C148.079 155.395 147.013 155.104 146.067 154.862Z" fill="#273A43"/>
<path id="Vector_26" d="M170.516 131.8L170.807 131.387L175.364 134.599L175.073 135.011C174.479 134.757 173.874 134.648 173.268 134.672C173.752 136.732 173.365 138.647 172.116 140.417C170.795 142.295 169.111 143.41 167.087 143.762C165.063 144.113 163.063 143.604 161.112 142.222C159.827 141.313 158.809 140.186 158.07 138.841C157.318 137.496 157.015 136.126 157.161 134.757C157.306 133.387 157.791 132.115 158.627 130.927C159.318 129.957 160.13 129.218 161.087 128.709C162.045 128.2 162.905 127.921 163.657 127.873C163.305 127.218 162.857 126.649 162.324 126.188L162.627 125.764L167.632 129.121L167.341 129.533C165.39 128.588 163.754 128.309 162.445 128.721C161.136 129.121 160.094 129.885 159.306 131C158.348 132.357 158.142 133.836 158.676 135.411C159.221 136.999 160.518 138.514 162.578 139.956C164.529 141.326 166.335 141.944 167.983 141.798C169.644 141.653 170.928 140.926 171.85 139.629C172.346 138.938 172.674 138.102 172.843 137.132C173.013 136.163 172.843 135.181 172.346 134.187C171.837 133.193 171.231 132.393 170.529 131.775L170.516 131.8Z" fill="#273A43"/>
<path id="Vector_27" d="M176.416 119.643L174.028 125.194L174.792 125.969C175.895 127.109 176.646 127.763 177.058 127.945C177.494 128.139 177.894 128.127 178.246 127.933C178.597 127.727 178.876 127.4 179.082 126.927L179.579 127.145L177.712 131.484L177.216 131.266C177.397 130.575 177.373 129.993 177.155 129.533C176.937 129.06 176.355 128.357 175.398 127.424C175.301 127.339 174.961 126.988 174.367 126.369L166.053 117.752L166.235 117.328L179.942 117.449H181.76C182.172 117.449 182.524 117.352 182.839 117.183C183.142 117.013 183.433 116.686 183.7 116.201L184.196 116.419L181.724 122.164L181.227 121.946C181.53 121.243 181.688 120.746 181.688 120.455C181.688 120.164 181.542 119.946 181.227 119.813C181.07 119.74 180.524 119.704 179.603 119.704L176.416 119.655V119.643ZM175.846 119.619L168.502 119.522L173.616 124.782L175.846 119.619Z" fill="#273A43"/>
<path id="Vector_28" d="M172.016 98.3339L175.906 99.0853L175.785 99.6186C174.912 99.5338 174.161 99.6186 173.519 99.861C172.876 100.103 172.452 100.418 172.222 100.782C171.992 101.158 171.773 101.824 171.555 102.782L170.864 105.812L177.445 107.315L177.773 105.86C177.991 104.927 177.966 104.26 177.724 103.885C177.482 103.509 176.876 103.206 175.918 102.988L176.052 102.418L181.517 103.667L181.384 104.236C180.718 104.091 180.184 104.03 179.772 104.079C179.36 104.127 179.045 104.26 178.851 104.491C178.645 104.721 178.463 105.218 178.294 105.981L177.966 107.436L181.82 108.308C183.045 108.587 183.844 108.733 184.244 108.769C184.632 108.793 184.947 108.708 185.19 108.502C185.432 108.296 185.626 107.836 185.796 107.133L185.917 106.612L186.438 106.733L184.802 113.944L184.281 113.823L184.39 113.338C184.535 112.671 184.56 112.199 184.45 111.908C184.341 111.617 184.123 111.387 183.784 111.241C183.444 111.084 182.632 110.866 181.336 110.575L173.725 108.842C172.488 108.563 171.689 108.417 171.313 108.405C170.937 108.405 170.658 108.49 170.464 108.696C170.271 108.902 170.089 109.387 169.907 110.175L169.846 110.454L169.325 110.332L172.052 98.3582L172.016 98.3339Z" fill="#273A43"/>
<path id="Vector_29" d="M171.046 90.5677L169.483 92.2765C168.732 93.1007 168.235 93.5976 168.017 93.7794C167.798 93.9612 167.58 94.0339 167.374 94.0339C166.938 94.0096 166.732 93.7672 166.756 93.2825C166.768 93.0279 166.877 92.7977 167.071 92.6038C167.265 92.4099 167.665 92.1432 168.247 91.8039L171.059 90.1799L171.034 90.5677H171.046ZM183.639 85.7683L183.663 85.2108L188.596 85.7926L187.941 98.9544L187.396 98.9302V98.603C187.456 97.8152 187.371 97.294 187.178 97.0517C186.972 96.8093 186.717 96.6517 186.402 96.5669C186.087 96.4941 185.251 96.4214 183.93 96.3487L176.137 95.9609C174.925 95.9003 174.125 95.9003 173.737 95.9488C173.349 95.9972 173.07 96.1306 172.913 96.3608C172.755 96.5911 172.646 97.088 172.61 97.8515L172.077 97.8273L172.634 86.4713L176.609 86.2895L176.585 86.847C175.458 87.0409 174.658 87.3075 174.173 87.6469C173.688 87.9862 173.373 88.3983 173.228 88.8952C173.082 89.3921 172.986 90.192 172.925 91.2948L172.816 93.5006L179.482 93.8278L179.566 92.1432C179.603 91.3676 179.566 90.8222 179.445 90.5071C179.324 90.192 179.142 89.9738 178.876 89.8647C178.609 89.7557 178.088 89.6829 177.312 89.6345L177.336 89.077L182.778 89.3436L182.754 89.889C181.869 89.8405 181.275 89.889 180.972 90.0223C180.669 90.1556 180.463 90.3616 180.354 90.6404C180.245 90.9191 180.185 91.4039 180.148 92.0826L180.063 93.8278L183.82 94.0096C185.699 94.1066 186.814 94.0339 187.165 93.8157C187.505 93.5855 187.711 92.9431 187.759 91.8887L187.82 90.701C187.856 89.8647 187.784 89.1739 187.602 88.6285C187.408 88.0832 186.996 87.5378 186.353 87.0166C185.711 86.4955 184.814 86.0592 183.651 85.7198L183.639 85.7683Z" fill="#273A43"/>
</g>
</g>
<path id="Vector_30" d="M105.391 97.2332C104.809 100.299 105.973 102.832 106.567 105.765C106.579 105.85 106.482 105.899 106.421 105.85C104.506 104.299 102.846 102.954 101.198 101.608C99.6948 100.372 99.4403 99.0269 100.313 97.1363C101.064 95.5122 100.664 93.5125 99.7918 92.1309C98.9798 90.8341 98.9798 89.4646 98.6283 88.1556C98.398 87.3073 98.3617 86.3741 97.3679 86.6043C96.5801 86.7861 95.865 87.6951 95.7317 88.495C95.3196 90.9189 95.6832 93.3186 96.3498 95.6698C96.6043 96.5545 97.283 99.2329 96.9194 98.9057C95.3802 97.1847 94.7743 96.8212 93.9623 95.8879C93.429 95.2698 92.8836 94.5184 92.3867 94.0458C90.4476 92.1794 89.0659 90.2887 90.0113 86.8952C90.896 83.732 88.46 77.9752 87.0056 77.9267C86.8359 77.9267 85.8785 77.5995 85.5391 78.5206C84.9453 81.5505 86.5208 84.1319 86.8359 87.1618C86.8602 87.4042 86.4602 87.986 86.0118 87.8648C84.7877 87.2467 84.921 87.3194 83.9151 86.6649C82.4729 85.7317 81.4912 83.6835 82.279 82.4958C84.0242 79.8295 83.5394 77.1147 82.3881 74.8605C82.0608 74.2303 81.8669 73.9394 81.5033 73.7818C80.5701 73.3819 79.8308 74.0969 79.6127 74.6908C79.4551 75.115 79.4915 75.927 79.5157 76.5693C79.5642 77.9146 79.6611 79.272 79.7581 81.1627C79.8187 82.3019 77.2251 76.1573 76.7524 74.0848C76.4131 72.6062 75.8798 71.1155 75.0799 69.843C74.5709 69.031 73.5286 68.3886 72.547 68.0977C71.8077 67.8796 71.2865 68.2189 71.1047 68.7522C70.8139 69.6127 71.1411 70.4126 71.541 71.4428C73.0802 75.3937 75.7586 78.8721 78.631 82.1807C79.7096 83.4169 79.3218 84.4713 78.8734 83.9259C77.7341 82.5322 74.2679 80.084 71.8077 79.6598C71.5047 79.6114 70.014 79.2356 69.82 79.7083C69.711 80.1325 69.9897 80.6294 70.22 81.0051C72.1955 84.1441 75.2496 85.6954 78.8128 86.168C81.3336 86.4953 83.1758 87.8527 84.7998 89.4888C86.6905 91.3916 89.4417 94.3609 90.7142 95.3304C91.0051 95.5486 91.6595 96.3606 91.3081 96.2273C90.8596 96.0697 90.4355 95.8758 89.9749 95.7667C86.642 94.9911 83.8788 92.4581 80.2065 92.7005C79.3097 92.7611 79.1642 92.5914 78.8007 92.7975C78.4734 92.9914 78.0735 93.3065 78.2068 93.9246C78.4249 94.882 79.4066 96.2636 81.0428 96.3364C83.0304 96.4212 85.0059 96.6878 86.9814 96.8696C91.8534 97.2938 95.8893 99.4632 99.4282 102.639C99.6221 102.808 100.325 103.814 99.7554 103.717C96.6043 103.426 93.5381 103.087 90.4597 102.893C90.0113 102.869 89.0175 103.305 89.0417 103.814C89.0417 104.226 89.478 104.711 89.8295 104.881C92.8351 106.274 96.265 106.856 99.3191 106.299C102.519 105.717 104.858 106.59 107.306 107.971C108.554 108.674 109.693 109.571 111.463 110.795C111.536 110.844 111.499 110.965 111.414 110.953C109.318 110.904 107.888 110.783 106.47 110.904C105.1 111.025 103.731 111.389 102.385 111.728C101.416 111.971 101.186 112.88 101.925 113.583C102.361 113.995 102.7 114.273 103.428 114.588C106.045 115.752 109.197 115.207 111.608 113.013C112.869 111.862 113.96 111.752 115.487 112.698C117.414 113.886 119.595 114.698 121.68 115.631C123.631 116.503 125.594 117.364 127.606 118.091C128.03 118.249 129.315 118.576 129.509 118.091C129.763 117.449 128.806 117.073 128.745 117.061C127.279 116.758 124.625 115.473 119.753 113.413C118.25 112.771 117.256 111.922 117.462 109.365C117.559 108.214 115.535 104.529 114.505 102.154C114.372 101.851 113.717 101.281 112.978 101.766C112.542 102.081 112.639 102.626 112.711 103.002C113.087 104.953 113.547 106.88 113.947 108.82C114.008 109.123 114.093 109.462 113.972 109.716C113.657 110.031 113.038 109.632 112.748 109.401C111.548 108.42 108.033 106.953 109.936 105.184C110.142 105.002 110.445 103.984 110.433 103.754C110.36 101.79 108.615 99.4511 107.173 96.9545C106.736 96.2031 105.573 96.3849 105.403 97.2332H105.391ZM127.594 118.091C128.018 118.249 129.303 118.576 129.497 118.091C129.654 117.521 128.782 117.085 128.733 117.061" fill="#273A43"/>
</g>
<defs>
<filter id="filter0_d_903_3697" x="0" y="0" width="192.605" height="188" filterUnits="userSpaceOnUse" color-interpolation-filters="sRGB">
<feFlood flood-opacity="0" result="BackgroundImageFix"/>
<feColorMatrix in="SourceAlpha" type="matrix" values="0 0 0 0 0 0 0 0 0 0 0 0 0 0 0 0 0 0 127 0" result="hardAlpha"/>
<feOffset dy="4"/>
<feGaussianBlur stdDeviation="2"/>
<feComposite in2="hardAlpha" operator="out"/>
<feColorMatrix type="matrix" values="0 0 0 0 0 0 0 0 0 0 0 0 0 0 0 0 0 0 0.25 0"/>
<feBlend mode="normal" in2="BackgroundImageFix" result="effect1_dropShadow_903_3697"/>
<feBlend mode="normal" in="SourceGraphic" in2="effect1_dropShadow_903_3697" result="shape"/>
</filter>
<clipPath id="clip0_903_3697">
<rect width="184.605" height="180" fill="white" transform="translate(4)"/>
</clipPath>
</defs>
</svg>
