<svg width="235" height="230" viewBox="0 0 235 230" fill="none" xmlns="http://www.w3.org/2000/svg">
<g clip-path="url(#clip0_1229_667)" filter="url(#filter0_d_1229_667)">
<path d="M19.1841 92.4552L16.8354 91.7757L18.608 85.675L20.9567 86.3545L19.1841 92.4552Z" fill="#273A43"/>
<path d="M16.4061 58.5268L22.684 48.6594L25.3577 50.0036L20.6456 57.4042L25.4168 60.4471L29.7448 53.667L32.1969 55.2328L27.8688 62.0129L33.0241 65.3069L37.7362 57.9064L40.0701 59.7676L33.7922 69.635L16.3914 58.5416L16.4061 58.5268Z" fill="#273A43"/>
<path d="M26.864 43.1741L28.9911 40.7368L42.2116 52.2882L48.1498 45.4932L50.2326 47.7976L42.4037 56.7639L26.864 43.1889V43.1741Z" fill="#273A43"/>
<path d="M38.3872 30.8433L40.7802 28.6719L54.695 43.9161L52.302 46.0875L38.3872 30.8433Z" fill="#273A43"/>
<path d="M57.5456 41.005L46.0386 23.87L48.2543 22.3781L59.9977 25.9824C61.7555 26.5585 63.5428 27.1198 65.5665 27.8288L65.6404 27.7845C64.5916 26.4255 63.7644 25.1847 62.6418 23.5155L57.649 16.0855L60.3079 14.2981L71.9922 31.699L70.515 32.6887L57.5751 28.8037C55.773 28.2572 53.9709 27.6811 51.9324 27.0016L51.8586 27.0459C52.8926 28.3901 53.7493 29.6014 54.8867 31.3001L60.2045 39.2177L57.5456 41.005Z" fill="#273A43"/>
<path d="M72.7887 26.8558L74.2216 24.448L74.7238 24.3594C76.5703 25.8218 78.0769 26.1172 79.8052 25.3934C81.6073 24.6401 82.3459 22.8823 81.7107 21.3756C81.0903 19.8984 79.9529 19.2632 76.1419 19.1894C71.799 19.1451 69.8344 17.9781 68.7857 15.4374C67.6187 12.6456 68.9186 9.54357 72.4638 8.05164C75.0783 6.95855 77.4713 7.31306 79.4212 8.80499L78.0326 11.1832L77.5304 11.2718C76.2896 10.4003 75.0488 10.1049 73.5864 10.7105C71.8581 11.4343 71.2968 12.8081 71.8286 14.0932C72.3456 15.334 73.2467 15.7476 77.1168 15.9249C81.8437 16.1317 83.6458 17.3282 84.7241 19.8836C86.024 23.0004 84.5321 26.5604 80.9574 28.0671C78.0474 29.2783 75.4476 28.9829 72.774 26.841L72.7887 26.8558Z" fill="#273A43"/>
<path d="M97.3369 22.2305L94.5303 1.78674L99.9366 1.04816C104.604 0.412989 107.071 2.00831 107.544 5.45008C107.825 7.44424 106.894 9.27591 105.092 10.1179V10.2065C107.603 10.4281 109.45 11.9939 109.819 14.5937C110.351 18.4343 108.223 20.7534 102.921 21.4772L97.3369 22.2453V22.2305ZM98.9174 9.98494L101.237 9.65997C103.718 9.32022 104.796 8.1385 104.516 6.1148C104.265 4.23882 102.935 3.41161 100.143 3.79567L98.105 4.07633L98.9174 9.97017V9.98494ZM100.158 18.9956L102.389 18.6854C105.727 18.2275 106.909 17.0014 106.613 14.8152C106.318 12.629 104.782 11.7428 101.754 12.1564L99.2719 12.4961L100.158 18.9956Z" fill="#273A43"/>
<path d="M126.777 21.0051L125.226 16.0862L116.54 15.6431L114.502 20.3847L110.883 20.1927L120.174 0L123.35 0.162487L130.396 21.1824L126.777 20.9904V21.0051ZM117.648 12.999L124.384 13.3535L122.582 7.65165C122.183 6.32222 121.829 5.00755 121.533 3.72243H121.444C121.046 4.97801 120.529 6.23359 119.997 7.51871L117.648 12.999Z" fill="#273A43"/>
<path d="M143.544 24.6808L140.028 14.326L136.321 16.9257L134.903 22.4946L131.771 21.6969L136.852 1.69629L139.984 2.49395L139.053 6.17206C138.507 8.34348 137.857 10.6478 137.281 12.8193H137.31C139.024 11.5194 140.619 10.2933 142.362 9.02297L148.315 4.60628L152.097 5.56643L142.761 12.3318L147.37 25.6409L143.559 24.6808H143.544Z" fill="#273A43"/>
<path d="M151.151 16.0871C153.943 10.341 159.941 8.2139 165.303 10.8137C169.04 12.6306 171.019 15.5701 171.211 19.5584L168.36 19.9868L167.991 19.6766C167.71 16.8109 166.558 14.9645 163.988 13.7089C160.325 11.9216 156.248 13.5464 154.283 17.6086C152.348 21.5969 153.471 25.7772 157.075 27.5351C160.029 28.9679 163.456 28.6282 165.258 25.4523L165.303 25.3489L160.517 23.015L161.713 20.5481L169.158 24.1672L164.402 33.9459L161.743 32.646L162.23 31.6563C162.57 30.9473 162.954 30.4155 163.353 30.0019L163.308 29.9576C160.738 31.5234 158.065 31.4938 155.391 30.1939C150.147 27.6385 148.389 21.7889 151.151 16.1019V16.0871Z" fill="#273A43"/>
<path d="M177.801 44.3722L179.381 39.4533L172.557 34.0617L168.155 36.7501L165.319 34.5049L184.566 23.3967L187.062 25.3613L180.651 46.6027L177.815 44.3575L177.801 44.3722ZM174.994 32.5698L180.282 36.7501L182.114 31.0631C182.557 29.7337 183.03 28.4781 183.532 27.2373L183.473 27.1782C182.409 27.9758 181.272 28.7144 180.09 29.4382L174.994 32.555V32.5698ZM186.235 19.3345C187.269 18.0346 189.027 17.8278 190.223 18.7732C191.42 19.7186 191.656 21.5059 190.622 22.8058C189.603 24.0909 187.83 24.283 186.619 23.3228C185.423 22.3774 185.216 20.6196 186.22 19.3345H186.235ZM187.18 20.0731C186.604 20.8116 186.678 21.7866 187.402 22.3627C188.126 22.9387 189.101 22.7763 189.677 22.0377C190.253 21.2991 190.194 20.2946 189.485 19.7333C188.776 19.172 187.771 19.3493 187.195 20.0731H187.18Z" fill="#273A43"/>
<path d="M191.861 58.9075L191.359 59.0847L189.158 56.5736L191.891 46.6471L190.148 44.6529L183.678 50.3252L181.521 47.8731L197.031 34.2686L201.138 38.9364C204.062 42.26 204.136 45.3915 201.049 48.1095C199.04 49.8821 196.706 50.148 194.461 48.8185L191.876 58.9075H191.861ZM197.031 38.6114L192.216 42.836L193.84 44.6825C195.716 46.8244 197.238 47.2232 198.951 45.7313C200.754 44.1507 200.517 42.5702 198.671 40.4578L197.046 38.6114H197.031Z" fill="#273A43"/>
<path d="M192.352 60.5332L210.092 49.9863L213.032 54.92C216.798 61.2422 215.631 66.5452 210.018 69.8836C204.376 73.2367 198.925 71.5823 195.291 65.4669L192.352 60.5332ZM196.635 61.7445L197.758 63.6352C200.609 68.4212 203.947 69.5438 208.334 66.944C212.544 64.4477 213.12 61.0798 210.24 56.2199L209.117 54.3292L196.635 61.7445Z" fill="#273A43"/>
<path d="M210.358 80.888L212.042 80.2971L213.932 85.7478L212.248 86.3387L210.343 80.888H210.358Z" fill="#273A43"/>
<path d="M8.09177 134.255L7.30887 129.1C7.81111 128.081 9.27349 126.426 11.7108 124.137C12.4937 123.398 13.2175 122.645 13.9265 121.877C14.6356 121.108 15.0344 120.577 15.1821 120.311C15.315 120.045 15.3446 119.646 15.2707 119.129L15.1526 118.361L10.8984 119.011C9.39166 119.247 8.40197 119.425 7.95882 119.572C7.5009 119.72 7.1907 119.956 6.99867 120.296C6.82141 120.636 6.79187 121.241 6.92481 122.113L7.05776 123.029L6.40781 123.132L5.01929 113.959L5.66923 113.856L5.75786 114.476C5.87604 115.303 6.06807 115.85 6.33395 116.13C6.59984 116.411 6.93959 116.559 7.3975 116.588C7.85542 116.603 8.87466 116.5 10.47 116.249L19.8794 114.816C21.4009 114.579 22.3906 114.387 22.819 114.24C23.2474 114.092 23.528 113.856 23.6462 113.531C23.7644 113.206 23.7644 112.571 23.6166 111.596L23.5723 111.271L24.2223 111.167L24.7836 113.885C25.1529 115.702 25.404 117.15 25.5665 118.228C25.8471 120.06 25.9062 121.566 25.729 122.763C25.5665 123.959 25.1529 124.964 24.4882 125.791C23.8234 126.618 22.9519 127.106 21.8736 127.268C20.618 127.46 19.4806 127.165 18.4466 126.367C17.4274 125.584 16.6593 124.299 16.1718 122.541C15.9059 123.398 14.7094 124.905 12.5823 127.047C10.854 128.79 9.74618 130.134 9.27349 131.05C8.8008 131.966 8.62354 133 8.75648 134.137L8.10654 134.24L8.09177 134.255ZM15.7877 118.258C15.9207 118.967 16.0536 119.69 16.2013 120.429C16.3491 121.182 16.5559 121.818 16.807 122.349C17.0581 122.881 17.3831 123.295 17.7523 123.59C18.1216 123.886 18.5943 124.092 19.1556 124.21C19.717 124.329 20.3817 124.329 21.1498 124.21C22.494 124.004 23.528 123.501 24.2371 122.704C24.9461 121.906 25.1233 120.37 24.7836 118.11C24.7245 117.755 24.6507 117.357 24.5473 116.913L15.7877 118.243V118.258Z" fill="#273A43"/>
<path d="M20.3832 150.565L20.6196 151.215L14.8144 152.913L9.26025 137.846L9.88066 137.625L10.0136 137.994C10.3386 138.895 10.6783 139.442 11.0181 139.604C11.3578 139.767 11.7271 139.841 12.1259 139.767C12.5248 139.708 13.4849 139.383 15.0064 138.836L23.9284 135.542C25.3169 135.025 26.218 134.656 26.6316 134.419C27.0452 134.183 27.2815 133.888 27.3554 133.563C27.4292 133.223 27.2963 132.617 26.9861 131.746L27.6065 131.524L32.3925 144.523L28.0201 146.621L27.7838 145.986C28.9507 145.232 29.7188 144.553 30.1029 143.932C30.4869 143.312 30.6347 142.706 30.5608 142.086C30.4869 141.465 30.2211 140.52 29.7484 139.25L28.8178 136.724L21.1809 139.53L21.8899 141.465C22.2149 142.352 22.5251 142.943 22.8058 143.238C23.0864 143.533 23.3966 143.681 23.7511 143.681C24.1056 143.681 24.726 143.519 25.6123 143.179L25.8487 143.814L19.6299 146.104L19.3935 145.468C20.398 145.099 21.0479 144.759 21.3286 144.464C21.6093 144.169 21.7422 143.844 21.7274 143.474C21.7127 143.105 21.5502 142.544 21.2695 141.761L20.5309 139.767L16.2176 141.347C14.061 142.145 12.8497 142.751 12.5691 143.164C12.2884 143.578 12.377 144.39 12.8202 145.616L13.3224 146.975C13.6769 147.935 14.0905 148.674 14.5632 149.206C15.0359 149.737 15.7597 150.136 16.7347 150.417C17.7096 150.698 18.9208 150.742 20.3832 150.579V150.565Z" fill="#273A43"/>
<path d="M17.3845 157.567L22.7761 154.435L23.1306 155.056C20.0286 157.803 19.231 160.477 20.7524 163.106C21.4319 164.288 22.3034 164.997 23.3522 165.263C24.401 165.514 25.3464 165.41 26.1736 164.923C27.0156 164.436 27.5473 163.741 27.7985 162.84C28.0348 161.939 28.02 160.551 27.7985 158.675C27.5917 156.991 27.503 155.691 27.5473 154.745C27.5769 153.815 27.8428 152.943 28.3007 152.16C28.7734 151.378 29.3938 150.757 30.1767 150.299C31.3732 149.605 32.614 149.442 33.8843 149.812C35.1547 150.181 36.1739 150.993 36.9125 152.264C37.3261 152.973 37.592 153.711 37.7249 154.465C37.8579 155.218 37.7545 156.149 37.4147 157.227C38.0942 157.345 38.6998 157.271 39.2612 157.02L39.5714 157.567L35.1842 160.122L34.874 159.576C35.9671 158.527 36.6614 157.375 36.9273 156.163C37.1931 154.952 37.0307 153.8 36.425 152.766C35.8489 151.762 35.1547 151.2 34.3422 151.038C33.5298 150.89 32.806 150.993 32.1561 151.378C31.3732 151.821 30.9005 152.5 30.6937 153.401C30.4869 154.302 30.4869 155.691 30.6937 157.596C30.8857 159.413 30.9743 160.757 30.9743 161.644C30.9743 162.53 30.7232 163.372 30.2653 164.17C29.8074 164.967 29.1131 165.632 28.2121 166.164C26.7792 166.991 25.3316 167.198 23.884 166.769C22.4364 166.341 21.2399 165.322 20.3093 163.712C19.2457 161.88 19.0537 159.93 19.748 157.877C19.2014 157.833 18.5367 157.951 17.7686 158.217L17.4141 157.596L17.3845 157.567Z" fill="#273A43"/>
<path d="M37.6771 163.52L37.2487 163.018L40.853 160.063L53.0986 174.348L49.6273 177.464L49.2284 176.992C50.0557 175.987 50.5579 175.16 50.7351 174.51C50.9124 173.845 50.9124 173.314 50.7351 172.9C50.5579 172.486 50.1147 171.866 49.4205 171.068L47.3968 168.705L37.0124 177.612C35.8602 178.602 35.1216 179.281 34.8114 179.636C34.5012 180.005 34.3535 180.374 34.3831 180.758C34.4126 181.142 34.708 181.674 35.2841 182.324L35.9045 183.048L35.4023 183.476L29.1096 176.135L29.6119 175.707L30.2618 176.46C30.8083 177.095 31.2515 177.45 31.6208 177.568C31.9901 177.671 32.3741 177.612 32.7582 177.39C33.157 177.169 33.9695 176.534 35.1955 175.485L45.5799 166.578L43.7039 164.392C42.8915 163.446 42.3006 162.841 41.9313 162.604C41.562 162.353 41.0302 162.279 40.3212 162.397C39.6122 162.516 38.7407 162.885 37.6771 163.535V163.52Z" fill="#273A43"/>
<path d="M53.1915 189.96L47.4897 185.307L46.3228 185.942C44.6241 186.858 43.59 187.523 43.2503 187.936C42.881 188.379 42.7628 188.852 42.881 189.339C42.9992 189.827 43.2946 190.255 43.7821 190.654L43.3685 191.156L38.9075 187.508L39.3211 187.006C40.0744 187.449 40.7539 187.611 41.3743 187.508C41.9947 187.404 43.014 186.961 44.432 186.149C44.565 186.075 45.082 185.78 46.0126 185.292L58.8786 178.423L59.307 178.778L54.5948 194.805L54.004 196.947C53.871 197.434 53.8563 197.877 53.9449 198.291C54.0335 198.705 54.329 199.163 54.8164 199.635L54.4028 200.152L48.4942 195.337L48.9078 194.835C49.6316 195.425 50.1634 195.765 50.5031 195.869C50.8429 195.972 51.1531 195.869 51.4042 195.544C51.5371 195.381 51.7587 194.761 52.0837 193.682L53.2063 189.96H53.1915ZM53.4131 189.31L55.9834 180.728L48.1101 184.967L53.4131 189.295V189.31Z" fill="#273A43"/>
<path d="M78.0509 190.966L83.7822 193.979L83.472 194.555C82.6891 194.201 82.0244 194.082 81.5074 194.171C80.9756 194.26 80.5768 194.467 80.2961 194.792C80.0155 195.116 79.6166 195.796 79.0553 196.845L76.0567 202.561C75.2886 204.024 74.6682 205.073 74.1807 205.722C73.6933 206.372 72.999 206.889 72.0979 207.288C71.1969 207.687 70.1481 207.835 68.9368 207.717C67.7255 207.598 66.4847 207.2 65.1996 206.535C63.6782 205.737 62.5112 204.792 61.7283 203.714C60.9454 202.635 60.5318 201.572 60.517 200.508C60.5023 199.445 60.8568 198.233 61.5806 196.845L62.5112 195.087L65.3178 189.74C66.0416 188.366 66.4552 187.465 66.5881 187.036C66.7211 186.608 66.6915 186.239 66.5143 185.943C66.337 185.663 65.82 185.279 64.9485 184.821L64.5497 184.614L64.8599 184.038L72.6888 188.159L72.3786 188.735L72.0388 188.558C71.1969 188.115 70.606 187.893 70.2663 187.893C69.9265 187.893 69.6163 188.056 69.3356 188.395C69.055 188.735 68.5232 189.607 67.7846 191.04L64.9485 196.446C63.9588 198.322 63.3532 199.696 63.1168 200.567C62.8805 201.439 62.9987 202.384 63.5009 203.389C63.9884 204.393 64.9042 205.25 66.2484 205.959C67.2972 206.505 68.346 206.816 69.4095 206.875C70.4731 206.934 71.3741 206.771 72.0979 206.417C72.8217 206.047 73.3978 205.575 73.8114 205.013C74.225 204.437 74.7863 203.492 75.4954 202.163L78.5679 196.313C79.0849 195.338 79.3803 194.629 79.4689 194.186C79.5575 193.743 79.4837 193.314 79.2473 192.886C79.011 192.472 78.5088 192.029 77.7407 191.557L78.0509 190.98V190.966Z" fill="#273A43"/>
<path d="M98.7322 217.966L93.6951 216.621C92.9713 215.765 92.0407 213.756 90.9033 210.609C90.534 209.605 90.1499 208.63 89.7216 207.685C89.2932 206.739 88.983 206.148 88.791 205.912C88.5989 205.676 88.2444 205.498 87.7422 205.351L86.9888 205.159L85.881 209.324C85.4821 210.801 85.2606 211.776 85.2163 212.249C85.1572 212.722 85.2606 213.106 85.4969 213.416C85.7333 213.711 86.2798 213.977 87.1218 214.214L88.0229 214.45L87.8604 215.085L78.894 212.692L79.0713 212.057L79.6769 212.22C80.4746 212.426 81.0655 212.485 81.42 212.352C81.7893 212.234 82.0551 211.968 82.262 211.57C82.454 211.156 82.7642 210.181 83.1778 208.615L85.6299 199.427C86.0287 197.935 86.2503 196.961 86.2798 196.503C86.3094 196.045 86.206 195.705 85.9696 195.454C85.7333 195.203 85.1276 194.966 84.1822 194.715L83.8573 194.627L84.0345 193.991L86.7525 194.568C88.5546 194.966 89.9875 195.291 91.0362 195.572C92.8236 196.045 94.2269 196.606 95.2609 197.226C96.2949 197.862 97.0483 198.644 97.5357 199.575C98.0232 200.52 98.1266 201.51 97.8459 202.559C97.5209 203.785 96.7824 204.716 95.6597 205.336C94.5223 205.956 93.0599 206.148 91.243 205.897C91.9225 206.488 92.8236 208.187 93.9315 210.993C94.8473 213.283 95.6154 214.819 96.2801 215.632C96.9301 216.444 97.8016 217.005 98.9095 217.345L98.747 217.98L98.7322 217.966ZM87.1513 204.509C87.8456 204.671 88.5694 204.834 89.308 204.996C90.0613 205.159 90.726 205.218 91.3169 205.203C91.9078 205.188 92.41 205.055 92.8236 204.834C93.2372 204.612 93.6213 204.258 93.9462 203.8C94.2712 203.342 94.5371 202.721 94.7439 201.968C95.0984 200.653 95.0541 199.501 94.5962 198.541C94.1383 197.581 92.8236 196.798 90.6079 196.207C90.2681 196.119 89.8693 196.03 89.4261 195.956L87.1366 204.524L87.1513 204.509Z" fill="#273A43"/>
<path d="M114.581 211.85L107.225 211.466L106.664 212.662C105.822 214.405 105.393 215.543 105.364 216.089C105.334 216.665 105.512 217.123 105.881 217.448C106.265 217.773 106.752 217.951 107.373 217.98L107.343 218.645L101.582 218.335L101.612 217.67C102.469 217.581 103.133 217.315 103.576 216.857C104.02 216.414 104.581 215.439 105.246 213.962C105.305 213.829 105.556 213.283 106.014 212.337L112.351 199.191L112.912 199.22L118.57 214.937L119.352 217.005C119.53 217.478 119.781 217.847 120.106 218.128C120.431 218.408 120.933 218.6 121.598 218.704L121.568 219.369L113.961 218.97L113.99 218.32C114.921 218.364 115.556 218.32 115.896 218.216C116.236 218.113 116.413 217.832 116.428 217.419C116.428 217.212 116.25 216.577 115.866 215.513L114.566 211.85H114.581ZM114.374 211.2L111.376 202.765L107.52 210.845L114.36 211.2H114.374Z" fill="#273A43"/>
<path d="M142.129 216.98L125.747 201.159L127.845 214.454C128.022 215.562 128.184 216.271 128.347 216.61C128.509 216.95 128.864 217.216 129.425 217.423C129.986 217.63 130.769 217.659 131.789 217.497L131.892 218.147L124.742 219.269L124.639 218.619C125.54 218.413 126.22 218.132 126.648 217.792C127.091 217.452 127.328 217.113 127.372 216.788C127.416 216.463 127.342 215.724 127.165 214.557L125.57 204.394C125.333 202.932 125.112 201.957 124.905 201.47C124.683 200.997 124.418 200.701 124.107 200.613C123.782 200.524 123.118 200.554 122.084 200.716L121.98 200.066L127.638 199.18L141.346 212.386L139.544 200.923C139.411 200.081 139.233 199.49 138.997 199.18C138.761 198.87 138.377 198.663 137.801 198.545C137.239 198.427 136.574 198.441 135.821 198.545L135.718 197.895L142.675 196.802L142.779 197.452C141.981 197.644 141.36 197.895 140.932 198.22C140.504 198.545 140.253 198.885 140.179 199.239C140.105 199.608 140.134 200.199 140.267 201.012L142.764 216.862L142.158 216.95L142.129 216.98Z" fill="#273A43"/>
<path d="M158.377 202.413L166.132 199.282L166.383 199.917C165.526 200.256 164.98 200.581 164.743 200.877C164.507 201.172 164.418 201.542 164.492 201.985C164.566 202.428 164.906 203.418 165.526 204.969L166.294 206.874C166.073 206.918 165.866 206.977 165.704 207.051C165.024 207.332 164.212 207.893 163.281 208.75C162.011 209.917 160.726 210.774 159.44 211.276C156.87 212.31 154.389 212.325 151.996 211.32C149.603 210.316 147.889 208.514 146.84 205.914C145.806 203.344 145.703 200.759 146.56 198.159C147.416 195.559 149.233 193.713 152.025 192.575C154.433 191.6 156.782 191.689 159.056 192.826C159.101 192.088 159.012 191.349 158.805 190.596L159.44 190.345L161.863 196.357L161.228 196.608C160.223 194.865 158.938 193.683 157.358 193.063C155.777 192.442 154.167 192.472 152.527 193.122C150.843 193.801 149.617 195.027 148.864 196.785C148.111 198.543 148.377 201.025 149.676 204.23C150.962 207.421 152.483 209.444 154.226 210.286C155.969 211.128 157.742 211.187 159.544 210.464C160.46 210.094 161.228 209.562 161.819 208.883C162.424 208.204 162.749 207.539 162.808 206.889C162.867 206.239 162.734 205.5 162.395 204.673C162.011 203.713 161.686 203.093 161.42 202.827C161.154 202.561 160.873 202.413 160.563 202.413C160.253 202.413 159.751 202.546 159.042 202.841L158.613 203.019L158.362 202.384L158.377 202.413Z" fill="#273A43"/>
<path d="M182.113 183.829L186.899 180.003L187.312 180.52C186.854 181.155 186.559 181.879 186.426 182.662C186.308 183.415 186.47 184.567 186.928 186.133C187.297 187.418 187.489 188.408 187.504 189.117C189.218 189.634 190.414 189.856 191.108 189.782C191.818 189.723 192.423 189.486 192.925 189.073C193.62 188.511 193.9 187.743 193.753 186.783L194.27 186.37C194.595 187.108 194.668 187.862 194.447 188.659C194.24 189.442 193.797 190.092 193.132 190.624C191.685 191.791 189.823 192.071 187.549 191.495C187.416 193.992 186.618 195.838 185.141 197.005C184.624 197.433 184.018 197.758 183.339 197.965C182.659 198.172 181.98 198.261 181.285 198.216C180.591 198.172 179.912 197.995 179.262 197.67C178.612 197.345 178.05 196.887 177.578 196.266C176.839 195.336 176.455 194.346 176.455 193.297C176.455 192.263 176.795 190.668 177.46 188.541C175.613 188.024 174.298 187.271 173.516 186.296C172.895 185.528 172.644 184.597 172.762 183.519C172.866 182.44 173.368 181.539 174.269 180.815C175.081 180.166 175.982 179.811 176.987 179.752C178.006 179.693 178.804 180.033 179.38 180.756C180.296 181.909 180.118 183.873 178.833 186.665C180.222 187.034 181.581 187.389 182.896 187.758C184.21 188.127 185.495 188.497 186.751 188.866C186.707 187.935 186.544 187.049 186.278 186.222C186.012 185.395 185.746 184.789 185.451 184.435C184.772 183.578 183.797 183.548 182.526 184.346L182.113 183.829ZM178.183 186.503C178.981 184.435 178.966 182.898 178.154 181.894C177.918 181.598 177.652 181.362 177.371 181.17C177.09 180.993 176.795 180.875 176.485 180.815C176.174 180.756 175.879 180.786 175.584 180.86C175.288 180.948 174.993 181.096 174.727 181.303C174.18 181.731 173.9 182.263 173.855 182.869C173.811 183.474 174.003 184.05 174.431 184.582C175.022 185.306 176.263 185.941 178.169 186.488L178.183 186.503ZM178.154 188.748C177.77 189.856 177.607 190.89 177.696 191.865C177.785 192.84 178.065 193.622 178.538 194.213C179.276 195.129 180.34 195.705 181.729 195.927C183.117 196.148 184.269 195.882 185.2 195.144C186.234 194.317 186.78 193.046 186.84 191.318C185.096 190.757 183.501 190.254 182.054 189.826C180.606 189.398 179.306 189.043 178.154 188.748Z" fill="#273A43"/>
<path d="M207.953 160.639L208.307 160.137L213.861 164.052L213.507 164.554C212.783 164.244 212.044 164.111 211.306 164.14C211.897 166.651 211.424 168.985 209.903 171.142C208.292 173.432 206.239 174.791 203.772 175.219C201.305 175.647 198.868 175.027 196.49 173.343C194.924 172.235 193.683 170.861 192.782 169.222C191.866 167.582 191.497 165.913 191.674 164.244C191.852 162.575 192.443 161.023 193.462 159.576C194.304 158.394 195.293 157.493 196.46 156.873C197.627 156.252 198.676 155.913 199.592 155.853C199.164 155.056 198.617 154.362 197.967 153.8L198.336 153.283L204.437 157.375L204.083 157.877C201.704 156.725 199.71 156.385 198.115 156.887C196.52 157.375 195.249 158.306 194.289 159.665C193.122 161.319 192.871 163.121 193.521 165.041C194.186 166.976 195.766 168.823 198.277 170.581C200.656 172.25 202.857 173.003 204.865 172.826C206.889 172.649 208.455 171.762 209.578 170.182C210.183 169.34 210.582 168.321 210.789 167.139C210.996 165.957 210.789 164.761 210.183 163.549C209.563 162.338 208.824 161.363 207.967 160.61L207.953 160.639Z" fill="#273A43"/>
<path d="M215.143 145.823L212.233 152.588L213.163 153.534C214.508 154.922 215.423 155.72 215.926 155.941C216.457 156.178 216.945 156.163 217.373 155.927C217.802 155.675 218.141 155.277 218.393 154.701L218.998 154.966L216.723 160.255L216.118 159.989C216.339 159.147 216.31 158.438 216.044 157.876C215.778 157.3 215.069 156.444 213.902 155.306C213.784 155.203 213.37 154.774 212.646 154.021L202.513 143.518L202.735 143.001L219.441 143.149H221.657C222.159 143.149 222.588 143.031 222.972 142.824C223.341 142.617 223.696 142.219 224.021 141.628L224.626 141.894L221.613 148.895L221.007 148.629C221.376 147.773 221.568 147.167 221.568 146.812C221.568 146.458 221.391 146.192 221.007 146.03C220.815 145.941 220.15 145.897 219.028 145.897L215.143 145.838V145.823ZM214.449 145.793L205.497 145.675L211.731 152.086L214.449 145.793Z" fill="#273A43"/>
<path d="M209.78 119.851L214.522 120.767L214.374 121.417C213.311 121.313 212.395 121.417 211.612 121.712C210.829 122.007 210.312 122.392 210.031 122.835C209.751 123.293 209.485 124.105 209.219 125.272L208.377 128.965L216.398 130.797L216.797 129.024C217.063 127.887 217.033 127.074 216.738 126.616C216.442 126.158 215.704 125.789 214.537 125.523L214.699 124.829L221.361 126.35L221.199 127.045C220.386 126.867 219.736 126.793 219.234 126.853C218.732 126.912 218.348 127.074 218.111 127.355C217.86 127.635 217.639 128.241 217.432 129.172L217.033 130.944L221.73 132.008C223.222 132.348 224.197 132.525 224.685 132.569C225.157 132.599 225.541 132.495 225.837 132.244C226.132 131.993 226.369 131.432 226.575 130.575L226.723 129.94L227.358 130.088L225.364 138.877L224.729 138.729L224.862 138.138C225.039 137.326 225.069 136.749 224.936 136.395C224.803 136.04 224.537 135.76 224.123 135.583C223.71 135.39 222.72 135.125 221.14 134.77L211.863 132.658C210.356 132.318 209.381 132.141 208.924 132.126C208.466 132.126 208.126 132.229 207.89 132.48C207.653 132.732 207.432 133.322 207.21 134.283L207.136 134.622L206.501 134.475L209.825 119.88L209.78 119.851Z" fill="#273A43"/>
<path d="M208.599 110.385L206.693 112.468C205.777 113.473 205.172 114.078 204.906 114.3C204.64 114.521 204.374 114.61 204.123 114.61C203.591 114.581 203.34 114.285 203.37 113.694C203.384 113.384 203.517 113.103 203.754 112.867C203.99 112.631 204.477 112.306 205.186 111.892L208.613 109.913L208.584 110.385H208.599ZM223.946 104.536L223.976 103.856L229.988 104.565L229.19 120.607L228.525 120.578V120.179C228.599 119.219 228.496 118.584 228.26 118.288C228.008 117.993 227.698 117.801 227.314 117.697C226.93 117.609 225.911 117.52 224.301 117.431L214.803 116.959C213.326 116.885 212.351 116.885 211.878 116.944C211.405 117.003 211.065 117.166 210.873 117.446C210.681 117.727 210.548 118.333 210.504 119.263L209.854 119.234L210.534 105.393L215.379 105.171L215.349 105.851C213.975 106.087 213.001 106.412 212.41 106.826C211.819 107.239 211.435 107.741 211.258 108.347C211.08 108.953 210.962 109.928 210.888 111.272L210.755 113.96L218.88 114.359L218.983 112.306C219.027 111.36 218.983 110.696 218.835 110.312C218.688 109.928 218.466 109.662 218.141 109.529C217.816 109.396 217.181 109.307 216.236 109.248L216.265 108.569L222.897 108.894L222.868 109.558C221.79 109.499 221.066 109.558 220.697 109.721C220.327 109.883 220.076 110.134 219.943 110.474C219.81 110.814 219.736 111.405 219.692 112.232L219.589 114.359L224.168 114.581C226.457 114.699 227.816 114.61 228.245 114.344C228.658 114.064 228.91 113.281 228.969 111.996L229.042 110.548C229.087 109.529 228.998 108.687 228.777 108.022C228.54 107.357 228.038 106.693 227.255 106.057C226.472 105.422 225.379 104.89 223.961 104.477L223.946 104.536Z" fill="#273A43"/>
<path d="M128.577 118.509C127.868 122.246 129.286 125.334 130.01 128.908C130.025 129.012 129.906 129.071 129.833 129.012C127.499 127.121 125.475 125.481 123.466 123.842C121.634 122.335 121.324 120.695 122.388 118.391C123.304 116.412 122.816 113.974 121.753 112.29C120.763 110.71 120.763 109.041 120.335 107.445C120.054 106.411 120.01 105.274 118.798 105.555C117.838 105.776 116.967 106.884 116.804 107.859C116.302 110.813 116.745 113.738 117.557 116.604C117.868 117.682 118.695 120.947 118.252 120.548C116.376 118.45 115.637 118.007 114.648 116.87C113.998 116.116 113.333 115.2 112.727 114.624C110.364 112.35 108.68 110.045 109.832 105.909C110.91 102.054 107.941 95.0373 106.169 94.9782C105.962 94.9782 104.795 94.5793 104.381 95.702C103.657 99.3949 105.578 102.541 105.962 106.234C105.991 106.53 105.504 107.239 104.957 107.091C103.465 106.337 103.628 106.426 102.402 105.628C100.644 104.491 99.4476 101.995 100.408 100.547C102.535 97.2973 101.944 93.9885 100.541 91.241C100.142 90.4729 99.9055 90.1183 99.4624 89.9263C98.325 89.4389 97.4239 90.3104 97.158 91.0342C96.966 91.5512 97.0103 92.5409 97.0398 93.3238C97.0989 94.9634 97.2171 96.6178 97.3353 98.9222C97.4091 100.311 94.248 92.8215 93.6719 90.2956C93.2583 88.4935 92.6084 86.6766 91.6334 85.1256C91.013 84.1359 89.7427 83.353 88.5462 82.9985C87.6451 82.7326 87.01 83.1462 86.7884 83.7961C86.4339 84.8449 86.8327 85.8198 87.3202 87.0754C89.1961 91.8909 92.4607 96.1304 95.9615 100.163C97.2762 101.67 96.8035 102.955 96.2569 102.29C94.8684 100.591 90.6438 97.6075 87.6451 97.0905C87.2758 97.0314 85.4589 96.5735 85.2226 97.1496C85.0897 97.6666 85.4294 98.2722 85.7101 98.7301C88.1178 102.556 91.8402 104.447 96.1831 105.023C99.2556 105.422 101.501 107.076 103.48 109.07C105.785 111.389 109.138 115.008 110.689 116.19C111.043 116.456 111.841 117.446 111.413 117.283C110.866 117.091 110.349 116.855 109.788 116.722C105.725 115.776 102.358 112.689 97.8818 112.985C96.7887 113.059 96.6115 112.852 96.1683 113.103C95.7695 113.339 95.282 113.723 95.4445 114.477C95.7104 115.644 96.9069 117.328 98.901 117.416C101.324 117.52 103.731 117.845 106.139 118.066C112.077 118.583 116.996 121.227 121.309 125.097C121.546 125.304 122.403 126.53 121.708 126.412C117.868 126.057 114.13 125.644 110.379 125.408C109.832 125.378 108.621 125.91 108.65 126.53C108.65 127.032 109.182 127.623 109.61 127.83C113.274 129.529 117.454 130.238 121.177 129.558C125.076 128.849 127.927 129.913 130.911 131.597C132.432 132.454 133.821 133.547 135.978 135.039C136.066 135.098 136.022 135.245 135.918 135.231C133.363 135.172 131.62 135.024 129.892 135.172C128.223 135.319 126.553 135.762 124.914 136.176C123.732 136.471 123.451 137.579 124.352 138.436C124.884 138.938 125.298 139.278 126.184 139.662C129.375 141.08 133.215 140.415 136.155 137.742C137.691 136.338 139.021 136.206 140.882 137.358C143.23 138.805 145.889 139.795 148.43 140.932C150.808 141.996 153.201 143.045 155.653 143.931C156.17 144.123 157.736 144.522 157.972 143.931C158.283 143.148 157.116 142.69 157.042 142.675C155.254 142.306 152.019 140.74 146.081 138.229C144.25 137.446 143.038 136.412 143.289 133.296C143.408 131.892 140.941 127.402 139.685 124.506C139.523 124.137 138.725 123.443 137.824 124.034C137.292 124.418 137.41 125.083 137.499 125.54C137.957 127.919 138.518 130.267 139.006 132.631C139.08 133 139.183 133.414 139.035 133.724C138.651 134.108 137.898 133.621 137.543 133.34C136.081 132.143 131.797 130.356 134.116 128.199C134.367 127.978 134.737 126.737 134.722 126.456C134.633 124.063 132.506 121.212 130.748 118.169C130.217 117.254 128.799 117.475 128.592 118.509H128.577ZM155.639 143.931C156.156 144.123 157.721 144.522 157.958 143.931C158.15 143.237 157.086 142.705 157.027 142.675" fill="#273A43"/>
</g>
<defs>
<filter id="filter0_d_1229_667" x="0.124737" y="0" width="234.751" height="229.137" filterUnits="userSpaceOnUse" color-interpolation-filters="sRGB">
<feFlood flood-opacity="0" result="BackgroundImageFix"/>
<feColorMatrix in="SourceAlpha" type="matrix" values="0 0 0 0 0 0 0 0 0 0 0 0 0 0 0 0 0 0 127 0" result="hardAlpha"/>
<feOffset dy="4.87526"/>
<feGaussianBlur stdDeviation="2.43763"/>
<feComposite in2="hardAlpha" operator="out"/>
<feColorMatrix type="matrix" values="0 0 0 0 0 0 0 0 0 0 0 0 0 0 0 0 0 0 0.25 0"/>
<feBlend mode="normal" in2="BackgroundImageFix" result="effect1_dropShadow_1229_667"/>
<feBlend mode="normal" in="SourceGraphic" in2="effect1_dropShadow_1229_667" result="shape"/>
</filter>
<clipPath id="clip0_1229_667">
<rect width="225" height="219.387" fill="white" transform="translate(5)"/>
</clipPath>
</defs>
</svg>
