<?xml version="1.0" encoding="UTF-8"?>
<svg xmlns="http://www.w3.org/2000/svg" viewBox="0 0 876.92 254.82">
  <defs>
    <style>
      .cls-1, .cls-2 {
        stroke-width: 0px;
      }

      .cls-2 {
        fill: #231f20;
      }
    </style>
  </defs>
  <g id="Restaurang_cafe" data-name="Restaurang&amp;amp;cafe">
    <g>
      <path class="cls-2" d="m163.44,235.29c-3.87-.54-5.8-.81-9.66-1.36-1.55-1.41-3.72-4.84-6.51-10.29-.89-1.74-1.83-3.42-2.82-5.05-.99-1.63-1.69-2.63-2.1-3.02-.41-.38-1.09-.65-2.05-.8-.57-.09-.85-.13-1.41-.22-.47,3.09-.71,4.64-1.18,7.72-.42,2.73-.63,4.54-.62,5.4,0,.87.26,1.55.77,2.04.51.5,1.57.87,3.2,1.11.69.1,1.03.15,1.72.26-.07.47-.11.71-.18,1.18-6.86-1.03-10.3-1.55-17.15-2.64.07-.47.11-.71.19-1.18.46.07.7.11,1.16.18,1.53.24,2.62.22,3.27-.06.65-.28,1.11-.81,1.4-1.58.28-.77.65-2.61,1.1-5.51,1.06-6.82,1.59-10.23,2.65-17.06.43-2.77.63-4.57.6-5.4-.03-.83-.29-1.44-.78-1.83-.49-.39-1.62-.73-3.41-1.01-.24-.04-.36-.06-.6-.09.07-.47.11-.71.19-1.18,2.03.22,3.05.32,5.08.53,3.38.37,6.06.7,8.03,1,3.36.51,6.04,1.22,8.06,2.15s3.57,2.18,4.67,3.78c1.1,1.59,1.51,3.36,1.23,5.31-.33,2.28-1.46,4.1-3.4,5.46-1.94,1.36-4.61,2-7.99,1.89,1.38.92,3.4,3.82,6.08,8.66,2.18,3.93,3.99,6.56,5.39,7.88,1.4,1.32,3.15,2.16,5.26,2.52-.07.47-.1.71-.16,1.18Zm-24.37-21.91c1.31.17,2.67.32,4.08.46,1.41.14,2.65.14,3.72-.02,1.08-.16,1.98-.48,2.7-.98.72-.5,1.34-1.2,1.85-2.11.51-.9.86-2.06,1.07-3.46.36-2.45.02-4.5-1-6.15s-3.61-2.79-7.77-3.42c-.64-.1-1.38-.18-2.22-.23-.97,6.36-1.46,9.54-2.43,15.9Z"/>
      <path class="cls-2" d="m199.1,228.88c.51.06.76.09,1.27.15-.83,4.31-1.25,6.47-2.08,10.78-11.91-1.44-17.87-2.21-29.76-3.83l.16-1.18c.3.04.44.06.74.1,1.78.24,2.97.16,3.55-.23.58-.39.99-.94,1.23-1.63s.55-2.49.94-5.41c.91-6.84,1.37-10.27,2.28-17.11.35-2.66.51-4.42.48-5.28-.04-.86-.3-1.49-.78-1.9-.48-.41-1.58-.72-3.28-.95.06-.47.1-.71.16-1.18,10.08,1.37,15.13,2.02,25.23,3.26-.09,3.52-.14,5.29-.23,8.81-.49-.06-.74-.09-1.23-.15-.26-2.5-.73-4.32-1.41-5.44-.68-1.12-1.56-1.89-2.64-2.29-1.08-.41-2.85-.76-5.32-1.08-1.96-.25-2.94-.38-4.9-.63-.77,5.86-1.15,8.79-1.91,14.64,1.51.2,2.27.3,3.78.49,1.73.22,2.96.23,3.69.03.73-.2,1.24-.59,1.53-1.15.29-.56.55-1.7.76-3.42.49.06.74.09,1.23.15-.6,4.78-.9,7.17-1.5,11.95-.5-.06-.74-.09-1.24-.16.24-1.94.24-3.26,0-3.96-.25-.7-.68-1.19-1.3-1.47-.61-.28-1.68-.51-3.21-.71-1.56-.2-2.35-.3-3.91-.51-.43,3.3-.65,4.96-1.08,8.26-.54,4.13-.59,6.6-.13,7.4.45.8,1.88,1.36,4.28,1.67,1.07.14,1.61.21,2.68.34,1.89.24,3.47.2,4.75-.12,1.28-.32,2.56-1.15,3.84-2.48,1.28-1.33,2.4-3.25,3.34-5.75Z"/>
      <path class="cls-2" d="m207.15,240.5c.52-4.5.79-6.74,1.31-11.24.53.06.79.09,1.32.15.65,7.5,3.79,11.57,9.42,12.19,2.53.28,4.57-.21,6.1-1.46,1.54-1.26,2.4-2.75,2.58-4.49.19-1.75-.27-3.3-1.35-4.61-1.08-1.3-3.18-2.79-6.23-4.49-2.73-1.51-4.77-2.82-6.12-3.89-1.35-1.07-2.35-2.37-3-3.91-.65-1.54-.87-3.12-.68-4.76.29-2.49,1.41-4.46,3.35-5.92,1.94-1.46,4.24-2.03,6.92-1.74,1.49.17,2.87.56,4.14,1.19,1.27.63,2.52,1.77,3.75,3.43.9-.86,1.46-1.84,1.69-2.93.46.05.69.07,1.15.12-.39,3.67-.58,5.5-.97,9.16-.46-.05-.69-.07-1.15-.12-.38-2.74-1.33-4.96-2.84-6.67-1.51-1.72-3.37-2.69-5.58-2.94-2.1-.23-3.71.16-4.82,1.17-1.11,1.01-1.75,2.19-1.9,3.53-.18,1.62.3,3.05,1.39,4.31,1.09,1.26,3.16,2.8,6.21,4.56,2.91,1.68,5.03,2.99,6.34,3.96,1.31.97,2.31,2.22,3,3.75.69,1.53.94,3.25.74,5.14-.31,2.99-1.59,5.32-3.84,6.98-2.25,1.66-5.1,2.3-8.53,1.92-3.95-.43-7.08-2.28-9.37-5.52-.68.74-1.24,1.83-1.69,3.25-.53-.06-.8-.09-1.33-.15Z"/>
      <path class="cls-2" d="m241.94,217.75c-.48-.05-.72-.07-1.2-.12.41-3.36.62-5.04,1.03-8.4,13.74,1.38,20.61,2.01,34.37,3.15-.21,3.38-.31,5.07-.52,8.45-.45-.04-.68-.06-1.13-.09-.21-2.34-.62-4.06-1.23-5.14-.61-1.08-1.31-1.78-2.09-2.08-.78-.3-2.14-.54-4.08-.7-2.28-.2-3.42-.3-5.7-.51-.9,9.89-1.34,14.84-2.24,24.74-.25,2.74-.34,4.55-.29,5.42.05.87.35,1.54.9,2.01.55.47,1.63.77,3.24.91.7.06,1.05.09,1.75.15-.04.48-.06.71-.1,1.19-7.19-.63-10.78-.96-17.97-1.65.05-.48.07-.71.11-1.19.74.07,1.11.11,1.86.18,1.54.15,2.63.06,3.25-.26.63-.32,1.07-.88,1.31-1.67.24-.78.5-2.64.77-5.57.92-9.89,1.38-14.84,2.3-24.73-2.1-.2-3.15-.29-5.25-.5-2.28-.22-3.83-.26-4.63-.12-.8.14-1.6.72-2.4,1.73-.8,1.02-1.49,2.62-2.08,4.8Z"/>
      <path class="cls-2" d="m297.8,236.33c-5.45-.39-8.17-.59-13.62-1.01-.44.86-.66,1.29-1.1,2.15-1.63,3.12-2.49,5.17-2.57,6.15-.08,1.05.22,1.88.91,2.48.69.6,1.62.94,2.77,1.03-.04.48-.06.72-.09,1.19-4.29-.33-6.43-.5-10.72-.86.04-.48.06-.71.1-1.19,1.62-.11,2.85-.56,3.7-1.35.85-.79,1.93-2.51,3.25-5.17.11-.25.61-1.22,1.51-2.9,4.94-9.41,7.38-14.12,12.22-23.56.41.03.61.04,1.02.07,3.92,11.5,5.91,17.24,9.97,28.72.56,1.52.84,2.27,1.4,3.79.32.85.77,1.54,1.37,2.05.6.52,1.52.87,2.78,1.08-.03.48-.05.72-.08,1.19-5.68-.36-8.51-.56-14.19-.96.03-.48.05-.72.08-1.19,1.74.12,2.92.08,3.55-.13.63-.21.97-.68,1.02-1.42.03-.38-.3-1.54-.99-3.47-.92-2.68-1.38-4.01-2.3-6.69Zm-.37-1.2c-2.11-6.17-3.16-9.25-5.23-15.42-2.95,5.8-4.44,8.69-7.43,14.48,5.06.39,7.59.58,12.65.94Z"/>
      <path class="cls-2" d="m341.59,216.71c4.74.23,7.11.34,11.86.55-.02.48-.03.72-.05,1.19-1.58.04-2.77.33-3.57.89-.8.56-1.31,1.21-1.52,1.95-.21.73-.36,2.18-.46,4.32-.22,4.68-.32,7.02-.54,11.69-.14,2.99-.36,5.2-.67,6.65-.3,1.44-1.06,2.84-2.27,4.18-1.21,1.34-2.87,2.38-4.99,3.11-2.12.73-4.54,1.02-7.26.87-3.22-.17-5.91-.85-8.07-2.05-2.17-1.19-3.67-2.66-4.52-4.4-.85-1.74-1.18-4.03-1.01-6.86.1-1.44.15-2.16.24-3.6.26-4.37.4-6.56.66-10.93.17-2.79.2-4.61.08-5.43-.12-.82-.43-1.4-.94-1.74-.51-.35-1.67-.57-3.47-.68-.32-.02-.49-.03-.81-.05.03-.48.05-.72.08-1.19,6.48.41,9.72.6,16.19.96-.03.48-.04.72-.07,1.19l-.71-.04c-1.75-.1-2.9-.02-3.45.23-.56.26-.95.77-1.18,1.53-.23.77-.43,2.61-.6,5.53-.26,4.43-.38,6.64-.64,11.06-.22,3.84-.2,6.57.07,8.2.27,1.63,1.21,3.09,2.83,4.38,1.62,1.3,3.83,2.02,6.63,2.17,2.2.12,4.23-.19,6.06-.9s3.23-1.65,4.16-2.81c.93-1.16,1.53-2.37,1.78-3.63.25-1.26.44-3.25.57-5.98.22-4.79.34-7.19.56-11.98.09-1.99.04-3.38-.14-4.19-.19-.8-.65-1.46-1.38-1.96s-1.9-.84-3.52-1.03c.02-.48.04-.72.06-1.19Z"/>
      <path class="cls-2" d="m396.06,253.86c-3.89-.08-5.84-.13-9.73-.23-1.69-1.22-4.25-4.37-7.64-9.46-1.08-1.63-2.21-3.19-3.38-4.69-1.17-1.5-1.98-2.42-2.43-2.75-.45-.33-1.15-.52-2.12-.55-.57-.02-.86-.03-1.43-.05-.11,3.12-.16,4.69-.27,7.81-.1,2.76-.09,4.58,0,5.44.1.86.43,1.51,1,1.94.56.44,1.66.68,3.29.73.69.02,1.04.03,1.73.06-.02.48-.02.72-.04,1.19-6.92-.22-10.38-.35-17.3-.63.02-.48.03-.72.05-1.19.47.02.7.03,1.17.05,1.55.06,2.62-.08,3.23-.44.61-.36,1.01-.94,1.2-1.74.19-.8.34-2.66.45-5.6.26-6.9.39-10.35.65-17.25.11-2.8.1-4.61-.03-5.43-.13-.82-.45-1.39-.98-1.72-.53-.33-1.69-.53-3.49-.61-.24,0-.36-.01-.6-.02.02-.48.03-.72.05-1.19,2.04-.02,3.05-.03,5.09-.06,3.39-.03,6.08-.01,8.07.05,3.38.11,6.13.51,8.23,1.2,2.1.69,3.79,1.75,5.07,3.21,1.27,1.45,1.89,3.16,1.83,5.14-.06,2.3-.97,4.24-2.74,5.82-1.77,1.58-4.33,2.52-7.69,2.81,1.48.76,3.81,3.4,7.03,7.89,2.62,3.65,4.71,6.05,6.25,7.2,1.54,1.14,3.37,1.78,5.5,1.89-.01.48-.02.72-.03,1.19Zm-26.69-18.93c1.32.01,2.69,0,4.1-.02,1.41-.02,2.64-.17,3.69-.45,1.05-.28,1.9-.71,2.56-1.28.66-.58,1.19-1.35,1.59-2.31.4-.95.62-2.14.66-3.56.07-2.47-.5-4.47-1.7-5.99-1.21-1.52-3.9-2.35-8.1-2.49-.65-.02-1.39-.01-2.23.03-.23,6.43-.34,9.65-.56,16.08Z"/>
      <path class="cls-2" d="m423.11,241.28c-5.46-.04-8.19-.07-13.64-.15-.38.89-.58,1.33-.96,2.22-1.43,3.21-2.16,5.31-2.17,6.3-.02,1.06.34,1.86,1.07,2.42.73.55,1.67.84,2.83.86,0,.48-.01.72-.02,1.19-4.3-.06-6.45-.1-10.75-.18l.02-1.19c1.61-.21,2.8-.74,3.6-1.58.8-.84,1.77-2.63,2.91-5.36.09-.26.53-1.25,1.32-2.99,4.33-9.7,6.47-14.56,10.7-24.29.41,0,.61,0,1.02.01,4.63,11.23,6.98,16.84,11.75,28.04.65,1.48.98,2.22,1.63,3.69.37.83.87,1.49,1.5,1.96s1.57.78,2.84.9c0,.48,0,.72,0,1.2-5.69,0-8.53-.02-14.21-.07,0-.48,0-.72,0-1.19,1.74.01,2.92-.1,3.53-.35.62-.25.92-.74.93-1.49,0-.38-.4-1.52-1.2-3.4-1.09-2.61-1.63-3.92-2.71-6.53Zm-.44-1.17c-2.49-6.02-3.73-9.03-6.18-15.06-2.58,5.97-3.88,8.96-6.5,14.92,5.07.07,7.61.1,12.68.14Z"/>
      <path class="cls-2" d="m473.33,254.82c-10.46-13.02-15.6-19.56-25.73-32.71.04,9.77.07,14.65.11,24.42,0,2.02.12,3.36.32,3.99.21.64.79,1.22,1.75,1.76.96.53,2.4.79,4.32.77,0,.48,0,.72,0,1.2-5.4.04-8.1.05-13.49.06,0-.48,0-.72,0-1.2,1.72-.12,3.04-.43,3.94-.93.9-.5,1.44-1.03,1.61-1.6.17-.57.25-1.92.24-4.05-.03-7.46-.04-11.2-.07-18.66-.01-2.7-.14-4.51-.4-5.42-.26-.91-.66-1.5-1.21-1.76-.55-.26-1.78-.38-3.68-.38,0-.48,0-.72,0-1.2,4.19,0,6.29-.01,10.48-.04,8.48,10.96,12.79,16.42,21.51,27.29-.14-8.42-.22-12.63-.36-21.05-.03-1.56-.21-2.65-.54-3.26-.33-.62-1-1.1-2-1.45-1-.35-2.2-.51-3.6-.49,0-.48-.01-.72-.02-1.19,5.15-.07,7.73-.12,12.89-.22,0,.48.01.72.02,1.19-1.5.15-2.68.46-3.53.93-.86.47-1.4,1.02-1.62,1.65-.22.63-.32,1.71-.3,3.21.21,11.65.31,17.47.52,29.12-.46,0-.69.01-1.15.02Z"/>
      <path class="cls-2" d="m508.59,238.06c6.19-.22,9.29-.34,15.47-.6.02.5.03.75.05,1.24-1.71.07-2.86.29-3.46.65-.59.36-.97.94-1.14,1.74-.16.79-.18,2.7-.06,5.73.06,1.49.09,2.24.15,3.74-.43-.05-.81-.07-1.15-.06-1.37.05-3.14.53-5.33,1.43-2.98,1.22-5.76,1.87-8.34,1.95-5.17.17-9.53-1.36-13.04-4.58-3.51-3.22-5.31-7.38-5.44-12.47-.12-5.03,1.39-9.48,4.52-13.36,3.12-3.87,7.43-5.89,12.94-6.07,4.75-.16,8.73,1.43,11.98,4.76.53-1.23.85-2.55.95-3.96.5-.02.75-.03,1.26-.05.19,4.7.28,7.05.47,11.75-.51.02-.76.03-1.26.05-.65-3.6-2.16-6.4-4.5-8.42-2.34-2.02-5.13-2.98-8.35-2.87-3.34.11-6.2,1.43-8.62,3.95-2.41,2.53-3.54,6.92-3.38,13.18.17,6.25,1.5,10.64,4,13.17s5.57,3.74,9.17,3.62c1.85-.06,3.51-.49,5-1.28,1.48-.79,2.48-1.72,2.99-2.8.51-1.07.73-2.42.67-4.02-.07-1.89-.25-3.14-.53-3.76-.28-.62-.69-1.03-1.23-1.23-.54-.2-1.51-.27-2.92-.22-.34.01-.51.02-.85.03-.02-.5-.03-.75-.04-1.24Z"/>
      <path class="cls-2" d="m568.3,228.82c4.51-.3,6.76-.45,11.27-.77.03.48.05.72.08,1.19-1.38.48-2.58,1.24-3.6,2.28-.97,1-1.93,2.91-2.9,5.69-.8,2.29-1.57,3.97-2.3,5.05,2.07,2.53,3.67,4.11,4.8,4.72,1.15.63,2.33.9,3.53.82,1.67-.12,2.9-.98,3.69-2.58.49-.04.73-.05,1.22-.09-.27,1.44-.98,2.65-2.14,3.62-1.14.95-2.52,1.48-4.11,1.59-3.46.24-6.62-1.25-9.46-4.46-2.88,3.58-6.1,5.46-9.58,5.69-1.25.08-2.52-.06-3.77-.46-1.25-.39-2.38-.99-3.39-1.79-1.01-.8-1.84-1.78-2.48-2.93-.65-1.15-.98-2.45-1.04-3.85-.09-2.14.38-4.02,1.5-5.57,1.11-1.53,3.33-3.53,6.62-5.99-2.22-2.69-3.39-5.18-3.53-7.46-.1-1.78.52-3.42,1.82-4.92,1.3-1.49,3.01-2.31,5.14-2.44,1.9-.12,3.64.3,5.2,1.26,1.59.97,2.44,2.3,2.55,4,.17,2.66-2.18,5.41-7.08,8.22,1.71,1.99,3.36,3.94,4.96,5.85,1.6,1.91,3.16,3.79,4.69,5.65.92-1.43,1.61-2.91,2.1-4.43.48-1.5.69-2.68.64-3.53-.13-1.98-1.58-3.04-4.34-3.17-.03-.48-.05-.72-.08-1.19Zm-11.21,3.17c-1.76,1.24-3.11,2.61-4.02,4.14-.92,1.54-1.34,3-1.26,4.36.12,2.14,1.11,4.11,2.97,5.89,1.86,1.78,3.91,2.6,6.12,2.47,2.45-.15,4.65-1.48,6.61-3.98-2.06-2.66-3.95-5.06-5.67-7.2-1.73-2.14-3.31-4.03-4.75-5.68Zm2.45-3.29c3.39-2.24,5-4.53,4.85-6.88-.04-.69-.19-1.32-.42-1.89-.24-.57-.56-1.04-.96-1.43-.4-.39-.87-.68-1.41-.87-.54-.19-1.12-.27-1.75-.23-1.27.08-2.26.57-2.96,1.43-.69.85-1.02,1.91-.94,3.15.1,1.69,1.3,3.93,3.6,6.72Z"/>
      <path class="cls-2" d="m637.49,231.17c.45-.05.68-.07,1.14-.11.49,4.91.74,7.36,1.24,12.27l-1.14.11c-.46-1.37-1.16-2.54-2.09-3.52-2.82,3.79-6.7,5.93-11.63,6.39-5.21.49-9.62-.74-13.19-3.66-3.58-2.92-5.58-7.03-6.02-12.3-.29-3.46.19-6.79,1.43-9.98,1.24-3.19,3.14-5.64,5.69-7.36,2.55-1.72,5.42-2.73,8.63-3.03,2.65-.25,5.09.06,7.35.93,2.26.87,3.98,1.9,5.17,3.1.6-1.54.9-3.1.91-4.68.46-.05.69-.07,1.15-.12.66,5.3.99,7.95,1.65,13.24-.45.05-.68.07-1.13.11-1.26-4.64-3.19-7.76-5.78-9.37-2.59-1.61-5.4-2.26-8.43-1.98-3.71.35-6.52,2.1-8.44,5.28-1.93,3.18-2.65,7.54-2.17,13.09.46,5.26,2.02,9.18,4.69,11.77,2.67,2.59,5.82,3.71,9.43,3.37,1.93-.18,3.86-.82,5.79-1.93,1.93-1.11,3.37-2.81,4.33-5.11.96-2.29,1.44-4.47,1.44-6.52Z"/>
      <path class="cls-2" d="m668.76,228.01c-5.43.63-8.15.94-13.58,1.53-.27.93-.41,1.39-.68,2.32-1.02,3.36-1.49,5.54-1.38,6.52.11,1.05.57,1.81,1.36,2.27.79.46,1.76.63,2.91.5.05.48.08.71.13,1.19-4.28.47-6.42.7-10.7,1.15-.05-.48-.07-.71-.12-1.19,1.57-.41,2.69-1.08,3.38-2.01.69-.93,1.43-2.83,2.23-5.68.06-.27.38-1.31.94-3.13,3.11-10.16,4.64-15.25,7.64-25.42.41-.05.61-.07,1.02-.12,5.99,10.57,9.02,15.84,15.14,26.37.83,1.39,1.25,2.08,2.08,3.46.47.78,1.05,1.37,1.73,1.76.68.4,1.66.58,2.93.54.06.47.09.71.15,1.19-5.65.7-8.48,1.04-14.14,1.69-.06-.47-.08-.71-.14-1.19,1.73-.2,2.89-.46,3.47-.78.58-.32.83-.85.74-1.59-.04-.38-.59-1.45-1.62-3.23-1.4-2.46-2.1-3.69-3.5-6.15Zm-.58-1.11c-3.22-5.67-4.82-8.5-8.01-14.18-1.83,6.24-2.75,9.37-4.62,15.61,5.05-.55,7.57-.84,12.62-1.42Z"/>
      <path class="cls-2" d="m711.42,200.15c.6,3.46.9,5.19,1.5,8.65-.49.07-.74.1-1.23.17-.51-1.87-1.27-3.37-2.29-4.49-1.01-1.12-2.01-1.78-2.96-1.96-.96-.18-2.54-.12-4.72.17-2.76.37-4.14.56-6.9.92.78,5.92,1.16,8.88,1.94,14.8,1.33-.17,2-.26,3.33-.44,2.15-.29,3.53-.84,4.15-1.64.61-.8.77-2.28.48-4.43.52-.07.78-.11,1.31-.18.67,4.92,1.01,7.38,1.68,12.29-.53.07-.79.11-1.31.18-.2-1.49-.52-2.65-.94-3.47-.42-.82-.96-1.35-1.6-1.59-.64-.23-1.85-.23-3.6,0-1.33.18-2,.26-3.33.44.45,3.47.68,5.2,1.14,8.67.36,2.74.67,4.53.92,5.36.25.83.69,1.41,1.32,1.75.63.34,1.77.4,3.4.18.49-.07.73-.1,1.22-.16.06.47.1.71.16,1.18-6.67.89-10.01,1.33-16.69,2.17-.06-.47-.09-.71-.15-1.19.45-.06.67-.08,1.11-.14,1.54-.19,2.58-.52,3.12-.97.54-.45.85-1.09.91-1.91.06-.82-.09-2.68-.46-5.6-.88-6.85-1.32-10.27-2.2-17.12-.36-2.78-.67-4.56-.94-5.35-.27-.78-.69-1.3-1.26-1.54-.57-.24-1.75-.25-3.54-.02-.25.03-.38.05-.63.08-.06-.47-.09-.71-.15-1.19,10.9-1.37,16.34-2.09,27.22-3.61Z"/>
      <path class="cls-2" d="m749.28,219.03c.5-.08.76-.12,1.26-.2.38,4.38.57,6.56.95,10.94-11.87,1.87-17.81,2.77-29.69,4.46l-.17-1.18c.3-.04.44-.06.74-.11,1.78-.25,2.9-.65,3.35-1.19.45-.54.7-1.17.74-1.91.04-.73-.15-2.55-.58-5.46-.99-6.83-1.49-10.25-2.48-17.08-.39-2.65-.72-4.39-.98-5.21-.27-.81-.69-1.35-1.27-1.61-.58-.26-1.72-.26-3.41-.02-.07-.47-.1-.71-.17-1.18,10.08-1.44,15.11-2.19,25.17-3.77.87,3.41,1.31,5.12,2.19,8.54-.49.08-.74.12-1.23.19-.94-2.34-1.88-3.96-2.85-4.85-.96-.89-2.02-1.39-3.17-1.48-1.15-.09-2.96.05-5.42.42-1.95.29-2.93.44-4.88.73.87,5.84,1.3,8.76,2.16,14.61,1.51-.22,2.26-.34,3.77-.56,1.73-.26,2.92-.59,3.56-.99.64-.4,1.03-.9,1.16-1.53.13-.62.06-1.79-.2-3.5.49-.07.74-.11,1.23-.19.73,4.76,1.1,7.14,1.83,11.9-.49.08-.74.11-1.24.19-.3-1.93-.66-3.21-1.09-3.81-.43-.61-.98-.96-1.65-1.06-.67-.1-1.76-.03-3.28.2-1.56.23-2.34.35-3.9.58.49,3.3.73,4.95,1.22,8.24.61,4.12,1.24,6.51,1.89,7.15.66.65,2.18.79,4.58.43,1.07-.16,1.6-.24,2.67-.4,1.88-.29,3.4-.76,4.54-1.42,1.14-.66,2.15-1.8,3.02-3.44.87-1.63,1.41-3.78,1.64-6.45Zm-16.23-25.12c-1.77-1.05-2.66-1.58-4.42-2.64-2.13-1.27-3.44-2.12-3.92-2.53-.49-.41-.76-.84-.82-1.28-.14-.96.31-1.52,1.36-1.67.57-.08,1.1.04,1.61.39.51.34,1.26,1.08,2.26,2.21,1.91,2.16,2.87,3.24,4.79,5.39-.34.05-.51.08-.86.13Z"/>
    </g>
  </g>
  <g id="Elins_bakgård" data-name="Elins bakgård">
    <g>
      <path class="cls-2" d="m0,83.74h47.44l1.24,11.52H13.1v21.91h32.64v11.3H13.1v23.72h35.58l-1.24,11.52H0v-79.97Z"/>
      <path class="cls-2" d="m65.51,83.74h13.1v68h36.6l-1.47,11.97h-48.23v-79.97Z"/>
      <path class="cls-2" d="m126.5,83.74h13.1v79.97h-13.1v-79.97Z"/>
      <path class="cls-2" d="m158.8,163.71v-79.97h10.84l31.4,36.94c4.63,5.65,9.38,11.3,14.57,17.96h.34c-.45-6.67-.45-12.42-.45-20.22v-34.68h12.99v81.22h-7.23l-34.79-40.44c-4.86-5.65-9.6-11.41-14.91-17.96h-.34c.45,6.55.56,12.31.56,20.22v36.94h-12.99Z"/>
      <path class="cls-2" d="m242.83,149.26l9.15-6.44,2.04.46c4.63,8.02,9.83,11.3,17.39,11.3s13.44-5.2,13.44-11.52-3.28-10.17-17.4-16.16c-16.15-6.67-21.69-13.78-21.69-24.4,0-11.75,9.71-20.89,25.3-20.89,11.52,0,19.88,4.86,24.85,13.1l-8.92,6.44-2.03-.45c-3.28-4.97-7.45-7.91-13.89-7.91-7.57,0-11.86,4.07-11.86,9.49s2.71,8.02,16.94,14.46c17.4,7.79,22.25,14.8,22.25,25.53,0,13.1-11.18,23.61-26.88,23.61-12.76,0-22.03-4.97-28.69-16.61Z"/>
      <path class="cls-2" d="m346.97,163.71v-79.97h22.14c19.09,0,28.13,7.45,28.13,20.9,0,7.79-4.74,14.35-12.43,16.6v.34c9.94,2.14,16.49,9.15,16.49,19.31,0,15.02-9.83,22.82-31.51,22.82h-22.82Zm13.1-46.2h9.49c10.16,0,15.14-3.95,15.14-11.86,0-7.34-4.86-11.18-16.27-11.18h-8.36v23.04Zm0,35.24h9.15c13.67,0,19.09-4.07,19.09-12.65s-5.65-12.77-18.07-12.77h-10.17v25.42Z"/>
      <path class="cls-2" d="m470.43,163.71l-7.34-18.75h-35.24l-7.23,18.75h-14.68l33.32-79.97h12.88l32.98,79.97h-14.68Zm-38.63-29.14h27.34l-8.47-21.69c-1.92-5.08-3.61-10.05-5.08-15.02h-.34c-1.35,4.97-3.16,9.94-5.08,15.02l-8.36,21.69Z"/>
      <path class="cls-2" d="m543.73,163.71l-24.17-35.58-11.97,13.33v22.25h-13.1v-79.97h13.1v14.68c0,8.7-.23,17.96-.34,26.66h.11c5.42-6.55,10.51-12.65,16.04-19.09l18.98-22.25h15.81l-29.93,34.34,31.4,45.63h-15.93Z"/>
      <path class="cls-2" d="m560.1,123.95c0-24.74,18.07-42.36,42.24-42.36,16.83,0,29.26,6.89,37.05,20.44l-9.6,6.33-1.92-.45c-6.1-9.49-13.56-14.01-25.19-14.01-16.49,0-28.47,12.54-28.47,30.05s11.52,29.82,27.79,29.82c13.33,0,25.19-7,26.09-21.12v-.45h-21.57v-10.62h33.55v42.13h-11.97v-4.29c0-3.05.45-5.53,1.13-7.68l-.23-.11c-6.55,9.83-16.38,14.23-28.46,14.23-23.61,0-40.44-17.4-40.44-41.91Z"/>
      <path class="cls-2" d="m712.81,163.71l-7.34-18.75h-35.24l-7.23,18.75h-14.68l33.32-79.97h12.88l32.98,79.97h-14.69Zm-38.63-29.14h27.34l-8.47-21.69c-1.92-5.08-3.61-10.05-5.08-15.02h-.34c-1.35,4.97-3.16,9.94-5.08,15.02l-8.36,21.69Zm2.48-67.21c0-6.44,5.08-11.3,11.3-11.3s11.41,4.86,11.41,11.3-5.2,11.18-11.41,11.18-11.3-4.86-11.3-11.18Zm4.86,0c0,3.61,2.71,6.44,6.44,6.44s6.44-2.82,6.44-6.44-2.71-6.55-6.44-6.55-6.44,2.94-6.44,6.55Z"/>
      <path class="cls-2" d="m798.08,161.8l-.79,1.92h-13.55l-22.93-33.32h-10.73v33.32h-13.21v-79.97h25.19c17.96,0,27.67,7.79,27.67,23.72,0,10.39-5.42,17.85-15.47,21.01l23.83,33.33Zm-48.01-66.99v24.85h9.94c11.52,0,16.83-3.39,16.83-12.2,0-9.26-5.42-12.65-16.83-12.65h-9.94Z"/>
      <path class="cls-2" d="m807.79,163.71v-79.97h23.27c29.82,0,45.86,14.35,45.86,39.65s-17.06,40.32-45.86,40.32h-23.27Zm13.1-11.86h8.93c22.59,0,33.44-8.93,33.44-28.69s-10.51-27.56-33.44-27.56h-8.93v56.25Z"/>
    </g>
  </g>
  <g id="kvist">
    <path class="cls-1" d="m428.96,29.86c-2.83-5.87-7.86-7.41-12.6-10.64,4.15-.43,7.71-.81,11.27-1.17,3.13-.31,4.97.95,6.13,4.12,1,2.72,3.75,4.55,6.34,5.14,2.42.55,3.98,2.13,5.89,3.22,1.23.71,2.34,1.74,3.2.34.56-.91.54-2.84-.06-3.72-2.32-3.43-5.59-5.86-9.18-7.85-1.3-.72-2.51-1.62-5.26-3.42,3.73.2,5.74.29,7.75.43,1.33.09,2.92.82,3.93.31,6.25-3.16,8.12.5,10.92,5.47,2.62,4.64,8.29,6.33,13.73,6.84.28.03,1.27-1.95,1-2.35-2.79-4.16-6.71-6.85-11.39-8.42-.64-.21-1.23-.56-1.93-.88,2.11-.7,3.95-1.49,5.86-1.89,2.73-.58,6.19.64,6.66,2.91,1.06,5.05,5.83,5.88,8.63,8.88.88.94,1.49,1.48,2.25.22.58-.97,1.26-2.19,1.13-3.21-.1-.83-1.27-1.56-2.03-2.27-1.61-1.49-3.26-2.94-5.54-4.99,4.68.91,8.65,2.84,11.56,4.67,2.08,1.3,4.41,2.4,6.77,2.94,1.51.34,3.36-.3,4.91-.92.56-.22,1.18-2.11.9-2.41-.99-1.08-2.24-2.28-3.58-2.59-6.86-1.56-13.78-2.85-20.93-4.28,4.13-1.56,8.1-2.96,11.97-4.62.71-.31.98-1.68,1.46-2.56-.65-.35-1.26-.86-1.95-1.02-5.87-1.33-11.15.39-15.77,3.94-3.27,2.52-6.93,3.08-10.67,3.06-4.35-.02-8.69-1.49-13.04.32-.54.23-1.42-.38-2.14-.59.69-.33,1.42-.6,2.06-1,4.72-2.94,10.78-3.19,14.72-7.68.51-.58,1.32-1.06,1.49-1.72.16-.59-.35-1.96-.61-1.97-2-.09-4.05-1.31-6.01.49-2.37,2.18-4.95,4.13-7.42,6.21-6.07,5.1-13.18,7.24-20.88,7.65-.42.02-.86-.44-1.61-.85,3.95-3.27,7.84-6.41,11.59-9.71.54-.48.4-1.76.57-2.68-.71-.12-1.53-.54-2.12-.32-5.05,1.84-9.64,5.11-12.51,9.24-3,4.33-6.68,6.02-11.07,7.24-2.34.65-4.78.92-8.48,1.61,2.63-2.55,4.51-4.1,6.06-5.94,1.44-1.71,2.57-3.7,3.74-5.63.84-1.39.06-2.69-1.6-2.65-.98.02-2.21.01-2.88.57-3.59,2.95-7.33,5.91-7.57,11.19-.13,2.77-1.26,4.14-4.08,4.81-3.58.85-7,2.41-10.46,3.75-3.24,1.25-6.48,2.51-9.62,3.97-.67.31-.95,1.51-1.41,2.3.89.21,2.23.92,2.61.56,3.69-3.46,8.77-3.7,12.95-6.04,2.87-1.61,4.93-1.09,7.5,1.57,3.26,3.36,7.75,3.33,11.66,4.87.49.19,1.45-.84,2.2-1.3-.36-.59-.59-1.38-1.1-1.73-2.66-1.81-5.41-3.49-8.09-5.26-.42-.28-.68-.82-1.02-1.24.57-.28,1.12-.74,1.71-.8,2.5-.25,5.4-1.7,6.7,2.14.24.72.87,1.68,1.49,1.84,4.87,1.23,9.78,2.28,15.31,3.54Z"/>
  </g>
</svg>