<svg width="67" height="66" viewBox="0 0 67 66" fill="none" xmlns="http://www.w3.org/2000/svg">
<path d="M4.25978 27.0023L3.64648 26.8112L4.20402 25.0031L4.81734 25.1943L4.25978 27.0023Z" fill="#1B2E4E"/>
<path d="M3.67188 16.8697L5.56755 14.0102L6.25254 14.3607L4.76308 16.6148L6.31627 17.6423L7.6942 15.5634L8.32345 15.9776L6.94549 18.0564L8.61815 19.1636L10.1076 16.9095L10.697 17.4033L8.80135 20.2628L3.67188 16.8697Z" fill="#1B2E4E"/>
<path d="M6.82536 12.4153L7.36697 11.81L11.3654 15.4102L13.1974 13.3711L13.7071 13.9526L11.3893 16.5253L6.81738 12.4153H6.82536Z" fill="#1B2E4E"/>
<path d="M10.209 8.90546L10.8143 8.36383L14.9163 12.9517L14.311 13.4933L10.209 8.90546Z" fill="#1B2E4E"/>
<path d="M15.7867 12.0743L12.3936 6.94477L12.8954 6.61024L16.6389 7.74925C17.1965 7.91651 17.754 8.09174 18.3434 8.29086L18.3673 8.27493C18.0885 7.87668 17.8337 7.50233 17.4912 6.97664L15.9221 4.60305L16.5911 4.15701L20.048 9.38207L19.7851 9.5573L15.6353 8.31476C15.0778 8.14749 14.5123 7.97226 13.9229 7.78906L13.899 7.805C14.1777 8.19528 14.4326 8.5776 14.7671 9.09533L16.4398 11.6362L15.7707 12.0822L15.7867 12.0743Z" fill="#1B2E4E"/>
<path d="M20.3259 7.90709L20.7002 7.30174L20.8436 7.27784C21.4171 7.75574 21.887 7.85133 22.4286 7.6283C23.0101 7.38935 23.2491 6.79994 23.042 6.30611C22.8428 5.82821 22.4764 5.59723 21.3295 5.5813C20.0152 5.54944 19.4258 5.2149 19.1152 4.46619C18.7807 3.66172 19.1471 2.76964 20.1905 2.33953C20.9551 2.02093 21.6401 2.14837 22.1897 2.57848L21.8233 3.17586L21.6799 3.19975C21.2976 2.92894 20.9233 2.8254 20.4533 3.01656C19.9037 3.24755 19.7205 3.69358 19.8958 4.13166C20.063 4.52991 20.3577 4.67329 21.5047 4.73701C22.9703 4.80869 23.488 5.16711 23.8146 5.94768C24.181 6.83977 23.7588 7.87523 22.7233 8.30534C21.8711 8.6558 21.1224 8.56022 20.3259 7.90709Z" fill="#1B2E4E"/>
<path d="M27.5588 6.60978L26.7305 0.516542L28.2598 0.309443C29.6138 0.126248 30.3546 0.596187 30.49 1.63164C30.5696 2.22105 30.2988 2.76267 29.7731 3.00959V3.04145C30.5059 3.08924 31.0635 3.57511 31.175 4.34772C31.3343 5.50265 30.6971 6.17967 29.12 6.39472L27.5588 6.60978ZM27.8934 3.03348L28.658 2.92994C29.4625 2.81843 29.805 2.44408 29.7174 1.77502C29.6377 1.16968 29.2156 0.914788 28.3076 1.03426L27.6305 1.12188L27.8854 3.02552L27.8934 3.03348ZM28.2677 5.78142L28.9926 5.68584C30.0758 5.5345 30.4501 5.15218 30.3546 4.44329C30.259 3.72644 29.7731 3.44767 28.7855 3.57511L27.981 3.68662L28.2677 5.78938V5.78142Z" fill="#1B2E4E"/>
<path d="M36.3029 6.25255L35.7931 4.6914L33.0452 4.556L32.3921 6.06138L31.5 6.0136L34.3037 0L35.0365 0.0398276L37.2109 6.30034L36.3188 6.25255H36.3029ZM33.3558 3.86304L35.5542 3.97455L34.9409 2.1187C34.8135 1.71248 34.694 1.35405 34.6064 0.995628H34.5904C34.455 1.33812 34.3117 1.68859 34.1364 2.07887L33.3558 3.86304Z" fill="#1B2E4E"/>
<path d="M41.1065 7.31151L39.9595 4.1016L38.7966 4.93793L38.3745 6.65041L37.5859 6.45924L39.0436 0.485474L39.8321 0.676639L39.5533 1.8236C39.386 2.50063 39.2188 3.1697 39.0515 3.85469H39.0595C39.5931 3.45644 40.0949 3.08208 40.6366 2.68383L42.4526 1.31384L43.4163 1.54482L40.6366 3.5998L42.0703 7.54249L41.1065 7.31151Z" fill="#1B2E4E"/>
<path d="M43.1775 4.66907C43.982 2.97252 45.7502 2.29549 47.3592 3.05217C48.4982 3.59379 49.0796 4.46198 49.1592 5.6647L48.4663 5.79214L48.3548 5.69656C48.2512 4.77262 47.8769 4.1832 47.0405 3.78495C45.8617 3.2274 44.5634 3.7531 43.9581 5.03546C43.3527 6.30987 43.743 7.64003 44.898 8.18165C45.8458 8.62769 46.9768 8.50025 47.5503 7.44091L47.5742 7.39311L46.0449 6.6683L46.3476 6.03109L48.5459 7.07451L47.1839 9.95784L46.4989 9.63129L46.6582 9.30472C46.7618 9.08966 46.8653 8.93833 46.9689 8.81885V8.80292C46.1803 9.28082 45.352 9.27286 44.5316 8.88257C42.9306 8.1259 42.381 6.37358 43.1934 4.66907H43.1775Z" fill="#1B2E4E"/>
<path d="M51.2685 13.0549L51.7385 11.4778L49.556 9.7972L48.1542 10.6574L47.4453 10.1078L53.1801 6.75456L53.7616 7.2006L51.9774 13.5885L51.2685 13.039V13.0549ZM50.2092 9.40691L51.9535 10.753L52.5031 8.87325C52.6305 8.46704 52.7421 8.10065 52.8695 7.75815H52.8536C52.5509 7.94931 52.2323 8.1564 51.8659 8.37942L50.2092 9.40691ZM53.5863 5.49609C53.881 5.11377 54.3908 5.05005 54.7493 5.32086C55.1077 5.59167 55.1714 6.10939 54.8767 6.48374C54.582 6.86607 54.0642 6.93775 53.7138 6.65898C53.3633 6.3802 53.2916 5.87044 53.5863 5.48812V5.49609ZM53.8572 5.70318C53.6899 5.9262 53.7058 6.2209 53.9209 6.38817C54.1359 6.55543 54.4306 6.49968 54.6059 6.27666C54.7731 6.05364 54.7492 5.75893 54.5342 5.59963C54.3191 5.43236 54.0244 5.48015 53.8572 5.70318Z" fill="#1B2E4E"/>
<path d="M55.2779 17.1098L55.1345 17.1576L54.5769 16.5443L55.3495 13.4539L54.7522 12.7928L52.7928 14.577L52.2432 13.9716L56.7912 9.83777L57.978 11.144C58.8302 12.0839 58.878 12.9999 57.9939 13.8043C57.4045 14.346 56.6956 14.4177 56.0106 14.0035L55.2779 17.1178V17.1098ZM56.7912 10.9369L55.2779 12.3069L55.8035 12.8884C56.4248 13.5734 56.9027 13.6849 57.4364 13.199C58.0019 12.6813 57.9302 12.1875 57.3169 11.5184L56.7912 10.9369Z" fill="#1B2E4E"/>
<path d="M55.4346 17.5775L60.6596 14.3278L61.5278 15.7216C62.6907 17.6014 62.388 19.1625 60.7234 20.19C59.0507 21.2334 57.4258 20.7715 56.3028 18.9714L55.4346 17.5775ZM56.5258 17.8563L56.9081 18.4775C57.848 19.9909 58.9153 20.3175 60.2773 19.4732C61.5915 18.6528 61.7588 17.5934 60.803 16.0562L60.4207 15.4349L56.5258 17.8563Z" fill="#1B2E4E"/>
<path d="M60.7344 24.0947L61.3397 23.8797L61.969 25.6638L61.3636 25.8789L60.7344 24.0947Z" fill="#1B2E4E"/>
<path d="M0.795589 38.9411L0.652225 38.9012L0.532754 38.033L2.92226 35.8347L2.79482 34.9108L0.158397 35.2612L0.046875 34.401L6.17198 33.5806L6.4189 35.4205C6.59413 36.7427 6.11625 37.5551 4.92149 37.7144C4.12499 37.818 3.49573 37.4675 3.1612 36.6949L0.795589 38.9331V38.9411ZM5.55071 34.5444L3.51964 34.8152L3.63114 35.6276C3.75858 36.5914 4.09312 36.9737 4.80997 36.8781C5.57461 36.7746 5.78967 36.3046 5.66223 35.3568L5.55071 34.5444Z" fill="#1B2E4E"/>
<path d="M6.94587 38.4562L8.04505 41.8892L7.33617 42.2078L6.46799 39.5076L4.69178 40.0731L5.48828 42.5662L4.76346 42.7972L3.96696 40.3041L2.04739 40.9174L2.90762 43.6176L2.15094 43.7689L1.05176 40.336L6.93792 38.4562H6.94587Z" fill="#1B2E4E"/>
<path d="M3.78174 44.8205L4.43487 45.171L4.47471 45.3223C4.05257 45.9516 4.00477 46.4533 4.29151 46.995C4.59418 47.5844 5.21546 47.7835 5.69336 47.5366C6.15533 47.2976 6.34649 46.8994 6.23498 45.7126C6.12347 44.3426 6.40224 43.7054 7.12706 43.3311C7.89966 42.9248 8.8475 43.2434 9.38912 44.2948C9.79534 45.0674 9.73958 45.7843 9.36523 46.3817L8.72006 46.0471L8.68025 45.8958C8.9192 45.4816 8.97495 45.0834 8.72803 44.6134C8.44129 44.0559 7.96338 43.8966 7.5492 44.1196C7.15892 44.3187 7.04741 44.6373 7.11114 45.8321C7.19875 47.3614 6.88811 47.9269 6.1394 48.3172C5.27918 48.7632 4.18796 48.3968 3.63837 47.3534C3.19233 46.4932 3.20826 45.7126 3.78971 44.8365L3.78174 44.8205Z" fill="#1B2E4E"/>
<path d="M10.8957 48.4842L9.62129 46.8195L10.2426 46.3495L13.3091 50.3639L12.6878 50.8338L11.4134 49.1691L7.12026 52.4507L6.60254 51.7737L10.8957 48.4921V48.4842Z" fill="#1B2E4E"/>
<path d="M12.2029 57.7315L12.8003 56.1783L10.6816 54.2109L9.18416 54.9278L8.49121 54.2826L14.6243 51.5427L15.1898 52.0684L12.8959 58.3767L12.2029 57.7315ZM11.3745 53.8844L13.0711 55.4615L13.772 53.6136C13.9313 53.2153 14.0747 52.8569 14.226 52.5224L14.2101 52.5064C13.8835 52.6817 13.541 52.8489 13.1508 53.0321L11.3745 53.8844Z" fill="#1B2E4E"/>
<path d="M15.349 57.1346L17.2845 53.9167L18.0173 54.3548L16.1137 57.509C15.4446 58.6161 15.588 59.3648 16.5517 59.9463C17.5075 60.5198 18.2324 60.2967 18.9094 59.1816L20.8051 56.0354L21.5378 56.4735L19.6024 59.6834C18.7421 61.1012 17.5235 61.4676 16.1376 60.6313C14.6959 59.7631 14.4649 58.5843 15.349 57.1267V57.1346Z" fill="#1B2E4E"/>
<path d="M24.7621 64.0966L24.6586 64.2082L23.8382 63.9135L22.9859 60.7832L22.1098 60.4726L21.2177 62.9815L20.4053 62.6948L22.4841 56.8724L24.2364 57.4936C25.4949 57.9397 25.9967 58.7441 25.5905 59.8752C25.3197 60.6319 24.7143 61.0301 23.878 60.9664L24.7781 64.0966H24.7621ZM23.0337 57.8521L22.3408 59.7876L23.1134 60.0663C24.0294 60.3929 24.5232 60.2734 24.7701 59.5884C25.025 58.8636 24.7143 58.4574 23.8063 58.1309L23.0337 57.8521Z" fill="#1B2E4E"/>
<path d="M30.4172 65.2019L30.0349 63.577L27.1755 63.139L26.3391 64.5727L25.4072 64.4293L28.9357 58.7104L29.6924 58.8299L31.3412 65.3373L30.4093 65.1939L30.4172 65.2019ZM27.5737 62.4858L29.8597 62.8363L29.4057 60.9088C29.3101 60.4866 29.2304 60.1123 29.1667 59.7538H29.1508C28.9755 60.0804 28.7924 60.4149 28.5693 60.7813L27.5737 62.4858Z" fill="#1B2E4E"/>
<path d="M32.9018 65.369L32.5195 59.2041L33.1567 59.1643L35.9684 62.0237C36.3905 62.4538 36.7968 62.8839 37.2269 63.3459H37.2508C37.2109 62.86 37.1791 62.406 37.1392 61.7768L36.964 58.9253L37.8083 58.8696L38.1986 65.154L37.8641 65.1779L34.7497 62.0237C34.3276 61.6016 33.9134 61.1635 33.4674 60.7095H33.4435C33.4913 61.1874 33.5151 61.6494 33.555 62.2706L33.7462 65.3212L32.9018 65.377V65.369Z" fill="#1B2E4E"/>
<path d="M39.4251 61.777C38.8676 59.9769 39.7756 58.2485 41.5598 57.6989C42.8262 57.3086 43.8855 57.5476 44.7856 58.368L44.3316 58.9415H44.1802C43.4554 58.3441 42.7465 58.1688 41.8226 58.4556C40.5163 58.8618 39.8711 60.1521 40.2933 61.5062C40.7154 62.8602 41.9421 63.5612 43.2244 63.1629C44.2758 62.8363 45.0723 61.9602 44.7697 60.7814L44.7537 60.7336L43.0572 61.2593L42.8501 60.5822L45.2954 59.8256L46.2432 62.8841L45.4865 63.1231L45.375 62.7726C45.3033 62.5496 45.2874 62.3585 45.2794 62.1992H45.2635C44.9927 63.0833 44.3395 63.6567 43.4236 63.9355C41.6474 64.4851 39.9986 63.5851 39.4331 61.777H39.4251Z" fill="#1B2E4E"/>
<path d="M55.2219 57.4225L54.3616 58.0279L53.5014 57.8765C53.374 58.6093 52.9996 59.1907 52.3863 59.6288C51.4385 60.2979 50.3472 60.1625 49.7339 59.3102C49.3198 58.7367 49.3118 58.0358 49.7339 57.2075C48.9932 57.088 48.5153 56.7853 48.2286 56.3791C47.7268 55.6622 47.902 54.8259 48.6905 54.2684C49.4472 53.7347 50.3313 53.8144 50.7853 54.4675C51.2154 55.0808 51.2234 55.7977 50.7853 56.6499L52.7766 57.0004C52.7208 56.5304 52.5615 56.0127 52.2907 55.4711L52.3226 55.3835L52.9518 54.9374C53.3182 55.7578 53.5094 56.4906 53.5412 57.1278L55.2298 57.4225H55.2219ZM48.8498 55.9171C49.0888 56.2517 49.6623 56.4428 50.0844 56.5304C50.4588 55.7737 50.4428 55.3277 50.1641 54.9374C49.9251 54.5949 49.4711 54.5073 49.0649 54.7941C48.6427 55.0888 48.579 55.5428 48.8419 55.9251L48.8498 55.9171ZM52.7607 57.7491L50.4189 57.3269C50.1003 57.9562 50.1083 58.4102 50.403 58.8244C50.7853 59.35 51.4225 59.4297 51.9881 59.0314C52.4182 58.7288 52.673 58.2907 52.7527 57.757L52.7607 57.7491Z" fill="#1B2E4E"/>
<path d="M55.7774 52.635C54.2879 51.496 54.0331 49.5605 55.1482 48.0949C55.9208 47.0913 56.9244 46.6612 58.1749 46.8604L58.1271 47.5931L58.0076 47.6887C57.0438 47.5533 56.3509 47.848 55.7933 48.5649C54.9809 49.6242 55.2039 51.05 56.327 51.9102C57.4421 52.7624 58.8917 52.5952 59.6962 51.5438C60.2936 50.7632 60.3891 50.0384 59.9989 49.1622L60.0705 49.0189L60.7555 48.8038C61.2414 49.9906 61.106 51.034 60.3254 52.0536C59.2024 53.5191 57.2828 53.782 55.7854 52.635H55.7774Z" fill="#1B2E4E"/>
<path d="M64.6671 44.0888L63.0024 43.9932L61.7758 46.6137L62.9148 47.8244L62.5165 48.6766L58.0322 43.6826L58.3588 42.9896L65.0653 43.2445L64.6671 44.0967V44.0888ZM61.266 46.0561L62.2457 43.9613L60.2704 43.8578C59.8403 43.8339 59.458 43.802 59.0916 43.7622V43.7781C59.3464 44.033 59.6173 44.3038 59.912 44.6304L61.266 46.0641V46.0561Z" fill="#1B2E4E"/>
<path d="M59.4572 40.2903L60.3333 36.9291L61.098 37.0406L60.413 39.6611L62.237 40.139L62.8742 37.7097L63.607 37.9008L62.9697 40.3301L65.646 41.0311L65.431 41.8594L59.4492 40.2983L59.4572 40.2903Z" fill="#1B2E4E"/>
<path d="M60.1589 34.0757L58.9562 35.0235L58.9004 34.9837L58.9721 34.1633L60.2146 33.4465L60.1589 34.0757ZM60.4695 36.0749L60.7961 32.4827L61.5687 32.4668L61.3138 35.2943L63.1776 35.4616L63.4166 32.857L64.1732 32.9287L63.9343 35.5333L65.9415 35.7165L66.1964 32.8889L66.953 33.0482L66.6265 36.6404L60.4695 36.0829V36.0749Z" fill="#1B2E4E"/>
<path d="M34.3947 31.8437L34.2831 36.4952H21.6904V35.5394C22.5586 35.5394 23.1162 35.412 23.371 35.1651C23.618 34.9182 23.7454 34.4881 23.7454 33.8747V24.9937C23.7454 24.5875 23.7056 24.2769 23.6259 24.0539C23.5463 23.8309 23.3551 23.6477 23.0604 23.5202C22.7657 23.3928 22.3117 23.3291 21.6904 23.3291V22.3733H33.4149L33.6061 26.0451H32.6503C32.4353 25.2327 32.1883 24.6513 31.9016 24.3008C31.6228 23.9503 31.3042 23.7353 30.9538 23.6556C30.6033 23.576 30.0776 23.5361 29.3767 23.5361H26.7323V28.5302H28.174C28.6678 28.5302 29.0342 28.4904 29.2811 28.4028C29.528 28.3152 29.6953 28.1479 29.7909 27.909C29.8865 27.67 29.9581 27.2877 29.99 26.762H30.9936V31.4613H30.0378C30.0059 30.9436 29.9422 30.5533 29.8307 30.3064C29.7192 30.0595 29.5439 29.8922 29.305 29.8126C29.066 29.7329 28.6996 29.6851 28.2058 29.6851H26.7482V33.0066C26.7482 33.5641 26.7641 33.9703 26.788 34.2252C26.8119 34.4801 26.8916 34.6952 27.0111 34.8624C27.1305 35.0297 27.3297 35.1571 27.6084 35.2288C27.8792 35.3085 28.2775 35.3403 28.7793 35.3403H29.9183C30.3962 35.3403 30.8582 35.2766 31.2883 35.1571C31.7264 35.0376 32.1485 34.719 32.5627 34.2173C32.9769 33.7155 33.2716 32.9269 33.4388 31.8437H34.4185H34.3947Z" fill="#1B2E4E"/>
<path d="M47.3061 38.2862C47.3061 39.0588 47.107 39.688 46.7167 40.1819C46.3265 40.6757 45.8246 41.0421 45.2273 41.297C44.6219 41.5518 44.0325 41.7191 43.459 41.7988C42.8855 41.8784 42.328 41.9182 41.7943 41.9182H34.8887V40.9863C35.4781 40.9863 35.9161 40.9226 36.1949 40.8031C36.4737 40.6837 36.6569 40.5084 36.7445 40.2854C36.8321 40.0624 36.872 39.7517 36.872 39.3614V30.6716C36.872 30.0663 36.7445 29.6362 36.4976 29.4052C36.2507 29.1662 35.7091 29.0467 34.8966 29.0467V28.0909C35.8763 28.067 36.8082 28.0511 37.7003 28.0272C38.5844 28.0033 39.3172 27.9954 39.8907 27.9794C40.4642 27.9635 40.8624 27.9635 41.0934 27.9635H41.4678C42.1687 27.9635 42.9095 28.0352 43.6741 28.1786C44.4387 28.3219 45.1396 28.6565 45.7768 29.1662C46.4061 29.684 46.7247 30.4247 46.7247 31.3885C46.7247 32.1133 46.4698 32.7346 45.9521 33.2602C45.4344 33.7859 44.598 34.2081 43.4272 34.5506C44.2237 34.694 44.9246 34.9329 45.514 35.2674C46.1034 35.602 46.5574 36.0241 46.8601 36.5418C47.1628 37.0596 47.3141 37.633 47.3141 38.2782L47.3061 38.2862ZM43.8175 31.484C43.8175 31.0141 43.706 30.592 43.475 30.2415C43.2519 29.8831 42.9094 29.6123 42.4714 29.4131C42.0333 29.214 41.4837 29.1105 40.8385 29.1105H39.7712V34.0408H40.5996C41.6908 34.0408 42.4953 33.8098 43.021 33.3479C43.5466 32.8859 43.8095 32.2646 43.8095 31.4761L43.8175 31.484ZM44.1918 38.1109C44.1918 37.179 43.9529 36.4542 43.467 35.9365C42.9811 35.4188 42.3041 35.1639 41.42 35.1639H39.7792V38.7482C39.7792 39.2499 39.8111 39.6402 39.8668 39.919C39.9305 40.1978 40.0819 40.4128 40.3208 40.5721C40.5677 40.7235 40.95 40.8031 41.4757 40.8031C42.1767 40.8031 42.8059 40.5881 43.3555 40.1659C43.9051 39.7358 44.1838 39.0588 44.1838 38.1269L44.1918 38.1109Z" fill="#1B2E4E"/>
</svg>
